<svg xmlns="http://www.w3.org/2000/svg" viewBox="0 0 423.8 290.1"><style>.st0{fill:#3f33f0}.st2{fill:#bcc1e8}.st7{fill:#fff}</style><path class="st0" d="M69.8 289.5l17.2.2c.6 0 1.2-.2 1.7-.5l62.2-35.9c.2-.1-36.3-1.3-36.3-1.3l-9.7 4.4-5.4 4.1-29.7 29z"/><path class="st0" d="M117.8 256.3l38.2.4c1.3 0 2.7-.3 3.8-1l96.5-55.8c.4-.3-39-26.9-39-26.9l-21.5 9.8 21.1 16.6-99.1 56.9z"/><linearGradient id="SVGID_1_" gradientUnits="userSpaceOnUse" x1="4491.1885" y1="168.0099" x2="4583.9712" y2="168.0099" gradientTransform="matrix(-1 0 0 1 4668.4551 0)"><stop offset="0" stop-color="#bcc1e8"/><stop offset="1" stop-color="#bbc0e6" stop-opacity=".6"/></linearGradient><path d="M48.1 223.2V102.4l35.8 17.4 58.2-33.6c7-4 17.5-4.5 23.6-1l17.4 9 35.8-17.4v126.5l-94 52.6c-3.6 2.1-8.2 3.2-12.6 3.3-4.1.1-8.1-.7-11-2.3l-49.2-27.3c-2.8-1.8-4.1-4-4-6.4z" fill="url(#SVGID_1_)"/><path class="st2" d="M52.2 229.1l49.2 27.3c6 3.5 16.6 3.1 23.6-1l88.2-50.9c3.6-2.1 5.6-4.8 5.8-7.3.2-2.3-1.2-4.6-4.1-6.3L123.4 138c-6-3.5-16.6-3.1-23.6 1L54 215.4c-3.6 2.1-5.6 4.8-5.8 7.3-.2 2.5 1.1 4.7 4 6.4z"/><linearGradient id="SVGID_2_" gradientUnits="userSpaceOnUse" x1="4491.1885" y1="166.0099" x2="4583.9712" y2="166.0099" gradientTransform="matrix(-1 0 0 1 4668.4551 0)"><stop offset=".69" stop-color="#dcdffb"/><stop offset=".7579" stop-color="#f3f3fa"/></linearGradient><path d="M48.1 221.2V100.4l35.8 17.4 58.2-33.6c7-4 17.5-4.5 23.6-1l17.4 9 35.8-17.4v126.5l-94 52.6c-3.6 2.1-8.2 3.2-12.6 3.3-4.1.1-8.1-.7-11-2.3l-49.2-27.3c-2.8-1.8-4.1-4-4-6.4z" fill="url(#SVGID_2_)"/><path class="st0" d="M329.4 258.3l38.2.4c1.3 0 2.7-.3 3.8-1l50.8-30c2.2-1.3 2.2-4.6-.2-5.8l-52.7-27.2-21.5 9.8 40.1 19.6-58.5 34.2z"/><linearGradient id="SVGID_3_" gradientUnits="userSpaceOnUse" x1="347.2731" y1="169.0099" x2="319.8197" y2="169.0099"><stop offset="0" stop-color="#bcc1e8"/><stop offset="1" stop-color="#bbc0e6" stop-opacity=".6"/></linearGradient><path d="M388.9 224.2V103.4l-35.8 17.4-58.2-33.6c-7-4-17.5-4.5-23.6-1l-17.4 9-35.8-17.4v125.5l94 53.6c3.6 2.1 8.2 3.2 12.6 3.3 4.1.1 8.1-.7 11-2.3l49.2-27.3c2.8-1.8 4.2-4 4-6.4z" fill="url(#SVGID_3_)"/><linearGradient id="SVGID_4_" gradientUnits="userSpaceOnUse" x1="347.2731" y1="169.0099" x2="319.8197" y2="169.0099"><stop offset="0" stop-color="#bcc1e8"/><stop offset="1" stop-color="#bbc0e6" stop-opacity=".6"/></linearGradient><path d="M388.9 224.2V103.4l-35.8 17.4-58.2-33.6c-7-4-17.5-4.5-23.6-1l-17.4 9-35.8-17.4v125.5l94 53.6c3.6 2.1 8.2 3.2 12.6 3.3 4.1.1 8.1-.7 11-2.3l49.2-27.3c2.8-1.8 4.2-4 4-6.4z" fill="url(#SVGID_4_)"/><path class="st2" d="M388.9 223.8c-.2-2.6-2.1-5.2-5.8-7.3L337.3 140c-7-4-17.5-4.5-23.6-1l-91.5 53c-2.9 1.7-4.2 3.9-4.1 6.3.2 2.6 2.1 5.2 5.8 7.3l88.2 50.9c7 4 17.5 4.5 23.6 1l49.2-27.3c2.8-1.8 4.2-4 4-6.4z"/><linearGradient id="SVGID_5_" gradientUnits="userSpaceOnUse" x1="347.2731" y1="167.0099" x2="319.8197" y2="167.0099"><stop offset=".6522" stop-color="#dcdffb"/><stop offset=".7979" stop-color="#f3f3fa"/></linearGradient><path d="M388.9 222.2V101.4l-35.8 17.4-58.2-33.6c-7-4-17.5-4.5-23.6-1l-17.4 9-35.8-17.4v125.5l94 53.6c3.6 2.1 8.2 3.2 12.6 3.3 4.1.1 8.1-.7 11-2.3l49.2-27.3c2.8-1.8 4.2-4 4-6.4z" fill="url(#SVGID_5_)"/><path class="st7" d="M386.4 97.9L223 1.2c-2.8-1.7-6.3-1.7-9.1 0L50.5 97.9c-3.4 2-3.4 6.9 0 8.9l56.9 33.4c1.2.7 2.7.7 4 0l107-59.7 107 59.7c1.2.7 2.8.7 4 0l56.9-33.4c3.4-1.9 3.5-6.9.1-8.9z"/><path class="st7" d="M276.8 234.3l-1.5-1v-120h1.5z"/><path d="M277.8 235.1c.1-.2.2-.4.2-.7V115.2c0-.6-.3-1-.7-1s-.7.4-.7 1v118.7c.1 0 1.1 1.4 1.2 1.2z" fill="#dadefa"/><path d="M284.5 150.8V195m-14.8-51.5v44.1m-115-36.8V195m14.8-51.5v44.1" fill="none" stroke="#1b2c49" stroke-width="2" stroke-linecap="round" stroke-miterlimit="10"/><path fill="#f2f2fa" d="M162.7 232.2l-1 1.1v-121h1z"/><path d="M163.6 232.1c.1-.2.2-.4.2-.7V113.3c0-.6-.2-1-.5-1s-.5.5-.5 1V233c-.1-.1.7-.7.8-.9z" fill="#c3caea"/><path fill="none" stroke="#c3caea" stroke-miterlimit="10" d="M217.9 81.3v120"/><path class="st2" d="M0 248.1v-43.8l14.8 7.2 24-13.8c2.9-1.7 7.2-1.8 9.7-.4l53.7 30.9L117 221v43.9c-.1 1.1-.9 2.2-2.4 3l-36.4 21c-1.5.9-3.4 1.3-5.2 1.4-1.7 0-3.3-.3-4.5-1L1.7 250.6C.5 250-.1 249 0 248.1z"/><path d="M4.7 216.7l30.2-17.4v4.7L4.7 221.4zm2.1-1.4h.1l25.4-14.6c.1-.1.2-.2.1-.3-.1-.1-.2-.2-.3-.1L6.6 214.8c-.1.1-.2.2-.1.3.1.2.2.2.3.2z" fill="#e6e8f6"/><linearGradient id="SVGID_6_" gradientUnits="userSpaceOnUse" x1="4156.9927" y1="241.667" x2="4175.7969" y2="241.667" gradientTransform="matrix(-1 0 0 1 4226.2979 0)"><stop offset="0" stop-color="#dcdffb"/><stop offset=".5678" stop-color="#eceefb"/><stop offset="1" stop-color="#f3f3fa"/></linearGradient><path d="M0 246.6v-43.8l14.8 7.2 24-13.8c2.9-1.7 7.2-1.8 9.7-.4l53.7 30.9 14.8-7.2v43.8c-.1 1.1-.9 2.2-2.4 3l-36.4 21c-1.5.9-3.4 1.3-5.2 1.4-1.7 0-3.3-.3-4.5-1L1.7 249.2c-1.2-.7-1.8-1.7-1.7-2.6z" fill="url(#SVGID_6_)"/><path class="st7" d="M1.7 205.3l66.8 38.5c2.5 1.4 6.9 1.3 9.7-.4l36.4-21c1.5-.9 2.3-2 2.4-3 .1-1-.5-1.9-1.7-2.6l-66.8-38.5c-2.5-1.4-6.9-1.3-9.7.4l-36.4 21c-1.5.9-2.3 2-2.4 3-.1 1 .5 1.9 1.7 2.6z"/><path class="st7" d="M1.7 204.5L68.5 243c2.5 1.4 6.9 1.3 9.7-.4l36.4-21c1.5-.9 2.3-2 2.4-3 .1-1-.5-1.9-1.7-2.6l-66.8-38.5c-2.5-1.4-6.9-1.3-9.7.4l-36.4 21c-1.5.9-2.3 2-2.4 3-.1 1 .5 1.9 1.7 2.6z"/><path fill="none" stroke="#c3caea" stroke-linecap="round" stroke-miterlimit="10" d="M80.7 196.7l-46.9 27.2"/><path d="M25.7 249.9c.3.2.5-.1.5-.5l.2-12.3c0-.5-.2-.9-.4-1.1l-.3-.2c-.3-.2-.5.1-.5.5l-.2 12.3c0 .5.2 1 .4 1.1l.3.2zm7.6 4.6c.3.2.5 0 .5-.4V253l-1.8-1.1c-.3-.2-.5-.7-.5-1.2l.2-7.8c0-.5.2-.7.5-.6l2 1.2v-1.1c0-.4-.2-.8-.4-1l-1.8-1.1c-.8-.5-1.5.2-1.5 1.5l-.2 8.2c0 1.3.6 2.8 1.4 3.3l1.6 1.2zm7.7 4.7v-1.1c0-.4-.2-.8-.4-1l-2-1.2.1-3.9 1.7 1c.3.2.5 0 .5-.4v-.4c0-.4-.2-.8-.4-1l-1.7-1 .1-3.9 2.2 1.3c.3.2.5 0 .5-.4v-.4c0-.4-.2-.8-.4-1l-3.4-2-.4 13.2 3.6 2.2z" fill="#bbc0e6"/></svg>