<svg xmlns="http://www.w3.org/2000/svg" viewBox="0 0 347.9 277.1"><style>.st0{fill:#bcc1e8}.st2{fill:#fff}.st6{fill:#bbc0e6}.st7{fill:#1b2c49}.st18{fill:#ffd6d6}</style><path class="st0" d="M4.3 219.4l95.6 55.2c6.3 3.6 17.3 3.2 24.6-1l217.3-127c3.8-2.2 5.8-5 6-7.7.2-2.5-1.2-4.8-4.2-6.6L248 77.2c-6.3-3.6-17.3-3.2-24.6 1L6 205.2c-3.8 2.2-5.8 5-6 7.7-.1 2.4 1.2 4.7 4.3 6.5z"/><linearGradient id="SVGID_1_" gradientUnits="userSpaceOnUse" x1="2630.1353" y1="191.6047" x2="2574.2153" y2="191.6047" gradientTransform="matrix(-1 0 0 1 2771.894 0)"><stop offset="0" stop-color="#dcdffb"/><stop offset="1" stop-color="#f3f3fa"/></linearGradient><path d="M0 211.2v-9.1l37.4 18.2 186-108.9c7.3-4.2 18.3-4.7 24.6-1l62.4 36.1 37.4-18.2v9.2c-.2 2.7-2.2 5.5-6 7.7l-217.3 127c-3.8 2.2-8.6 3.3-13.2 3.5-4.3.1-8.4-.7-11.4-2.5L4.3 217.7c-3.1-1.7-4.4-4.1-4.3-6.5z" fill="url(#SVGID_1_)"/><path class="st2" d="M4.3 208.6l95.6 55.2c6.3 3.6 17.3 3.2 24.6-1l217.3-127c3.8-2.2 5.8-5 6-7.7.2-2.4-1.2-4.8-4.2-6.6L248 66.4c-6.3-3.6-17.3-3.2-24.6 1L6 194.3c-3.8 2.2-5.8 5-6 7.7-.1 2.5 1.2 4.8 4.3 6.6z"/><path class="st2" d="M4.3 206.4l95.6 55.2c6.3 3.6 17.3 3.2 24.6-1l217.3-127c3.8-2.2 5.8-5 6-7.7.2-2.5-1.2-4.8-4.2-6.6L248 64.2c-6.3-3.6-17.3-3.2-24.6 1L6 192.2c-3.8 2.2-5.8 5-6 7.7-.1 2.4 1.2 4.8 4.3 6.5z"/><linearGradient id="SVGID_2_" gradientUnits="userSpaceOnUse" x1="243.7731" y1="120.2427" x2="354.3327" y2="120.2427"><stop offset=".00227" stop-color="#bcc1e8" stop-opacity=".6"/><stop offset=".3969" stop-color="#bcc1e8" stop-opacity=".3"/><stop offset=".4326" stop-color="#bcc1e8" stop-opacity=".3"/><stop offset="1" stop-color="#bcc1e8" stop-opacity=".1"/></linearGradient><path d="M232.5 149.8l34.5.4c1.3 0 2.6-.3 3.7-1l41.5-25.4c4.4-2.7 4.4-9.1-.1-11.8L277 91.3c-4.9-2.9-20.2 1.1-19.5 6.8l1.2 9.5 20.5 16.1-46.7 26.1z" fill="url(#SVGID_2_)"/><linearGradient id="SVGID_3_" gradientUnits="userSpaceOnUse" x1="130.6345" y1="186.8367" x2="241.1941" y2="186.8367"><stop offset=".00227" stop-color="#bcc1e8" stop-opacity=".6"/><stop offset=".3969" stop-color="#bcc1e8" stop-opacity=".3"/><stop offset=".4326" stop-color="#bcc1e8" stop-opacity=".3"/><stop offset="1" stop-color="#bcc1e8" stop-opacity=".1"/></linearGradient><path d="M119.3 216.4l34.5.4c1.3 0 2.6-.3 3.7-1l41.5-25.4c4.4-2.7 4.4-9.1-.1-11.8l-35.1-20.7c-4.9-2.9-20.2 1.1-19.5 6.8l1.2 9.5 20.5 16.1-46.7 26.1z" fill="url(#SVGID_3_)"/><path class="st0" d="M286.3 119.5c-.1-2-1.7-4.2-4.6-5.9l-37.6-59.1c-5.6-3.2-14-3.6-18.8-.8l-26.1 67.6c-2.3 1.3-3.4 3.1-3.2 5 .1 2 1.7 4.2 4.6 5.9l23.4 15.2c5.6 3.2 14 3.6 18.8.8l40.3-23.7c2.3-1.3 3.3-3.1 3.2-5z"/><linearGradient id="SVGID_4_" gradientUnits="userSpaceOnUse" x1="1665.702" y1="86.333" x2="1620.0393" y2="86.333" gradientTransform="translate(-1402.2548)"><stop offset=".4273" stop-color="#dcdffb"/><stop offset="1" stop-color="#f3f3fa"/></linearGradient><path d="M286.3 118.2V23.8l-28.6 11.9-4.4-4.5c-5.6-3.2-14-3.6-18.8-.8l-14.9 9L196 28.7v96.4c.1 2 1.7 4.2 4.6 5.9l23.4 15.2c2.9 1.7 6.5 2.6 10.1 2.6 3.3.1 6.4-.5 8.7-1.9l40.3-23.7c2.3-1.3 3.3-3.1 3.2-5z" fill="url(#SVGID_4_)"/><path class="st2" d="M286.3 23.8c-.1-2-1.7-4.2-4.6-5.9L258.3 2.7c-5.6-3.2-14-3.6-18.8-.8l-40.3 23.7c-2.3 1.3-3.4 3.1-3.2 5 .1 2 1.7 4.2 4.6 5.9L224 51.7c5.6 3.2 14 3.6 18.8.8l40.3-23.7c2.3-1.4 3.3-3.2 3.2-5z"/><path class="st6" d="M209.8 129.4c-1.2 0-2.2-.4-2.9-.8-4-2.4-4.9-9.4-5-14.8-.1-11.4.3-22.9.7-34.1.1-3.6.6-9.2 1.1-14 .6-5 2.8-2.5 3.3 4.1.3 3.7.5 7.4.4 10-.4 11.1-.9 22.6-.7 33.8.1 6.1 1.4 10 2.6 10.7.4.2 1 .1 1.9-.3 3.6-1.9 3.7-9.9 3.7-14.7v-2.1l.1-2.6c.1-4.4.3-11.8.6-17.1.1-1.3 1.1-2.4 2.5-2.3 1.3.1 2.4 1.2 2.3 2.5-.2 5.3-.4 12.6-.6 17l-.1 2.6v2c-.1 6.2-.2 15.6-6.3 18.9-1.3.9-2.5 1.2-3.6 1.2z"/><path class="st6" d="M218.1 91c-1.3 0-2.4-1.1-2.4-2.4V84c0-.9.5-1.7 1.3-2.2l2.9-1.4c1.2-.6 2.6-.1 3.2 1.1.6 1.2.1 2.6-1.1 3.2l-1.5.8v3.1c0 1.3-1.1 2.4-2.4 2.4zm-7.8-30.7c-.7-.4-1.5-.5-2.2-.2v-1.2l1.9-1c1.2-.6 1.7-2 1.1-3.2-.6-1.2-2-1.7-3.2-1.1l-3.2 1.6c-.8.4-1.3 1.2-1.3 2.1 0 1.8-.2 7.1-.5 15.9 0 1.3 1 2.4 2.3 2.5h.1c1.3 0 2.4-1 2.4-2.3 0-.7 0-1.3.1-1.9l1.8-.8c.8-.4 1.3-1.1 1.4-2l.5-6.1c-.1-1-.5-1.8-1.2-2.3z"/><path class="st7" d="M279.3 37.4l-40.4 23.7c-.4.2-.6.6-.6 1v22.8c0 .9 1 1.5 1.8 1l40.4-23.4c.4-.2.6-.6.6-1v-23c0-1-1-1.5-1.8-1.1z"/><path class="st0" d="M170 186c-.1-2-1.7-4.2-4.6-5.9L127.8 121c-5.6-3.2-14-3.6-18.8-.8l-26 67.6c-2.3 1.3-3.4 3.1-3.2 5 .1 2 1.7 4.2 4.6 5.9l23.4 15.2c5.6 3.2 14 3.6 18.8.8l40.3-23.7c2.2-1.3 3.3-3.1 3.1-5z"/><linearGradient id="SVGID_5_" gradientUnits="userSpaceOnUse" x1="1549.428" y1="152.8338" x2="1511.7709" y2="152.8338" gradientTransform="translate(-1402.2548)"><stop offset=".4273" stop-color="#dcdffb"/><stop offset="1" stop-color="#f3f3fa"/></linearGradient><path d="M170 184.7V90.3l-28.6 11.9-4.4-4.5c-5.6-3.2-14-3.6-18.8-.8l-14.9 9-23.6-10.7v96.3c.1 2 1.7 4.2 4.6 5.9l23.4 15.2c2.9 1.7 6.5 2.6 10.1 2.6 3.3.1 6.4-.5 8.7-1.9l40.3-23.7c2.3-1.2 3.4-3 3.2-4.9z" fill="url(#SVGID_5_)"/><path class="st2" d="M170 90.3c-.1-2-1.7-4.2-4.6-5.9L142 69.2c-5.6-3.2-14-3.6-18.8-.8L83 92.1c-2.3 1.3-3.4 3.1-3.2 5 .1 2 1.7 4.2 4.6 5.9l23.4 15.2c5.6 3.2 14 3.6 18.8.8l40.3-23.7c2.2-1.4 3.3-3.2 3.1-5z"/><path class="st6" d="M93.5 195.9c-1.2 0-2.2-.4-2.9-.8-4-2.4-4.9-9.4-5-14.8-.1-11.4.3-22.9.7-34.1.1-3.6.6-9.2 1.1-14 .6-5 2.8-2.5 3.3 4.1.3 3.7.5 7.4.4 10-.4 11.1-.9 22.6-.7 33.8.1 6.1 1.4 10 2.6 10.7.4.2 1 .1 1.9-.3 3.6-1.9 3.7-9.9 3.7-14.7v-2.1l.1-2.6c.1-4.4.3-11.8.6-17.1.1-1.3 1.1-2.4 2.5-2.3 1.3.1 2.4 1.2 2.3 2.5-.2 5.3-.4 12.6-.6 17l-.1 2.6v2c-.1 6.2-.2 15.6-6.3 18.9-1.3.9-2.5 1.2-3.6 1.2z"/><path class="st6" d="M101.8 157.5c-1.3 0-2.4-1.1-2.4-2.4v-4.6c0-.9.5-1.7 1.3-2.2l2.9-1.4c1.2-.6 2.6-.1 3.2 1.1.6 1.2.1 2.6-1.1 3.2l-1.5.8v3.1c0 1.3-1.1 2.4-2.4 2.4zM94 126.8c-.7-.4-1.5-.5-2.2-.2v-1.2l1.9-1c1.2-.6 1.7-2 1.1-3.2-.6-1.2-2-1.7-3.2-1.1l-3.2 1.6c-.8.4-1.3 1.2-1.3 2.1 0 1.8-.2 7.1-.5 15.9 0 1.3 1 2.4 2.3 2.5h.1c1.3 0 2.4-1 2.4-2.3 0-.7 0-1.3.1-1.9l1.8-.8c.8-.4 1.3-1.1 1.4-2l.5-6.1c0-1-.4-1.8-1.2-2.3z"/><path class="st7" d="M163.1 103.9l-40.4 23.7c-.4.2-.6.6-.6 1v22.8c0 .9 1 1.5 1.8 1l40.4-23.4c.4-.2.6-.6.6-1v-23c-.1-1-1.1-1.5-1.8-1.1z"/><path class="st0" d="M4.3 219.4l95.6 55.2c6.3 3.6 17.3 3.2 24.6-1l217.3-127c3.8-2.2 5.8-5 6-7.7.2-2.5-1.2-4.8-4.2-6.6L248 77.2c-6.3-3.6-17.3-3.2-24.6 1L6 205.2c-3.8 2.2-5.8 5-6 7.7-.1 2.4 1.2 4.7 4.3 6.5z"/><linearGradient id="SVGID_6_" gradientUnits="userSpaceOnUse" x1="2630.1353" y1="191.6047" x2="2574.2153" y2="191.6047" gradientTransform="matrix(-1 0 0 1 2771.894 0)"><stop offset="0" stop-color="#dcdffb"/><stop offset="1" stop-color="#f3f3fa"/></linearGradient><path d="M0 211.2v-9.1l37.4 18.2 186-108.9c7.3-4.2 18.3-4.7 24.6-1l62.4 36.1 37.4-18.2v9.2c-.2 2.7-2.2 5.5-6 7.7l-217.3 127c-3.8 2.2-8.6 3.3-13.2 3.5-4.3.1-8.4-.7-11.4-2.5L4.3 217.7c-3.1-1.7-4.4-4.1-4.3-6.5z" fill="url(#SVGID_6_)"/><path class="st2" d="M4.3 208.6l95.6 55.2c6.3 3.6 17.3 3.2 24.6-1l217.3-127c3.8-2.2 5.8-5 6-7.7.2-2.4-1.2-4.8-4.2-6.6L248 66.4c-6.3-3.6-17.3-3.2-24.6 1L6 194.3c-3.8 2.2-5.8 5-6 7.7-.1 2.5 1.2 4.8 4.3 6.6z"/><path class="st2" d="M4.3 206.4l95.6 55.2c6.3 3.6 17.3 3.2 24.6-1l217.3-127c3.8-2.2 5.8-5 6-7.7.2-2.5-1.2-4.8-4.2-6.6L248 64.2c-6.3-3.6-17.3-3.2-24.6 1L6 192.2c-3.8 2.2-5.8 5-6 7.7-.1 2.4 1.2 4.8 4.3 6.5z"/><linearGradient id="SVGID_7_" gradientUnits="userSpaceOnUse" x1="243.7731" y1="120.2427" x2="354.3327" y2="120.2427"><stop offset=".00227" stop-color="#bcc1e8" stop-opacity=".6"/><stop offset=".3969" stop-color="#bcc1e8" stop-opacity=".3"/><stop offset=".4326" stop-color="#bcc1e8" stop-opacity=".3"/><stop offset="1" stop-color="#bcc1e8" stop-opacity=".1"/></linearGradient><path d="M232.5 149.8l34.5.4c1.3 0 2.6-.3 3.7-1l41.5-25.4c4.4-2.7 4.4-9.1-.1-11.8L277 91.3c-4.9-2.9-20.2 1.1-19.5 6.8l1.2 9.5 20.5 16.1-46.7 26.1z" fill="url(#SVGID_7_)"/><linearGradient id="SVGID_8_" gradientUnits="userSpaceOnUse" x1="130.6345" y1="186.8367" x2="241.1941" y2="186.8367"><stop offset=".00227" stop-color="#bcc1e8" stop-opacity=".6"/><stop offset=".3969" stop-color="#bcc1e8" stop-opacity=".3"/><stop offset=".4326" stop-color="#bcc1e8" stop-opacity=".3"/><stop offset="1" stop-color="#bcc1e8" stop-opacity=".1"/></linearGradient><path d="M119.3 216.4l34.5.4c1.3 0 2.6-.3 3.7-1l41.5-25.4c4.4-2.7 4.4-9.1-.1-11.8l-35.1-20.7c-4.9-2.9-20.2 1.1-19.5 6.8l1.2 9.5 20.5 16.1-46.7 26.1z" fill="url(#SVGID_8_)"/><path class="st0" d="M286.3 119.5c-.1-2-1.7-4.2-4.6-5.9l-37.6-59.1c-5.6-3.2-14-3.6-18.8-.8l-26.1 67.6c-2.3 1.3-3.4 3.1-3.2 5 .1 2 1.7 4.2 4.6 5.9l23.4 15.2c5.6 3.2 14 3.6 18.8.8l40.3-23.7c2.3-1.3 3.3-3.1 3.2-5z"/><linearGradient id="SVGID_9_" gradientUnits="userSpaceOnUse" x1="1665.702" y1="86.333" x2="1620.0393" y2="86.333" gradientTransform="translate(-1402.2548)"><stop offset=".4273" stop-color="#dcdffb"/><stop offset="1" stop-color="#f3f3fa"/></linearGradient><path d="M286.3 118.2V23.8l-28.6 11.9-4.4-4.5c-5.6-3.2-14-3.6-18.8-.8l-14.9 9L196 28.7v96.4c.1 2 1.7 4.2 4.6 5.9l23.4 15.2c2.9 1.7 6.5 2.6 10.1 2.6 3.3.1 6.4-.5 8.7-1.9l40.3-23.7c2.3-1.3 3.3-3.1 3.2-5z" fill="url(#SVGID_9_)"/><path class="st2" d="M286.3 23.8c-.1-2-1.7-4.2-4.6-5.9L258.3 2.7c-5.6-3.2-14-3.6-18.8-.8l-40.3 23.7c-2.3 1.3-3.4 3.1-3.2 5 .1 2 1.7 4.2 4.6 5.9L224 51.7c5.6 3.2 14 3.6 18.8.8l40.3-23.7c2.3-1.4 3.3-3.2 3.2-5z"/><path class="st6" d="M209.8 129.4c-1.2 0-2.2-.4-2.9-.8-4-2.4-4.9-9.4-5-14.8-.1-11.4.3-22.9.7-34.1.1-3.6.6-9.2 1.1-14 .6-5 2.8-2.5 3.3 4.1.3 3.7.5 7.4.4 10-.4 11.1-.9 22.6-.7 33.8.1 6.1 1.4 10 2.6 10.7.4.2 1 .1 1.9-.3 3.6-1.9 3.7-9.9 3.7-14.7v-2.1l.1-2.6c.1-4.4.3-11.8.6-17.1.1-1.3 1.1-2.4 2.5-2.3 1.3.1 2.4 1.2 2.3 2.5-.2 5.3-.4 12.6-.6 17l-.1 2.6v2c-.1 6.2-.2 15.6-6.3 18.9-1.3.9-2.5 1.2-3.6 1.2z"/><path class="st6" d="M218.1 91c-1.3 0-2.4-1.1-2.4-2.4V84c0-.9.5-1.7 1.3-2.2l2.9-1.4c1.2-.6 2.6-.1 3.2 1.1.6 1.2.1 2.6-1.1 3.2l-1.5.8v3.1c0 1.3-1.1 2.4-2.4 2.4zm-7.8-30.7c-.7-.4-1.5-.5-2.2-.2v-1.2l1.9-1c1.2-.6 1.7-2 1.1-3.2-.6-1.2-2-1.7-3.2-1.1l-3.2 1.6c-.8.4-1.3 1.2-1.3 2.1 0 1.8-.2 7.1-.5 15.9 0 1.3 1 2.4 2.3 2.5h.1c1.3 0 2.4-1 2.4-2.3 0-.7 0-1.3.1-1.9l1.8-.8c.8-.4 1.3-1.1 1.4-2l.5-6.1c-.1-1-.5-1.8-1.2-2.3z"/><path class="st7" d="M279.3 37.4l-40.4 23.7c-.4.2-.6.6-.6 1v22.8c0 .9 1 1.5 1.8 1l40.4-23.4c.4-.2.6-.6.6-1v-23c0-1-1-1.5-1.8-1.1z"/><path class="st0" d="M170 186c-.1-2-1.7-4.2-4.6-5.9L127.8 121c-5.6-3.2-14-3.6-18.8-.8l-26 67.6c-2.3 1.3-3.4 3.1-3.2 5 .1 2 1.7 4.2 4.6 5.9l23.4 15.2c5.6 3.2 14 3.6 18.8.8l40.3-23.7c2.2-1.3 3.3-3.1 3.1-5z"/><linearGradient id="SVGID_10_" gradientUnits="userSpaceOnUse" x1="1549.428" y1="152.8338" x2="1511.7709" y2="152.8338" gradientTransform="translate(-1402.2548)"><stop offset=".4273" stop-color="#dcdffb"/><stop offset="1" stop-color="#f3f3fa"/></linearGradient><path d="M170 184.7V90.3l-28.6 11.9-4.4-4.5c-5.6-3.2-14-3.6-18.8-.8l-14.9 9-23.6-10.7v96.3c.1 2 1.7 4.2 4.6 5.9l23.4 15.2c2.9 1.7 6.5 2.6 10.1 2.6 3.3.1 6.4-.5 8.7-1.9l40.3-23.7c2.3-1.2 3.4-3 3.2-4.9z" fill="url(#SVGID_10_)"/><path class="st2" d="M170 90.3c-.1-2-1.7-4.2-4.6-5.9L142 69.2c-5.6-3.2-14-3.6-18.8-.8L83 92.1c-2.3 1.3-3.4 3.1-3.2 5 .1 2 1.7 4.2 4.6 5.9l23.4 15.2c5.6 3.2 14 3.6 18.8.8l40.3-23.7c2.2-1.4 3.3-3.2 3.1-5z"/><path class="st6" d="M93.5 195.9c-1.2 0-2.2-.4-2.9-.8-4-2.4-4.9-9.4-5-14.8-.1-11.4.3-22.9.7-34.1.1-3.6.6-9.2 1.1-14 .6-5 2.8-2.5 3.3 4.1.3 3.7.5 7.4.4 10-.4 11.1-.9 22.6-.7 33.8.1 6.1 1.4 10 2.6 10.7.4.2 1 .1 1.9-.3 3.6-1.9 3.7-9.9 3.7-14.7v-2.1l.1-2.6c.1-4.4.3-11.8.6-17.1.1-1.3 1.1-2.4 2.5-2.3 1.3.1 2.4 1.2 2.3 2.5-.2 5.3-.4 12.6-.6 17l-.1 2.6v2c-.1 6.2-.2 15.6-6.3 18.9-1.3.9-2.5 1.2-3.6 1.2z"/><path class="st6" d="M101.8 157.5c-1.3 0-2.4-1.1-2.4-2.4v-4.6c0-.9.5-1.7 1.3-2.2l2.9-1.4c1.2-.6 2.6-.1 3.2 1.1.6 1.2.1 2.6-1.1 3.2l-1.5.8v3.1c0 1.3-1.1 2.4-2.4 2.4zM94 126.8c-.7-.4-1.5-.5-2.2-.2v-1.2l1.9-1c1.2-.6 1.7-2 1.1-3.2-.6-1.2-2-1.7-3.2-1.1l-3.2 1.6c-.8.4-1.3 1.2-1.3 2.1 0 1.8-.2 7.1-.5 15.9 0 1.3 1 2.4 2.3 2.5h.1c1.3 0 2.4-1 2.4-2.3 0-.7 0-1.3.1-1.9l1.8-.8c.8-.4 1.3-1.1 1.4-2l.5-6.1c0-1-.4-1.8-1.2-2.3z"/><path class="st7" d="M163.1 103.9l-40.4 23.7c-.4.2-.6.6-.6 1v22.8c0 .9 1 1.5 1.8 1l40.4-23.4c.4-.2.6-.6.6-1v-23c-.1-1-1.1-1.5-1.8-1.1z"/><g><defs><filter id="Adobe_OpacityMaskFilter" filterUnits="userSpaceOnUse" x="149.7" y="216.1" width="55" height="26.8"><feFlood result="back" flood-color="#fff" flood-opacity="1"/><feBlend in="SourceGraphic" in2="back"/></filter></defs><mask maskUnits="userSpaceOnUse" x="149.7" y="216.1" width="55" height="26.8" id="SVGID_11_"><g filter="url(#Adobe_OpacityMaskFilter)"><defs><filter id="Adobe_OpacityMaskFilter_1_" filterUnits="userSpaceOnUse" x="149.7" y="216.1" width="100.3" height="17.2"><feFlood result="back" flood-color="#fff" flood-opacity="1"/><feBlend in="SourceGraphic" in2="back"/></filter></defs><linearGradient id="SVGID_12_" gradientUnits="userSpaceOnUse" x1="-454.9965" y1="466.0971" x2="-354.7318" y2="466.0971" gradientTransform="matrix(1 0 0 -1 604.7079 690.8018)"><stop offset="0" stop-color="#fff"/><stop offset="1"/></linearGradient><path d="M166.2 233.3c-9.1 0-16.5-3.8-16.5-8.6s7.4-8.6 16.5-8.6H250v17.2h-83.8z" mask="url(#SVGID_11_)" fill="url(#SVGID_12_)"/></g></mask><linearGradient id="SVGID_13_" gradientUnits="userSpaceOnUse" x1="-416.9975" y1="484.2014" x2="-435.7657" y2="451.6938" gradientTransform="matrix(1 0 0 -1 604.7079 690.8018)"><stop offset=".00227" stop-color="#bcc1e8" stop-opacity=".6"/><stop offset=".3969" stop-color="#bcc1e8" stop-opacity=".3"/><stop offset=".4326" stop-color="#bcc1e8" stop-opacity=".3"/><stop offset="1" stop-color="#bcc1e8" stop-opacity=".1"/></linearGradient><path d="M166.2 233.3c-9.1 0-16.5-3.8-16.5-8.6s7.4-8.6 16.5-8.6h38l.5 10-29.1 16.8-.4-9.6h-9z" fill="url(#SVGID_13_)"/></g><g><path class="st18" d="M156.1 129.6c-3.7-.6-5.8-.9-6.7-2.4-.7-1.1 1.2-.1 1.8-.2.4-.1 0-1.7-1.2-2.3-1.3-.6-2.5-1.5-1.7-1.8.8-.4 2.4-.2 3.3.4.9.6 2.1 1.2 2.4 2.5.4 1.3 2 1.3 2 1.3l.1 2.5zm-13.6 19.5c-3.4 1.1-2 1.9-5.4 1.1-3.3-.8-3.3-.8-4-1.6-1-1.1-1-2.6 1.3-2.3 2.3.3 3.4.7 3.5.4.2-.3-.6-1.3.1-1.4.6-.1.7.5 1.2 1.1.5.6 3-.5 3-.5l.3 3.2z"/><linearGradient id="SVGID_14_" gradientUnits="userSpaceOnUse" x1="5740.0073" y1="89.2554" x2="5740.2134" y2="90.9043" gradientTransform="scale(-1 1) rotate(3.25 -27.06881 -103780.69936)"><stop offset="0" stop-color="#010080"/><stop offset="1" stop-color="#d814ff"/></linearGradient><path d="M166.3 227c0 1.5.4 2.2 0 2.9-.4.7-2.2 1.3-3.2.9-1.2-.5-1.9-.8-2.2-1.4-.3-.6-.8-.5-1.7-.7-.9-.2-4.7-2.8-5.1-3.6-.7-1.5 1.8-2.3 4.5-1.4 2.8.9 6.9 2.9 6.9 2.9l.8.4z" fill="url(#SVGID_14_)"/><linearGradient id="SVGID_15_" gradientUnits="userSpaceOnUse" x1="5717.6167" y1="82.8489" x2="5717.7847" y2="84.1923" gradientTransform="scale(-1 1) rotate(3.25 -27.06881 -103780.69936)"><stop offset="0" stop-color="#010080"/><stop offset="1" stop-color="#d814ff"/></linearGradient><path d="M187.3 222.7c.1 2.5.2 2.9-.6 3.8-.8.8-3.4-.2-3.6-.8-.2-.6-.6 0-1.5-.6-.9-.5-4.8-2.3-5.1-3.4-.3-1.1 1.3-1.6 3.2-1.1 1.7.5 4.4.6 4.4.6l3.2 1.5z" fill="url(#SVGID_15_)"/><linearGradient id="SVGID_16_" gradientUnits="userSpaceOnUse" x1="124.0006" y1="178.1155" x2="162.065" y2="265.2874" gradientTransform="translate(59.5925)"><stop offset="0" stop-color="#010486"/><stop offset="1" stop-color="#5468f9"/></linearGradient><path d="M191.6 149.2c-1.1 20.7-2.8 30.4-2.5 37.6.2 7.2-.6 29-1.1 34.3-.5 5.3-5.8 2.7-5.9.3-.1-2.4-4.2-30.1-4.8-36.5-.5-6.4-2.1-36.3-2.1-36.3l16.4.6z" fill="url(#SVGID_16_)"/><linearGradient id="SVGID_17_" gradientUnits="userSpaceOnUse" x1="105.4178" y1="167.2323" x2="136.1983" y2="275.7864" gradientTransform="translate(59.5925)"><stop offset="0" stop-color="#010486"/><stop offset="1" stop-color="#5468f9"/></linearGradient><path d="M184.2 164.2c-10 23.3-12.1 22.1-14.6 32.2-2.5 10.1-2.3 25-2.5 29.2-.2 4.2-5.4 3.8-5.9.3-.5-3.4-2.9-31.3-2.2-38 .7-6.6 12.2-39.1 12.2-39.1l10.5 5.3 2.5 10.1z" fill="url(#SVGID_17_)"/><path class="st18" d="M179.2 109.2c-1.1-1.6-1.7-4-1.2-5.3.4-1.3 1.6-8.1-3.6-9.7-5.3-1.6-9.1 3-7.9 8.1 1.2 5 1.8 7.8 3.2 8 1.4.1 1.8-.2 2.2.8.4 1.1 6.1-.3 6.1-.3l1.3-.5-.1-1.1z"/><linearGradient id="SVGID_18_" gradientUnits="userSpaceOnUse" x1="122.4473" y1="144.8306" x2="109.1326" y2="120.2376" gradientTransform="translate(59.5925)"><stop offset="0" stop-color="#ff5b71"/><stop offset="1" stop-color="#ffad6d"/></linearGradient><path d="M155.7 126.1c19-4.4 25.2-16.3 25.2-16.3l5.7 8s-9.7 13.3-29.5 12.6c-4.4-.1-2.9-4-1.4-4.3z" fill="url(#SVGID_18_)"/><linearGradient id="SVGID_19_" gradientUnits="userSpaceOnUse" x1="133.2573" y1="171.3464" x2="100.8322" y2="108.1407" gradientTransform="translate(59.5925)"><stop offset="0" stop-color="#ff5b71"/><stop offset="1" stop-color="#ffad6d"/></linearGradient><path d="M180.4 109.4c-10.9 7.1-11.7 6.5-14.4 16.2-2 7.3 4 25.6 0 35.5-1.4 3.5 1.3 5.2 4.3 4.4 3.9-1 2.5 3.3 8.9 5.3 6.2 2 11.6-4.1 13.3-10.4.8-3.3.1-29.4-.3-31.2-2.7-11.5-8.2-22.1-11.8-19.8z" fill="url(#SVGID_19_)"/><path d="M179.2 109.2s1.6 1.2 2.2 2.1c.2.4-5.5 2.9-9.3 3.6l-.2-3.8s7.6-.7 7.3-1.9zm-11.3-17.3c-5.3.7-4.3 6.3-2.8 8.5s1.5 1.5 3.4 2.5c0 0 .4-.2 1.1 3 0 0 .7.1 1 .2s-.4-.9.1-1.4c.5-.5 2.1.5 1.6 2s-.6 1.1-.6 1.1 1.4 1.4 2.1 1.1c.7-.3 4.3-.7 4.4-2 .1-1.3 1.5-3.2 1-6.7s-3-6.6-6.4-7c-3.5-.4-3.7-1.5-4.9-1.3z" fill="#000b73"/><linearGradient id="SVGID_20_" gradientUnits="userSpaceOnUse" x1="106.0201" y1="150.0646" x2="92.0397" y2="126.3331" gradientTransform="translate(59.5925)"><stop offset="0" stop-color="#ff5b71"/><stop offset="1" stop-color="#ffad6d"/></linearGradient><path d="M140.8 146.2c19.1-10.1 20-10.4 25.5-22.2 6-12.8 8.2 1.7 7.9 4.3-1.7 16.4-10.7 17.1-30 21.5-4.4 1-4.8-2.9-3.4-3.6z" fill="url(#SVGID_20_)"/></g></svg>