<svg xmlns="http://www.w3.org/2000/svg" xmlns:xlink="http://www.w3.org/1999/xlink" viewBox="0 0 373.86 302.98"><defs><linearGradient id="a" x1="-1130.41" y1="-4516.23" x2="-1168.08" y2="-4516.23" gradientTransform="translate(-935.44 -4415.24) rotate(180)" gradientUnits="userSpaceOnUse"><stop offset="0.38" stop-color="#dcdffb"/><stop offset="0.84" stop-color="#f3f3fa"/></linearGradient><linearGradient id="c" x1="-1032.42" y1="-4573.52" x2="-1070.09" y2="-4573.52" xlink:href="#a"/><linearGradient id="d" x1="132.99" y1="203.29" x2="153.84" y2="203.29" gradientUnits="userSpaceOnUse"><stop offset="0.02" stop-color="#e9ebfb"/><stop offset="0.23" stop-color="#eef0fc"/><stop offset="1" stop-color="#fff"/></linearGradient><linearGradient id="e" x1="13.18" y1="220.62" x2="87.75" y2="220.62" gradientUnits="userSpaceOnUse"><stop offset="0" stop-color="#dcdffb"/><stop offset="1" stop-color="#f3f3fa"/></linearGradient><linearGradient id="f" x1="28.33" y1="181.81" x2="14.19" y2="181.81" gradientUnits="userSpaceOnUse"><stop offset="0" stop-color="#f2f2fa"/><stop offset="1" stop-color="#f4f5fd" stop-opacity="0.3"/></linearGradient><linearGradient id="g" x1="44.57" y1="206.83" x2="14.92" y2="206.83" xlink:href="#f"/><linearGradient id="h" x1="-1032.42" y1="-4573.52" x2="-1070.09" y2="-4573.52" gradientTransform="translate(-935.44 -4415.24) rotate(180)" xlink:href="#e"/><linearGradient id="m" x1="131.02" y1="253.18" x2="145.21" y2="228.59" gradientUnits="userSpaceOnUse"><stop offset="0" stop-color="#bcc1e8"/><stop offset="0.1" stop-color="#bcc1e8" stop-opacity="0.85"/><stop offset="0.46" stop-color="#bbc0e6" stop-opacity="0.3"/><stop offset="0.62" stop-color="#bbc0e6" stop-opacity="0.09"/></linearGradient><linearGradient id="n" x1="1869.04" y1="256.42" x2="1869.14" y2="257.25" gradientTransform="matrix(1, 0.06, -0.06, 1, -1718.56, -106.3)" gradientUnits="userSpaceOnUse"><stop offset="0" stop-color="#010080"/><stop offset="1" stop-color="#d814ff"/></linearGradient><linearGradient id="o" x1="1857.81" y1="253.21" x2="1857.9" y2="253.88" xlink:href="#n"/><linearGradient id="p" x1="1902.33" y1="220.06" x2="1921.42" y2="263.78" gradientTransform="matrix(-1, 0, 0, 1, 2022.78, 0)" gradientUnits="userSpaceOnUse"><stop offset="0" stop-color="#010486"/><stop offset="1" stop-color="#5468f9"/></linearGradient><linearGradient id="q" x1="1893.01" y1="214.61" x2="1908.45" y2="269.04" xlink:href="#p"/><linearGradient id="r" x1="1901.55" y1="203.37" x2="1894.88" y2="191.04" gradientTransform="matrix(-1, 0, 0, 1, 2022.78, 0)" gradientUnits="userSpaceOnUse"><stop offset="0" stop-color="#ff5b71"/><stop offset="1" stop-color="#ffad6d"/></linearGradient><linearGradient id="s" x1="1906.98" y1="216.67" x2="1890.71" y2="184.97" xlink:href="#r"/><linearGradient id="t" x1="1893.32" y1="206" x2="1886.31" y2="194.1" xlink:href="#r"/></defs><title>lighting</title><g style="isolation:isolate"><path d="M238.79,232.84c-.18-2.87-2.36-5.86-6.45-8.22l-98.8-57c-7.83-4.51-19.65-5-26.42-1.08L4.56,225.81c-3.23,1.87-4.72,4.4-4.55,7,.19,2.88,2.37,5.87,6.46,8.22l104.08,59.26c7.82,4.51,14.37,2.73,21.14-1.18l102.55-59.27C237.48,238,239,235.47,238.79,232.84Z" style="fill:#3230e3"/><path d="M124.93,299.55l39.15,1.09a4.06,4.06,0,0,0,2.15-.58l108.49-65a4,4,0,0,0-.06-6.85l-51-29.3c-2.86-1.69-30.85-.22-30.43,3.08l.71,5.5,42.52,26.62Z" style="fill:#3230e3"/><path d="M222.16,241.51l39.16,1.09a4,4,0,0,0,2.14-.58L372,177a4,4,0,0,0-.06-6.85l-51-29.3c-2.86-1.69-30.86-.22-30.43,3.08l.71,5.51,42.52,26.61Z" style="fill:#3230e3"/><path d="M336.78,175.56c-.19-2.88-2.37-5.87-6.45-8.23l-98.81-57c-7.82-4.51-19.64-5-26.41-1.08L102.55,168.53c-3.23,1.87-4.72,4.4-4.55,7,.19,2.87,2.37,5.86,6.46,8.22L208.54,243c7.82,4.51,14.37,2.73,21.14-1.18l102.55-59.26C335.46,180.72,337,178.18,336.78,175.56Z" style="fill:#3230e3"/><path d="M98,68.93h0V172.72a.87.87,0,0,0,1.25.79l38.85-18.88,65.17,37.59c7.82,4.51,19.65,5,26.42,1.09l67-38.7,40.14,19.5s0-104.93,0-105.17c-.18-2.88-2.36-5.87-6.45-8.22l-98.8-57A30.46,30.46,0,0,0,217.39,0h0a24,24,0,0,0-12.28,2.63L102.56,61.91C99.33,63.77,97.84,66.3,98,68.93Z" style="fill:#fff"/><path d="M99.51,71.94h0V177.13l38.59-19.48,65.17,37.59c7.82,4.51,19.65,5,26.42,1.08l67-38.7,37.13,18.76s0-104.94,0-105.18c-.19-2.88-2.37-5.87-6.45-8.22L231.53,6.74A30.58,30.58,0,0,0,217.39,3h0c-4.59-.11-9,.75-12.28,2.64L104.06,64.92C100.83,66.79,99.34,69.32,99.51,71.94Z" style="fill:url(#a)"/><path d="M336.78,173.3c-.19-2.88-2.37-5.87-6.45-8.23l-98.81-57c-7.82-4.51-19.64-5-26.41-1.08L102.55,166.27c-3.23,1.86-4.72,4.4-4.55,7,.19,2.87,2.37,5.86,6.46,8.22l104.08,59.25c7.82,4.51,14.37,2.73,21.14-1.18l102.55-59.27C335.46,178.46,337,175.92,336.78,173.3Z" style="fill:#fff"/><polyline points="98.02 68.33 98.02 173.11 211.05 238.69" style="fill:#fff"/><path d="M174.53,219.81,214.68,242s0-101.16,0-101.41c-.19-2.87-2.37-5.86-6.46-8.22l-105.72-61s-2.89-3.18.07-5.36-3-.84-3-.84l-.78,4.69V76.6l7.53,99.49" style="fill:#fff"/><path d="M98,72.1V172.66a8.54,8.54,0,0,0,4.33,7.43l108.7,61.61V142.92a8.63,8.63,0,0,0-4.3-7.47Z" style="fill:#f2f2fa"/><g style="mix-blend-mode:multiply"><path d="M336.78,175.56c-.19-2.88-2.37-5.87-6.45-8.23l-98.81-57c-7.82-4.51-19.64-5-26.41-1.08L102.55,168.53c-3.23,1.87-4.72,4.4-4.55,7,.19,2.87,2.37,5.86,6.46,8.22L208.54,243c7.82,4.51,14.37,2.73,21.14-1.18l102.55-59.26C335.46,180.72,337,178.18,336.78,175.56Z" style="fill:#3230e3"/><path d="M98,68.93h0V172.72a.87.87,0,0,0,1.25.79l38.85-18.88,65.17,37.59c7.82,4.51,19.65,5,26.42,1.09l67-38.7,40.14,19.5s0-104.93,0-105.17c-.18-2.88-2.36-5.87-6.45-8.22l-98.8-57A30.46,30.46,0,0,0,217.39,0h0a24,24,0,0,0-12.28,2.63L102.56,61.91C99.33,63.77,97.84,66.3,98,68.93Z" style="fill:#fff"/><path d="M99.51,71.94h0V177.13l38.59-19.48,65.17,37.59c7.82,4.51,19.65,5,26.42,1.08l67-38.7,37.13,18.76s0-104.94,0-105.18c-.19-2.88-2.37-5.87-6.45-8.22L231.53,6.74A30.58,30.58,0,0,0,217.39,3h0c-4.59-.11-9,.75-12.28,2.64L104.06,64.92C100.83,66.79,99.34,69.32,99.51,71.94Z" style="fill:url(#a)"/><path d="M336.78,173.3c-.19-2.88-2.37-5.87-6.45-8.23l-98.81-57c-7.82-4.51-19.64-5-26.41-1.08L102.55,166.27c-3.23,1.86-4.72,4.4-4.55,7,.19,2.87,2.37,5.86,6.46,8.22l104.08,59.25c7.82,4.51,14.37,2.73,21.14-1.18l102.55-59.27C335.46,178.46,337,175.92,336.78,173.3Z" style="fill:#fff"/><polyline points="98.02 68.33 98.02 173.11 211.05 238.69" style="fill:#fff"/><path d="M174.53,219.81,214.68,242s0-101.16,0-101.41c-.19-2.87-2.37-5.86-6.46-8.22l-105.72-61s-2.89-3.18.07-5.36-3-.84-3-.84l-.78,4.69V76.6l7.53,99.49" style="fill:#fff"/><path d="M98,72.1V172.66a8.54,8.54,0,0,0,4.33,7.43l108.7,61.61V142.92a8.63,8.63,0,0,0-4.3-7.47Z" style="fill:#f2f2fa"/></g><path d="M0,126.22H0V230a.87.87,0,0,0,1.25.78L40.1,211.92l65.17,37.59c7.82,4.51,19.65,5,26.42,1.08l67-38.69,40.15,19.5s0-104.93,0-105.18c-.19-2.87-2.37-5.86-6.46-8.22l-98.8-57A30.45,30.45,0,0,0,119.4,57.3h0a23.79,23.79,0,0,0-12.28,2.63L4.57,119.19C1.34,121.06-.15,123.59,0,126.22Z" style="fill:#fff"/><path d="M1.52,129.23h0V234.41L40.1,214.93l65.17,37.59c7.82,4.52,19.65,5,26.42,1.09l67-38.7,37.13,18.75s0-104.93,0-105.18c-.19-2.87-2.37-5.86-6.45-8.22L133.54,64a30.46,30.46,0,0,0-14.14-3.72h0a24,24,0,0,0-12.28,2.63L6.07,122.21C2.84,124.07,1.35,126.6,1.52,129.23Z" style="fill:url(#c)"/><path d="M238.79,230.58c-.18-2.87-2.36-5.86-6.45-8.22l-98.8-57c-7.83-4.51-19.65-5-26.42-1.08L4.56,223.55c-3.23,1.87-4.72,4.4-4.55,7,.19,2.88,2.37,5.87,6.46,8.22l104.08,59.25c7.82,4.51,14.37,2.74,21.14-1.17l102.55-59.27C237.48,235.74,239,233.21,238.79,230.58Z" style="fill:#fff"/><polygon points="99.95 241.72 99.95 240.94 118.28 231.36 149.48 248.72 149.48 249.49 131.16 260.12 99.95 241.72" style="fill:#bcc1e8;mix-blend-mode:multiply"/><polygon points="99.95 240.94 118.28 230.58 149.48 248.72 131.16 259.34 99.95 240.94" style="fill:#e0e4fa"/><polygon points="166.55 256.04 100.34 216.13 100.34 185.85 166.55 226.03 166.55 256.04" style="fill:#bcc1e8;mix-blend-mode:multiply"/><polygon points="184.87 215.28 184.87 245.42 166.55 256.04 166.55 226.03 184.87 215.28" style="fill:#bcc1e8;mix-blend-mode:multiply"/><polygon points="166.55 255.51 100.34 215.6 100.34 185.32 166.55 225.5 166.55 255.51" style="fill:#ebecfb"/><polygon points="184.87 214.75 184.87 244.89 166.55 255.51 166.55 225.5 184.87 214.75" style="fill:#e0e4fa"/><polygon points="100.34 185.32 118.67 174.97 184.87 214.88 166.55 225.5 100.34 185.32" style="fill:#ebecfb"/><polyline points="184.87 214.88 166.55 225.5 100.34 185.32" style="fill:none;stroke:#fff;stroke-miterlimit:10"/><polygon points="141.69 198.64 132.99 201.06 132.92 202.07 144.99 208.95 153.78 205.73 153.84 204.76 141.69 198.64" style="fill:#e0e4fa"/><polygon points="153.84 204.76 141.69 198.64 132.99 201.06 145.05 207.94 153.84 204.76" style="fill:url(#d)"/><polygon points="145.07 207.93 145 208.94 153.78 205.73 153.84 204.76 145.07 207.93" style="fill:#ccd1f1"/><polygon points="144.77 189.33 141.72 198.86 153.64 204.71 156.69 195.23 144.77 189.33" style="fill:#bbc0e6"/><polygon points="155.75 195.9 145.1 190.61 142.64 198.24 153.23 203.55 153.29 203.53 155.75 195.9" style="fill:#fff"/><path d="M185.3,243.15l.12,0-.12-.13Z" style="fill:#0098ff"/><path d="M185,248.05a.06.06,0,0,0,0,.07A.1.1,0,0,0,185,248.05Z" style="fill:#ffd075"/><polyline points="0.03 125.61 0.03 230.4 113.06 295.98" style="fill:#fff"/><path d="M76.55,277.1l40.14,22.14s0-101.17,0-101.41c-.19-2.88-2.37-5.87-6.46-8.22l-105.71-61s-2.9-3.18.06-5.36-3-.84-3-.84L.75,127.1v6.78l7.53,99.5" style="fill:#fff"/><path d="M0,129.38V229.94a8.52,8.52,0,0,0,4.33,7.43L113.06,299V200.2a8.65,8.65,0,0,0-4.3-7.47Z" style="fill:#f2f2fa"/><path d="M16.29,158.55,86.73,199.9a2.05,2.05,0,0,1,1,1.77v79.25a2.06,2.06,0,0,1-3.1,1.78L14.21,243.38a2.06,2.06,0,0,1-1-1.79V160.32A2.06,2.06,0,0,1,16.29,158.55Z" style="fill:url(#e)"/><path d="M18,161.15,88.46,202.5a2.06,2.06,0,0,1,1,1.78V282a2.06,2.06,0,0,1-3.09,1.78L15.94,243.72a2.07,2.07,0,0,1-1-1.78v-79A2.06,2.06,0,0,1,18,161.15Z" style="fill:#fff"/><polygon points="14.19 189.15 14.19 198.41 28.33 167.22 25.04 165.21 14.19 189.15" style="fill:url(#f)"/><polygon points="36.31 171.72 14.92 218.94 14.92 241.94 44.57 176.49 36.31 171.72" style="fill:url(#g)"/><line x1="49.78" y1="179.98" x2="49.78" y2="263.68" style="fill:none;stroke:#bcc1e8;stroke-miterlimit:10;opacity:0.4;mix-blend-mode:multiply"/><line x1="54.55" y1="219.44" x2="54.55" y2="236.8" style="fill:none;stroke:#bcc1e8;stroke-linecap:round;stroke-miterlimit:10;stroke-width:2px"/><line x1="44.57" y1="214.67" x2="44.57" y2="232.03" style="fill:none;stroke:#bcc1e8;stroke-linecap:round;stroke-miterlimit:10;stroke-width:2px"/><g style="mix-blend-mode:multiply"><path d="M0,126.22H0V230a.87.87,0,0,0,1.25.78L40.1,211.92l65.17,37.59c7.82,4.51,19.65,5,26.42,1.08l67-38.69,40.15,19.5s0-104.93,0-105.18c-.19-2.87-2.37-5.86-6.46-8.22l-98.8-57A30.45,30.45,0,0,0,119.4,57.3h0a23.79,23.79,0,0,0-12.28,2.63L4.57,119.19C1.34,121.06-.15,123.59,0,126.22Z" style="fill:#edf0f4"/><path d="M1.52,129.23h0V234.41L40.1,214.93l65.17,37.59c7.82,4.52,19.65,5,26.42,1.09l67-38.7,37.13,18.75s0-104.93,0-105.18c-.19-2.87-2.37-5.86-6.45-8.22L133.54,64a30.46,30.46,0,0,0-14.14-3.72h0a24,24,0,0,0-12.28,2.63L6.07,122.21C2.84,124.07,1.35,126.6,1.52,129.23Z" style="fill:url(#h)"/><path d="M238.79,230.58c-.18-2.87-2.36-5.86-6.45-8.22l-98.8-57c-7.83-4.51-19.65-5-26.42-1.08L4.56,223.55c-3.23,1.87-4.72,4.4-4.55,7,.19,2.88,2.37,5.87,6.46,8.22l104.08,59.25c7.82,4.51,14.37,2.74,21.14-1.17l102.55-59.27C237.48,235.74,239,233.21,238.79,230.58Z" style="fill:#fff"/><polygon points="99.95 241.72 99.95 240.94 118.28 231.36 149.48 248.72 149.48 249.49 131.16 260.12 99.95 241.72" style="fill:#bcc1e8;mix-blend-mode:multiply"/><polygon points="99.95 240.94 118.28 230.58 149.48 248.72 131.16 259.34 99.95 240.94" style="fill:#e0e4fa"/><polygon points="166.55 256.04 100.34 216.13 100.34 185.85 166.55 226.03 166.55 256.04" style="fill:#bcc1e8;mix-blend-mode:multiply"/><polygon points="184.87 215.28 184.87 245.42 166.55 256.04 166.55 226.03 184.87 215.28" style="fill:#bcc1e8;mix-blend-mode:multiply"/><polygon points="166.55 255.51 100.34 215.6 100.34 185.32 166.55 225.5 166.55 255.51" style="fill:#ebecfb"/><polygon points="184.87 214.75 184.87 244.89 166.55 255.51 166.55 225.5 184.87 214.75" style="fill:#e0e4fa"/><polygon points="100.34 185.32 118.67 174.97 184.87 214.88 166.55 225.5 100.34 185.32" style="fill:#ebecfb"/><polyline points="184.87 214.88 166.55 225.5 100.34 185.32" style="fill:none;stroke:#fff;stroke-miterlimit:10"/><polygon points="141.69 198.64 132.99 201.06 132.92 202.07 144.99 208.95 153.78 205.73 153.84 204.76 141.69 198.64" style="fill:#e0e4fa"/><polygon points="153.84 204.76 141.69 198.64 132.99 201.06 145.05 207.94 153.84 204.76" style="fill:url(#d)"/><polygon points="145.07 207.93 145 208.94 153.78 205.73 153.84 204.76 145.07 207.93" style="fill:#ccd1f1"/><polygon points="144.77 189.33 141.72 198.86 153.64 204.71 156.69 195.23 144.77 189.33" style="fill:#bbc0e6"/><polygon points="155.75 195.9 145.1 190.61 142.64 198.24 153.23 203.55 153.29 203.53 155.75 195.9" style="fill:#fff"/><path d="M185.3,243.15l.12,0-.12-.13Z" style="fill:#0098ff"/><path d="M185,248.05a.06.06,0,0,0,0,.07A.1.1,0,0,0,185,248.05Z" style="fill:#ffd075"/><polyline points="0.03 125.61 0.03 230.4 113.06 295.98" style="fill:#fff"/><path d="M76.55,277.1l40.14,22.14s0-101.17,0-101.41c-.19-2.88-2.37-5.87-6.46-8.22l-105.71-61s-2.9-3.18.06-5.36-3-.84-3-.84L.75,127.1v6.78l7.53,99.5" style="fill:#fff"/><path d="M0,129.38V229.94a8.52,8.52,0,0,0,4.33,7.43L113.06,299V200.2a8.65,8.65,0,0,0-4.3-7.47Z" style="fill:#f2f2fa"/><path d="M16.29,158.55,86.73,199.9a2.05,2.05,0,0,1,1,1.77v79.25a2.06,2.06,0,0,1-3.1,1.78L14.21,243.38a2.06,2.06,0,0,1-1-1.79V160.32A2.06,2.06,0,0,1,16.29,158.55Z" style="fill:url(#e)"/><path d="M18,161.15,88.46,202.5a2.06,2.06,0,0,1,1,1.78V282a2.06,2.06,0,0,1-3.09,1.78L15.94,243.72a2.07,2.07,0,0,1-1-1.78v-79A2.06,2.06,0,0,1,18,161.15Z" style="fill:#fff"/><polygon points="14.19 189.15 14.19 198.41 28.33 167.22 25.04 165.21 14.19 189.15" style="fill:url(#f)"/><polygon points="36.31 171.72 14.92 218.94 14.92 241.94 44.57 176.49 36.31 171.72" style="fill:url(#g)"/><line x1="49.78" y1="179.98" x2="49.78" y2="263.68" style="fill:none;stroke:#bcc1e8;stroke-miterlimit:10;opacity:0.4;mix-blend-mode:multiply"/><line x1="54.55" y1="219.44" x2="54.55" y2="236.8" style="fill:none;stroke:#bcc1e8;stroke-linecap:round;stroke-miterlimit:10;stroke-width:2px"/><line x1="44.57" y1="214.67" x2="44.57" y2="232.03" style="fill:none;stroke:#bcc1e8;stroke-linecap:round;stroke-miterlimit:10;stroke-width:2px"/></g><path d="M129.13,228.13l-.15,8.74-1,3.77h-5.89c-2.22,0-4,1.49-4,3.32a3,3,0,0,0,1,2.12l.49.42a3.41,3.41,0,0,0,2.16.78h31.4l.49-9.44a7,7,0,0,0-4.87-7C141.48,228.53,129.17,225.11,129.13,228.13Z" style="mix-blend-mode:multiply;fill:url(#m)"/><path d="M134.24,195.73c1.84-.31,2.91-.42,3.37-1.17.33-.56-.61-.05-.9-.1s0-.87.62-1.17,1.28-.74.85-.92a2,2,0,0,0-1.64.2c-.43.29-1,.62-1.22,1.27s-1,.65-1,.65Z" style="fill:#ffd6d6"/><path d="M141.07,205.53c1.72.53,1,1,2.7.56s1.68-.4,2-.78c.49-.54.48-1.29-.65-1.16s-1.7.36-1.77.22.3-.68,0-.73-.36.24-.59.57-1.49-.23-1.49-.23Z" style="fill:#ffd6d6"/><path d="M129.14,244.6c0,.74-.21,1.1,0,1.48a1.57,1.57,0,0,0,1.61.45,2.06,2.06,0,0,0,1.11-.72c.16-.3.4-.27.85-.35a8,8,0,0,0,2.56-1.83c.38-.75-.88-1.14-2.26-.71a34.41,34.41,0,0,0-3.49,1.45Z" style="fill:url(#n)"/><path d="M118.6,242.42c0,1.27-.09,1.47.28,1.89s1.71-.08,1.83-.4.28,0,.75-.27,2.4-1.14,2.56-1.69-.67-.83-1.62-.57a13.43,13.43,0,0,1-2.22.3Z" style="fill:url(#o)"/><path d="M116.44,205.58c.53,10.38,1.38,15.24,1.26,18.84s.29,14.53.54,17.19,2.93,1.37,3,.17,2.12-15.12,2.38-18.31,1-18.23,1-18.23Z" style="fill:url(#p)"/><path d="M120.12,213.11c5,11.66,6.06,11.07,7.32,16.12s1.16,12.51,1.28,14.64a1.48,1.48,0,0,0,3,.16c.25-1.71,1.45-15.71,1.08-19.05s-6.12-19.62-6.12-19.62L121.36,208Z" style="fill:url(#q)"/><path d="M122.65,185.5a3.6,3.6,0,0,0,.61-2.67c-.22-.66-.81-4,1.83-4.85s4.53,1.52,3.95,4.05-.93,3.94-1.61,4-.92-.11-1.1.43-3-.18-3-.18l-.66-.26Z" style="fill:#ffd6d6"/><path d="M134.45,194c-9.55-2.2-12.66-8.17-12.66-8.17l-2.87,4a18,18,0,0,0,14.79,6.33C135.94,196.08,135.2,194.15,134.45,194Z" style="fill:url(#r)"/><path d="M122,185.63c5.48,3.55,5.88,3.24,7.21,8.1,1,3.65-2,12.84,0,17.82.7,1.75-.66,2.63-2.16,2.22-1.93-.52-1.24,1.67-4.45,2.68s-5.82-2-6.64-5.21c-.43-1.64-.06-14.74.16-15.65C117.49,189.77,120.24,184.48,122,185.63Z" style="fill:url(#s)"/><path d="M122.65,185.5a5.81,5.81,0,0,0-1.1,1.05c-.12.2,2.76,1.45,4.67,1.82l.11-1.92S122.51,186.09,122.65,185.5Z" style="fill:#000b73"/><path d="M128.33,176.81c2.67.34,2.15,3.15,1.41,4.28s-.76.73-1.72,1.27c0,0-.18-.1-.53,1.51L127,184c-.17,0,.18-.47,0-.7s-1.06.25-.8,1,.28.54.28.54-.68.69-1,.54-2.13-.37-2.18-1-.75-1.6-.52-3.34a3.92,3.92,0,0,1,3.21-3.51C127.6,177.29,127.7,176.73,128.33,176.81Z" style="fill:#000b73"/><path d="M141.92,204.05c-9.56-5-10-5.22-12.77-11.12-3-6.42-4.12.85-4,2.14.84,8.21,5.35,8.56,15.05,10.78C142.38,206.35,142.6,204.41,141.92,204.05Z" style="fill:url(#t)"/><path d="M163.27,97.49l32,20.25a2.05,2.05,0,0,1,1,1.77v79.25a2.06,2.06,0,0,1-3.1,1.78l-32-19a2.07,2.07,0,0,1-1-1.79V99.27A2.06,2.06,0,0,1,163.27,97.49Z" style="fill:#dddef5"/><path d="M165,100.1l32,20.24a2,2,0,0,1,1,1.78v80c0,1.59-1.72.32-3.09-.48l-32-19c-.64-.37-1-.29-1-1V101.87A2.06,2.06,0,0,1,165,100.1Z" style="fill:#fff"/><line x1="191.55" y1="153.62" x2="191.55" y2="170.97" style="fill:none;stroke:#bcc1e8;stroke-linecap:round;stroke-miterlimit:10;stroke-width:2px"/><path d="M119.4,60.31a24,24,0,0,0-12.28,2.63L6.07,122.21" style="fill:none;stroke:#fff;stroke-miterlimit:10"/><path d="M235.78,233.66s0-104.93,0-105.18c-.19-2.87-2.37-5.86-6.45-8.22L133.54,64a30.46,30.46,0,0,0-14.14-3.72h0" style="fill:none;stroke:#fff;stroke-miterlimit:10"/><polygon points="238.94 228.1 236.67 229.61 236.67 210.01 238.94 210.01 238.94 228.1" style="fill:#edf0f4"/></g></svg>