<svg xmlns="http://www.w3.org/2000/svg" viewBox="0 0 255.2 235.8"><style>.st1{fill:#bcc1e8}.st3{fill:#fff}.st5{fill:#e0e4fa}</style><path d="M103 234.8l52.5-1.8c.7 0 1.4-.2 2-.6l95.9-56.4c2.4-1.5 2.4-5-.1-6.5l-54.8-32.1c-2.7-1.6-32.8 6.5-32.4 9.6l.7 5.2 36.9 23.6-100.7 59z" fill="#3f33f0"/><path class="st1" d="M205 176.6c-.2-2.5-2-5-5.5-7.1l-84.8-48.9c-6.7-3.9-16.9-4.3-22.7-.9L3.9 170.6c-2.8 1.6-4.1 3.8-3.9 6 .2 2.5 2 5 5.5 7.1l84.8 48.9c6.7 3.9 16.9 4.3 22.7.9l88.1-50.9c2.8-1.5 4.1-3.7 3.9-6z"/><linearGradient id="SVGID_1_" gradientUnits="userSpaceOnUse" x1="121.4851" y1="137.2049" x2="88.5234" y2="137.2049"><stop offset="0" stop-color="#dcdffb"/><stop offset="1" stop-color="#f3f3fa"/></linearGradient><path d="M205 175.1V58.9l-34.4 16.7-56-32.3c-6.7-3.9-16.9-4.3-22.7-.9L34.5 75.6 0 58.9v116.2c.2 2.5 2 5 5.5 7.1l84.8 48.9c3.5 2 7.9 3.1 12.1 3.2 3.9.1 7.7-.6 10.5-2.3l88.1-50.9c2.9-1.6 4.2-3.8 4-6z" fill="url(#SVGID_1_)"/><path class="st3" d="M205 61.2c-.2-2.5-2-5-5.5-7.1L114.7 5.2C107.9 1.3 97.8.9 92 4.3L3.9 55.1c-2.8 1.6-4.1 3.8-3.9 6 .2 2.5 2 5 5.5 7.1l84.8 48.9c6.7 3.9 16.9 4.3 22.7.9l88.1-50.9c2.8-1.5 4.1-3.7 3.9-5.9z"/><linearGradient id="SVGID_2_" gradientUnits="userSpaceOnUse" y1="59.193" x2="205.0445" y2="59.193"><stop offset="0" stop-color="#f7f8ff"/><stop offset="1" stop-color="#f3f3fa"/></linearGradient><path d="M205 59.2c-.2-2.5-2-5-5.5-7.1L114.7 3.2C107.9-.7 97.8-1.1 92 2.3L3.9 53.2C1.1 54.8-.2 57 0 59.2c.2 2.5 2 5 5.5 7.1l84.8 48.9c6.7 3.9 16.9 4.3 22.7.9l88.1-50.9c2.8-1.6 4.1-3.8 3.9-6z" fill="url(#SVGID_2_)"/><path class="st5" d="M105.2 139.7c-.7 0-1.2-.5-1.3-1.2-.1-.7.5-1.4 1.2-1.4 2.9-.3 5.7-1 8-2.1.7-.3 1.4 0 1.7.6.3.7 0 1.4-.6 1.7-2.7 1.2-5.7 2-8.9 2.3 0 .1 0 .1-.1.1zm-5.2 0h-.1c-2.8-.3-5.4-1.1-7.4-2.2l-1.3-.8c-.6-.4-.8-1.2-.5-1.8.4-.6 1.2-.8 1.8-.5l1.3.8c1.7 1 3.9 1.6 6.4 1.9.7.1 1.2.7 1.2 1.5-.2.6-.7 1.1-1.4 1.1zm18.3-4.7c-.5 0-.9-.2-1.1-.7-.4-.6-.1-1.4.5-1.8l7.6-4.4c.6-.4 1.4-.1 1.8.5.4.6.1 1.4-.5 1.8l-7.6 4.4c-.2.1-.5.2-.7.2zm-31.1-.8c-.2 0-.5-.1-.7-.2l-7.6-4.4c-.6-.4-.8-1.2-.5-1.8.4-.6 1.2-.8 1.8-.5l7.6 4.4c.6.4.8 1.2.5 1.8-.2.4-.6.7-1.1.7zm43.3-6.3c-.5 0-.9-.2-1.1-.7-.4-.6-.1-1.4.5-1.8l7.6-4.4c.6-.4 1.4-.1 1.8.5.4.6.1 1.4-.5 1.8l-7.6 4.4c-.3.2-.5.2-.7.2zm-55.5-.7c-.2 0-.5-.1-.7-.2l-7.6-4.4c-.6-.4-.8-1.2-.5-1.8.4-.6 1.2-.8 1.8-.5l7.6 4.4c.6.4.8 1.2.5 1.8-.2.4-.6.7-1.1.7zm67.7-6.3c-.5 0-.9-.2-1.1-.7-.4-.6-.1-1.4.5-1.8l7.6-4.4c.6-.4 1.4-.1 1.8.5.4.6.1 1.4-.5 1.8l-7.6 4.4c-.3.2-.5.2-.7.2zm-79.8-.8c-.2 0-.5-.1-.7-.2l-7.6-4.4c-.6-.4-.8-1.2-.5-1.8.4-.6 1.2-.8 1.8-.5l7.6 4.4c.6.4.8 1.2.5 1.8-.2.5-.7.7-1.1.7zm91.9-6.2c-.5 0-.9-.2-1.1-.7-.4-.6-.1-1.4.5-1.8l7.6-4.4c.6-.4 1.4-.1 1.8.5.4.6.1 1.4-.5 1.8l-7.6 4.4c-.2.1-.4.2-.7.2zm-104.1-.8c-.2 0-.5-.1-.7-.2l-7.6-4.4c-.6-.4-.8-1.2-.5-1.8.4-.6 1.2-.8 1.8-.5l7.6 4.4c.6.4.8 1.2.5 1.8-.2.5-.6.7-1.1.7zm116.3-6.2c-.5 0-.9-.2-1.1-.7-.4-.6-.1-1.4.5-1.8l7.6-4.4c.6-.4 1.4-.1 1.8.5.4.6.1 1.4-.5 1.8l-7.6 4.4c-.2.1-.5.2-.7.2zm-128.5-.8c-.2 0-.5-.1-.7-.2l-7.6-4.4c-.6-.4-.8-1.2-.5-1.8.4-.6 1.2-.8 1.8-.5l7.6 4.4c.6.4.8 1.2.5 1.8-.2.4-.6.7-1.1.7zm140.7-6.2c-.5 0-.9-.2-1.1-.7-.4-.6-.1-1.4.5-1.8l7.6-4.4c.6-.4 1.4-.1 1.8.5.4.6.1 1.4-.5 1.8l-7.6 4.4c-.3.1-.5.2-.7.2zM26.4 99c-.2 0-.5-.1-.7-.2l-7.6-4.4c-.6-.4-.8-1.2-.5-1.8.4-.6 1.2-.8 1.8-.5l7.6 4.4c.6.4.8 1.2.5 1.8-.2.5-.7.7-1.1.7zm165-6.2c-.5 0-.9-.2-1.1-.7-.4-.6-.1-1.4.5-1.8l7.3-4.2c.6-.4 1.4-.1 1.8.5.4.6.1 1.4-.5 1.8l-7.3 4.2c-.3.2-.5.2-.7.2zM14.2 92c-.2 0-.5-.1-.7-.2l-7.6-4.4c-.6-.4-.8-1.2-.5-1.8.4-.6 1.2-.8 1.8-.5l7.6 4.4c.6.4.8 1.2.5 1.8-.2.5-.6.7-1.1.7zm91 64.2c-.7 0-1.2-.5-1.3-1.2-.1-.7.5-1.4 1.2-1.4 2.9-.3 5.7-1 8-2.1.7-.3 1.4 0 1.7.6.3.7 0 1.4-.6 1.7-2.6 1.2-5.7 2-8.9 2.3 0 .1 0 .1-.1.1zm-5.2 0h-.1c-2.8-.3-5.4-1.1-7.4-2.2l-1.3-.8c-.6-.4-.8-1.2-.5-1.8.4-.6 1.2-.8 1.8-.5l1.3.8c1.7 1 3.9 1.6 6.4 1.9.7.1 1.2.7 1.2 1.5-.2.6-.7 1.1-1.4 1.1zm18.3-4.7c-.5 0-.9-.2-1.1-.7-.4-.6-.1-1.4.5-1.8l7.6-4.4c.6-.4 1.4-.1 1.8.5.4.6.1 1.4-.5 1.8l-7.6 4.4c-.2.1-.5.2-.7.2zm-31.1-.8c-.2 0-.5-.1-.7-.2l-7.6-4.4c-.6-.4-.8-1.2-.5-1.8.4-.6 1.2-.8 1.8-.5l7.6 4.4c.6.4.8 1.2.5 1.8-.2.5-.6.7-1.1.7zm43.3-6.3c-.5 0-.9-.2-1.1-.7-.4-.6-.1-1.4.5-1.8l7.6-4.4c.6-.4 1.4-.1 1.8.5.4.6.1 1.4-.5 1.8l-7.6 4.4c-.3.2-.5.2-.7.2zm-55.5-.7c-.2 0-.5-.1-.7-.2l-7.6-4.4c-.6-.4-.8-1.2-.5-1.8.4-.6 1.2-.8 1.8-.5l7.6 4.4c.6.4.8 1.2.5 1.8-.2.4-.6.7-1.1.7zm67.7-6.3c-.5 0-.9-.2-1.1-.7-.4-.6-.1-1.4.5-1.8l7.6-4.4c.6-.4 1.4-.1 1.8.5.4.6.1 1.4-.5 1.8l-7.6 4.4c-.3.2-.5.2-.7.2zm-79.8-.8c-.2 0-.5-.1-.7-.2l-7.6-4.4c-.6-.4-.8-1.2-.5-1.8.4-.6 1.2-.8 1.8-.5l7.6 4.4c.6.4.8 1.2.5 1.8-.2.5-.7.7-1.1.7zm91.9-6.2c-.5 0-.9-.2-1.1-.7-.4-.6-.1-1.4.5-1.8l7.6-4.4c.6-.4 1.4-.1 1.8.5.4.6.1 1.4-.5 1.8l-7.6 4.4c-.2.1-.4.2-.7.2zm-104.1-.8c-.2 0-.5-.1-.7-.2l-7.6-4.4c-.6-.4-.8-1.2-.5-1.8.4-.6 1.2-.8 1.8-.5l7.6 4.4c.6.4.8 1.2.5 1.8-.2.5-.6.7-1.1.7zm116.3-6.2c-.5 0-.9-.2-1.1-.7-.4-.6-.1-1.4.5-1.8l7.6-4.4c.6-.4 1.4-.1 1.8.5.4.6.1 1.4-.5 1.8l-7.6 4.4c-.2.1-.5.2-.7.2zm-128.5-.8c-.2 0-.5-.1-.7-.2l-7.6-4.4c-.6-.4-.8-1.2-.5-1.8.4-.6 1.2-.8 1.8-.5l7.6 4.4c.6.4.8 1.2.5 1.8-.2.4-.6.7-1.1.7zm140.7-6.2c-.5 0-.9-.2-1.1-.7-.4-.6-.1-1.4.5-1.8l7.6-4.4c.6-.4 1.4-.1 1.8.5.4.6.1 1.4-.5 1.8l-7.6 4.4c-.3.1-.5.2-.7.2zm-152.8-.9c-.2 0-.5-.1-.7-.2l-7.6-4.4c-.6-.4-.8-1.2-.5-1.8.4-.6 1.2-.8 1.8-.5L27 113c.6.4.8 1.2.5 1.8-.2.5-.7.7-1.1.7zm165-6.2c-.5 0-.9-.2-1.1-.7-.4-.6-.1-1.4.5-1.8l7.3-4.2c.6-.4 1.4-.1 1.8.5.4.6.1 1.4-.5 1.8l-7.3 4.2c-.3.2-.5.2-.7.2zm-177.2-.8c-.2 0-.5-.1-.7-.2l-7.6-4.4c-.6-.4-.8-1.2-.5-1.8.4-.6 1.2-.8 1.8-.5l7.6 4.4c.6.4.8 1.2.5 1.8-.2.5-.6.7-1.1.7zm91 64.2c-.7 0-1.2-.5-1.3-1.2-.1-.7.5-1.4 1.2-1.4 2.9-.3 5.7-1 8-2.1.7-.3 1.4 0 1.7.6.3.7 0 1.4-.6 1.7-2.6 1.2-5.7 2-8.9 2.3 0 .1 0 .1-.1.1zm-5.2 0h-.1c-2.8-.3-5.4-1.1-7.4-2.2l-1.3-.8c-.6-.4-.8-1.2-.5-1.8.4-.6 1.2-.8 1.8-.5l1.3.8c1.7 1 3.9 1.6 6.4 1.9.7.1 1.2.7 1.2 1.5-.2.6-.7 1.1-1.4 1.1zm18.3-4.7c-.5 0-.9-.2-1.1-.7-.4-.6-.1-1.4.5-1.8l7.6-4.4c.6-.4 1.4-.1 1.8.5.4.6.1 1.4-.5 1.8l-7.6 4.4c-.2.1-.5.2-.7.2zm-31.1-.8c-.2 0-.5-.1-.7-.2l-7.6-4.4c-.6-.4-.8-1.2-.5-1.8.4-.6 1.2-.8 1.8-.5l7.6 4.4c.6.4.8 1.2.5 1.8-.2.5-.6.7-1.1.7zm43.3-6.3c-.5 0-.9-.2-1.1-.7-.4-.6-.1-1.4.5-1.8l7.6-4.4c.6-.4 1.4-.1 1.8.5.4.6.1 1.4-.5 1.8l-7.6 4.4c-.3.2-.5.2-.7.2zm-55.5-.7c-.2 0-.5-.1-.7-.2l-7.6-4.4c-.6-.4-.8-1.2-.5-1.8.4-.6 1.2-.8 1.8-.5l7.6 4.4c.6.4.8 1.2.5 1.8-.2.4-.6.7-1.1.7zm67.7-6.3c-.5 0-.9-.2-1.1-.7-.4-.6-.1-1.4.5-1.8l7.6-4.4c.6-.4 1.4-.1 1.8.5.4.6.1 1.4-.5 1.8l-7.6 4.4c-.3.2-.5.2-.7.2zm-79.8-.8c-.2 0-.5-.1-.7-.2l-7.6-4.4c-.6-.4-.8-1.2-.5-1.8.4-.6 1.2-.8 1.8-.5l7.6 4.4c.6.4.8 1.2.5 1.8-.2.5-.7.7-1.1.7zm91.9-6.2c-.5 0-.9-.2-1.1-.7-.4-.6-.1-1.4.5-1.8l7.6-4.4c.6-.4 1.4-.1 1.8.5.4.6.1 1.4-.5 1.8l-7.6 4.4c-.2.1-.4.2-.7.2zm-104.1-.8c-.2 0-.5-.1-.7-.2l-7.6-4.4c-.6-.4-.8-1.2-.5-1.8.4-.6 1.2-.8 1.8-.5l7.6 4.4c.6.4.8 1.2.5 1.8-.2.5-.6.7-1.1.7zm116.3-6.2c-.5 0-.9-.2-1.1-.7-.4-.6-.1-1.4.5-1.8l7.6-4.4c.6-.4 1.4-.1 1.8.5.4.6.1 1.4-.5 1.8l-7.6 4.4c-.2.1-.5.2-.7.2zm-128.5-.8c-.2 0-.5-.1-.7-.2l-7.6-4.4c-.6-.4-.8-1.2-.5-1.8.4-.6 1.2-.8 1.8-.5l7.6 4.4c.6.4.8 1.2.5 1.8-.2.4-.6.7-1.1.7zm140.7-6.2c-.5 0-.9-.2-1.1-.7-.4-.6-.1-1.4.5-1.8l7.6-4.4c.6-.4 1.4-.1 1.8.5.4.6.1 1.4-.5 1.8l-7.6 4.4c-.3.1-.5.2-.7.2zM26.4 132c-.2 0-.5-.1-.7-.2l-7.6-4.4c-.6-.4-.8-1.2-.5-1.8.4-.6 1.2-.8 1.8-.5l7.6 4.4c.6.4.8 1.2.5 1.8-.2.5-.7.7-1.1.7zm165-6.2c-.5 0-.9-.2-1.1-.7-.4-.6-.1-1.4.5-1.8l7.3-4.2c.6-.4 1.4-.1 1.8.5.4.6.1 1.4-.5 1.8l-7.3 4.2c-.3.2-.5.2-.7.2zM14.2 125c-.2 0-.5-.1-.7-.2l-7.6-4.4c-.6-.4-.8-1.2-.5-1.8.4-.6 1.2-.8 1.8-.5l7.6 4.4c.6.4.8 1.2.5 1.8-.2.5-.6.7-1.1.7zm91 64.2c-.7 0-1.2-.5-1.3-1.2-.1-.7.5-1.4 1.2-1.4 2.9-.3 5.7-1 8-2.1.7-.3 1.4 0 1.7.6.3.7 0 1.4-.6 1.7-2.7 1.2-5.7 2-8.9 2.3 0 .1 0 .1-.1.1zm-5.2 0h-.1c-2.8-.3-5.4-1.1-7.4-2.2l-1.3-.8c-.6-.4-.8-1.2-.5-1.8.4-.6 1.2-.8 1.8-.5l1.3.8c1.7 1 3.9 1.6 6.4 1.9.7.1 1.2.7 1.2 1.5-.2.6-.7 1.1-1.4 1.1zm18.3-4.7c-.5 0-.9-.2-1.1-.7-.4-.6-.1-1.4.5-1.8l7.6-4.4c.6-.4 1.4-.1 1.8.5.4.6.1 1.4-.5 1.8l-7.6 4.4c-.2.1-.5.2-.7.2zm-31.1-.8c-.2 0-.5-.1-.7-.2l-7.6-4.4c-.6-.4-.8-1.2-.5-1.8.4-.6 1.2-.8 1.8-.5l7.6 4.4c.6.4.8 1.2.5 1.8-.2.5-.6.7-1.1.7zm43.3-6.3c-.5 0-.9-.2-1.1-.7-.4-.6-.1-1.4.5-1.8l7.6-4.4c.6-.4 1.4-.1 1.8.5.4.6.1 1.4-.5 1.8l-7.6 4.4c-.3.2-.5.2-.7.2zm-55.5-.7c-.2 0-.5-.1-.7-.2l-7.6-4.4c-.6-.4-.8-1.2-.5-1.8.4-.6 1.2-.8 1.8-.5l7.6 4.4c.6.4.8 1.2.5 1.8-.2.4-.6.7-1.1.7zm67.7-6.3c-.5 0-.9-.2-1.1-.7-.4-.6-.1-1.4.5-1.8l7.6-4.4c.6-.4 1.4-.1 1.8.5.4.6.1 1.4-.5 1.8l-7.6 4.4c-.3.2-.5.2-.7.2zm-79.8-.8c-.2 0-.5-.1-.7-.2l-7.6-4.4c-.6-.4-.8-1.2-.5-1.8.4-.6 1.2-.8 1.8-.5l7.6 4.4c.6.4.8 1.2.5 1.8-.2.5-.7.7-1.1.7zm91.9-6.2c-.5 0-.9-.2-1.1-.7-.4-.6-.1-1.4.5-1.8l7.6-4.4c.6-.4 1.4-.1 1.8.5.4.6.1 1.4-.5 1.8l-7.6 4.4c-.2.2-.4.2-.7.2zm-104.1-.8c-.2 0-.5-.1-.7-.2l-7.6-4.4c-.6-.4-.8-1.2-.5-1.8.4-.6 1.2-.8 1.8-.5l7.6 4.4c.6.4.8 1.2.5 1.8-.2.5-.6.7-1.1.7zm116.3-6.2c-.5 0-.9-.2-1.1-.7-.4-.6-.1-1.4.5-1.8l7.6-4.4c.6-.4 1.4-.1 1.8.5.4.6.1 1.4-.5 1.8l-7.6 4.4c-.2.1-.5.2-.7.2zm-128.5-.8c-.2 0-.5-.1-.7-.2l-7.6-4.4c-.6-.4-.8-1.2-.5-1.8.4-.6 1.2-.8 1.8-.5l7.6 4.4c.6.4.8 1.2.5 1.8-.2.4-.6.7-1.1.7zm140.7-6.2c-.5 0-.9-.2-1.1-.7-.4-.6-.1-1.4.5-1.8l7.6-4.4c.6-.4 1.4-.1 1.8.5.4.6.1 1.4-.5 1.8l-7.6 4.4c-.3.1-.5.2-.7.2zm-152.8-.9c-.2 0-.5-.1-.7-.2l-7.6-4.4c-.6-.4-.8-1.2-.5-1.8.4-.6 1.2-.8 1.8-.5L27 146c.6.4.8 1.2.5 1.8-.2.5-.7.7-1.1.7zm165-6.2c-.5 0-.9-.2-1.1-.7-.4-.6-.1-1.4.5-1.8l7.3-4.2c.6-.4 1.4-.1 1.8.5.4.6.1 1.4-.5 1.8l-7.3 4.2c-.3.2-.5.2-.7.2zm-177.2-.8c-.2 0-.5-.1-.7-.2l-7.6-4.4c-.6-.4-.8-1.2-.5-1.8.4-.6 1.2-.8 1.8-.5l7.6 4.4c.6.4.8 1.2.5 1.8-.2.5-.6.7-1.1.7zm91 64.2c-.7 0-1.2-.5-1.3-1.2-.1-.7.5-1.4 1.2-1.4 2.9-.3 5.7-1 8-2.1.7-.3 1.4 0 1.7.6.3.7 0 1.4-.6 1.7-2.6 1.2-5.7 2-8.9 2.3 0 .1 0 .1-.1.1zm-5.2 0h-.1c-2.8-.3-5.4-1.1-7.4-2.2l-1.3-.8c-.6-.4-.8-1.2-.5-1.8.4-.6 1.2-.8 1.8-.5l1.3.8c1.7 1 3.9 1.6 6.4 1.9.7.1 1.2.7 1.2 1.5-.2.6-.7 1.1-1.4 1.1zm18.3-4.7c-.5 0-.9-.2-1.1-.7-.4-.6-.1-1.4.5-1.8l7.6-4.4c.6-.4 1.4-.1 1.8.5.4.6.1 1.4-.5 1.8l-7.6 4.4c-.2.1-.5.2-.7.2zm-31.1-.8c-.2 0-.5-.1-.7-.2l-7.6-4.4c-.6-.4-.8-1.2-.5-1.8.4-.6 1.2-.8 1.8-.5l7.6 4.4c.6.4.8 1.2.5 1.8-.2.5-.6.7-1.1.7zm43.3-6.2c-.5 0-.9-.2-1.1-.7-.4-.6-.1-1.4.5-1.8l7.6-4.4c.6-.4 1.4-.1 1.8.5.4.6.1 1.4-.5 1.8l-7.6 4.4c-.3.1-.5.2-.7.2zm-55.5-.8c-.2 0-.5-.1-.7-.2l-7.6-4.4c-.6-.4-.8-1.2-.5-1.8.4-.6 1.2-.8 1.8-.5l7.6 4.4c.6.4.8 1.2.5 1.8-.2.4-.6.7-1.1.7zm67.7-6.3c-.5 0-.9-.2-1.1-.7-.4-.6-.1-1.4.5-1.8l7.6-4.4c.6-.4 1.4-.1 1.8.5.4.6.1 1.4-.5 1.8l-7.6 4.4c-.3.2-.5.2-.7.2zm-79.8-.8c-.2 0-.5-.1-.7-.2l-7.6-4.4c-.6-.4-.8-1.2-.5-1.8.4-.6 1.2-.8 1.8-.5l7.6 4.4c.6.4.8 1.2.5 1.8-.2.5-.7.7-1.1.7zm91.9-6.2c-.5 0-.9-.2-1.1-.7-.4-.6-.1-1.4.5-1.8l7.6-4.4c.6-.4 1.4-.1 1.8.5.4.6.1 1.4-.5 1.8l-7.6 4.4c-.2.2-.4.2-.7.2zm-104.1-.8c-.2 0-.5-.1-.7-.2l-7.6-4.4c-.6-.4-.8-1.2-.5-1.8.4-.6 1.2-.8 1.8-.5l7.6 4.4c.6.4.8 1.2.5 1.8-.2.5-.6.7-1.1.7zm116.3-6.2c-.5 0-.9-.2-1.1-.7-.4-.6-.1-1.4.5-1.8l7.6-4.4c.6-.4 1.4-.1 1.8.5s.1 1.4-.5 1.8l-7.6 4.4c-.2.1-.5.2-.7.2zm-128.5-.8c-.2 0-.5-.1-.7-.2l-7.6-4.4c-.6-.4-.8-1.2-.5-1.8.4-.6 1.2-.8 1.8-.5l7.6 4.4c.6.4.8 1.2.5 1.8-.2.4-.6.7-1.1.7zm140.7-6.2c-.5 0-.9-.2-1.1-.7-.4-.6-.1-1.4.5-1.8l7.6-4.4c.6-.4 1.4-.1 1.8.5.4.6.1 1.4-.5 1.8l-7.6 4.4c-.3.1-.5.2-.7.2zM26.4 165c-.2 0-.5-.1-.7-.2l-7.6-4.4c-.6-.4-.8-1.2-.5-1.8.4-.6 1.2-.8 1.8-.5l7.6 4.4c.6.4.8 1.2.5 1.8-.2.5-.7.7-1.1.7zm165-6.2c-.5 0-.9-.2-1.1-.7-.4-.6-.1-1.4.5-1.8l7.3-4.2c.6-.4 1.4-.1 1.8.5.4.6.1 1.4-.5 1.8l-7.3 4.2c-.3.2-.5.2-.7.2zM14.2 158c-.2 0-.5-.1-.7-.2l-7.6-4.4c-.6-.4-.8-1.2-.5-1.8.4-.6 1.2-.8 1.8-.5l7.6 4.4c.6.4.8 1.2.5 1.8-.2.5-.6.7-1.1.7zm91 64.2c-.7 0-1.2-.5-1.3-1.2-.1-.7.5-1.4 1.2-1.4 2.9-.3 5.7-1 8-2.1.7-.3 1.4 0 1.7.6.3.7 0 1.4-.6 1.7-2.7 1.2-5.7 2-8.9 2.3 0 .1 0 .1-.1.1zm-5.2 0h-.1c-2.8-.3-5.4-1.1-7.4-2.2l-1.3-.8c-.6-.4-.8-1.2-.5-1.8.4-.6 1.2-.8 1.8-.5l1.3.8c1.7 1 3.9 1.6 6.4 1.9.7.1 1.2.7 1.2 1.5-.2.6-.7 1.1-1.4 1.1zm18.3-4.7c-.5 0-.9-.2-1.1-.7-.4-.6-.1-1.4.5-1.8l7.6-4.4c.6-.4 1.4-.1 1.8.5.4.6.1 1.4-.5 1.8l-7.6 4.4c-.2.1-.5.2-.7.2zm-31.1-.8c-.2 0-.5-.1-.7-.2l-7.6-4.4c-.6-.4-.8-1.2-.5-1.8.4-.6 1.2-.8 1.8-.5l7.6 4.4c.6.4.8 1.2.5 1.8-.2.5-.6.7-1.1.7zm43.3-6.2c-.5 0-.9-.2-1.1-.7-.4-.6-.1-1.4.5-1.8l7.6-4.4c.6-.4 1.4-.1 1.8.5.4.6.1 1.4-.5 1.8l-7.6 4.4c-.3.1-.5.2-.7.2zm-55.5-.8c-.2 0-.5-.1-.7-.2l-7.6-4.4c-.6-.4-.8-1.2-.5-1.8.4-.6 1.2-.8 1.8-.5l7.6 4.4c.6.4.8 1.2.5 1.8-.2.4-.6.7-1.1.7zm67.7-6.3c-.5 0-.9-.2-1.1-.7-.4-.6-.1-1.4.5-1.8l7.6-4.4c.6-.4 1.4-.1 1.8.5.4.6.1 1.4-.5 1.8l-7.6 4.4c-.3.2-.5.2-.7.2zm-79.8-.8c-.2 0-.5-.1-.7-.2l-7.6-4.4c-.6-.4-.8-1.2-.5-1.8.4-.6 1.2-.8 1.8-.5l7.6 4.4c.6.4.8 1.2.5 1.8-.2.5-.7.7-1.1.7zm91.9-6.2c-.5 0-.9-.2-1.1-.7-.4-.6-.1-1.4.5-1.8l7.6-4.4c.6-.4 1.4-.1 1.8.5.4.6.1 1.4-.5 1.8l-7.6 4.4c-.2.2-.4.2-.7.2zm-104.1-.8c-.2 0-.5-.1-.7-.2l-7.6-4.4c-.6-.4-.8-1.2-.5-1.8.4-.6 1.2-.8 1.8-.5l7.6 4.4c.6.4.8 1.2.5 1.8-.2.5-.6.7-1.1.7zm116.3-6.2c-.5 0-.9-.2-1.1-.7-.4-.6-.1-1.4.5-1.8l7.6-4.4c.6-.4 1.4-.1 1.8.5s.1 1.4-.5 1.8l-7.6 4.4c-.2.1-.5.2-.7.2zm-128.5-.8c-.2 0-.5-.1-.7-.2l-7.6-4.4c-.6-.4-.8-1.2-.5-1.8.4-.6 1.2-.8 1.8-.5l7.6 4.4c.6.4.8 1.2.5 1.8-.2.4-.6.7-1.1.7zm140.7-6.2c-.5 0-.9-.2-1.1-.7-.4-.6-.1-1.4.5-1.8l7.6-4.4c.6-.4 1.4-.1 1.8.5.4.6.1 1.4-.5 1.8l-7.6 4.4c-.3.1-.5.2-.7.2zm-152.8-.9c-.2 0-.5-.1-.7-.2l-7.6-4.4c-.6-.4-.8-1.2-.5-1.8.4-.6 1.2-.8 1.8-.5L27 179c.6.4.8 1.2.5 1.8-.2.5-.7.7-1.1.7zm165-6.1c-.5 0-.9-.2-1.1-.7-.4-.6-.1-1.4.5-1.8l7.3-4.2c.6-.4 1.4-.1 1.8.5.4.6.1 1.4-.5 1.8l-7.3 4.2c-.3.1-.5.2-.7.2zm-177.2-.9c-.2 0-.5-.1-.7-.2l-7.6-4.4c-.6-.4-.8-1.2-.5-1.8.4-.6 1.2-.8 1.8-.5l7.6 4.4c.6.4.8 1.2.5 1.8-.2.5-.6.7-1.1.7z"/><ellipse class="st5" cx="102.6" cy="61.5" rx="54.9" ry="37.6"/><path class="st1" d="M205 176.6c-.2-2.5-2-5-5.5-7.1l-84.8-48.9c-6.7-3.9-16.9-4.3-22.7-.9L3.9 170.6c-2.8 1.6-4.1 3.8-3.9 6 .2 2.5 2 5 5.5 7.1l84.8 48.9c6.7 3.9 16.9 4.3 22.7.9l88.1-50.9c2.8-1.5 4.1-3.7 3.9-6z"/><linearGradient id="SVGID_3_" gradientUnits="userSpaceOnUse" x1="121.4851" y1="137.2049" x2="88.5234" y2="137.2049"><stop offset="0" stop-color="#dcdffb"/><stop offset="1" stop-color="#f3f3fa"/></linearGradient><path d="M205 175.1V58.9l-34.4 16.7-56-32.3c-6.7-3.9-16.9-4.3-22.7-.9L34.5 75.6 0 58.9v116.2c.2 2.5 2 5 5.5 7.1l84.8 48.9c3.5 2 7.9 3.1 12.1 3.2 3.9.1 7.7-.6 10.5-2.3l88.1-50.9c2.9-1.6 4.2-3.8 4-6z" fill="url(#SVGID_3_)"/><path class="st3" d="M205 61.2c-.2-2.5-2-5-5.5-7.1L114.7 5.2C107.9 1.3 97.8.9 92 4.3L3.9 55.1c-2.8 1.6-4.1 3.8-3.9 6 .2 2.5 2 5 5.5 7.1l84.8 48.9c6.7 3.9 16.9 4.3 22.7.9l88.1-50.9c2.8-1.5 4.1-3.7 3.9-5.9z"/><path class="st5" d="M105.2 139.7c-.7 0-1.2-.5-1.3-1.2-.1-.7.5-1.4 1.2-1.4 2.9-.3 5.7-1 8-2.1.7-.3 1.4 0 1.7.6.3.7 0 1.4-.6 1.7-2.7 1.2-5.7 2-8.9 2.3 0 .1 0 .1-.1.1zm-5.2 0h-.1c-2.8-.3-5.4-1.1-7.4-2.2l-1.3-.8c-.6-.4-.8-1.2-.5-1.8.4-.6 1.2-.8 1.8-.5l1.3.8c1.7 1 3.9 1.6 6.4 1.9.7.1 1.2.7 1.2 1.5-.2.6-.7 1.1-1.4 1.1zm18.3-4.7c-.5 0-.9-.2-1.1-.7-.4-.6-.1-1.4.5-1.8l7.6-4.4c.6-.4 1.4-.1 1.8.5.4.6.1 1.4-.5 1.8l-7.6 4.4c-.2.1-.5.2-.7.2zm-31.1-.8c-.2 0-.5-.1-.7-.2l-7.6-4.4c-.6-.4-.8-1.2-.5-1.8.4-.6 1.2-.8 1.8-.5l7.6 4.4c.6.4.8 1.2.5 1.8-.2.4-.6.7-1.1.7zm43.3-6.3c-.5 0-.9-.2-1.1-.7-.4-.6-.1-1.4.5-1.8l7.6-4.4c.6-.4 1.4-.1 1.8.5.4.6.1 1.4-.5 1.8l-7.6 4.4c-.3.2-.5.2-.7.2zm-55.5-.7c-.2 0-.5-.1-.7-.2l-7.6-4.4c-.6-.4-.8-1.2-.5-1.8.4-.6 1.2-.8 1.8-.5l7.6 4.4c.6.4.8 1.2.5 1.8-.2.4-.6.7-1.1.7zm67.7-6.3c-.5 0-.9-.2-1.1-.7-.4-.6-.1-1.4.5-1.8l7.6-4.4c.6-.4 1.4-.1 1.8.5.4.6.1 1.4-.5 1.8l-7.6 4.4c-.3.2-.5.2-.7.2zm-79.8-.8c-.2 0-.5-.1-.7-.2l-7.6-4.4c-.6-.4-.8-1.2-.5-1.8.4-.6 1.2-.8 1.8-.5l7.6 4.4c.6.4.8 1.2.5 1.8-.2.5-.7.7-1.1.7zm91.9-6.2c-.5 0-.9-.2-1.1-.7-.4-.6-.1-1.4.5-1.8l7.6-4.4c.6-.4 1.4-.1 1.8.5.4.6.1 1.4-.5 1.8l-7.6 4.4c-.2.1-.4.2-.7.2zm-104.1-.8c-.2 0-.5-.1-.7-.2l-7.6-4.4c-.6-.4-.8-1.2-.5-1.8.4-.6 1.2-.8 1.8-.5l7.6 4.4c.6.4.8 1.2.5 1.8-.2.5-.6.7-1.1.7zm116.3-6.2c-.5 0-.9-.2-1.1-.7-.4-.6-.1-1.4.5-1.8l7.6-4.4c.6-.4 1.4-.1 1.8.5.4.6.1 1.4-.5 1.8l-7.6 4.4c-.2.1-.5.2-.7.2zm-128.5-.8c-.2 0-.5-.1-.7-.2l-7.6-4.4c-.6-.4-.8-1.2-.5-1.8.4-.6 1.2-.8 1.8-.5l7.6 4.4c.6.4.8 1.2.5 1.8-.2.4-.6.7-1.1.7zm140.7-6.2c-.5 0-.9-.2-1.1-.7-.4-.6-.1-1.4.5-1.8l7.6-4.4c.6-.4 1.4-.1 1.8.5.4.6.1 1.4-.5 1.8l-7.6 4.4c-.3.1-.5.2-.7.2zM26.4 99c-.2 0-.5-.1-.7-.2l-7.6-4.4c-.6-.4-.8-1.2-.5-1.8.4-.6 1.2-.8 1.8-.5l7.6 4.4c.6.4.8 1.2.5 1.8-.2.5-.7.7-1.1.7zm165-6.2c-.5 0-.9-.2-1.1-.7-.4-.6-.1-1.4.5-1.8l7.3-4.2c.6-.4 1.4-.1 1.8.5.4.6.1 1.4-.5 1.8l-7.3 4.2c-.3.2-.5.2-.7.2zM14.2 92c-.2 0-.5-.1-.7-.2l-7.6-4.4c-.6-.4-.8-1.2-.5-1.8.4-.6 1.2-.8 1.8-.5l7.6 4.4c.6.4.8 1.2.5 1.8-.2.5-.6.7-1.1.7zm91 64.2c-.7 0-1.2-.5-1.3-1.2-.1-.7.5-1.4 1.2-1.4 2.9-.3 5.7-1 8-2.1.7-.3 1.4 0 1.7.6.3.7 0 1.4-.6 1.7-2.6 1.2-5.7 2-8.9 2.3 0 .1 0 .1-.1.1zm-5.2 0h-.1c-2.8-.3-5.4-1.1-7.4-2.2l-1.3-.8c-.6-.4-.8-1.2-.5-1.8.4-.6 1.2-.8 1.8-.5l1.3.8c1.7 1 3.9 1.6 6.4 1.9.7.1 1.2.7 1.2 1.5-.2.6-.7 1.1-1.4 1.1zm18.3-4.7c-.5 0-.9-.2-1.1-.7-.4-.6-.1-1.4.5-1.8l7.6-4.4c.6-.4 1.4-.1 1.8.5.4.6.1 1.4-.5 1.8l-7.6 4.4c-.2.1-.5.2-.7.2zm-31.1-.8c-.2 0-.5-.1-.7-.2l-7.6-4.4c-.6-.4-.8-1.2-.5-1.8.4-.6 1.2-.8 1.8-.5l7.6 4.4c.6.4.8 1.2.5 1.8-.2.5-.6.7-1.1.7zm43.3-6.3c-.5 0-.9-.2-1.1-.7-.4-.6-.1-1.4.5-1.8l7.6-4.4c.6-.4 1.4-.1 1.8.5.4.6.1 1.4-.5 1.8l-7.6 4.4c-.3.2-.5.2-.7.2zm-55.5-.7c-.2 0-.5-.1-.7-.2l-7.6-4.4c-.6-.4-.8-1.2-.5-1.8.4-.6 1.2-.8 1.8-.5l7.6 4.4c.6.4.8 1.2.5 1.8-.2.4-.6.7-1.1.7zm67.7-6.3c-.5 0-.9-.2-1.1-.7-.4-.6-.1-1.4.5-1.8l7.6-4.4c.6-.4 1.4-.1 1.8.5.4.6.1 1.4-.5 1.8l-7.6 4.4c-.3.2-.5.2-.7.2zm-79.8-.8c-.2 0-.5-.1-.7-.2l-7.6-4.4c-.6-.4-.8-1.2-.5-1.8.4-.6 1.2-.8 1.8-.5l7.6 4.4c.6.4.8 1.2.5 1.8-.2.5-.7.7-1.1.7zm91.9-6.2c-.5 0-.9-.2-1.1-.7-.4-.6-.1-1.4.5-1.8l7.6-4.4c.6-.4 1.4-.1 1.8.5.4.6.1 1.4-.5 1.8l-7.6 4.4c-.2.1-.4.2-.7.2zm-104.1-.8c-.2 0-.5-.1-.7-.2l-7.6-4.4c-.6-.4-.8-1.2-.5-1.8.4-.6 1.2-.8 1.8-.5l7.6 4.4c.6.4.8 1.2.5 1.8-.2.5-.6.7-1.1.7zm116.3-6.2c-.5 0-.9-.2-1.1-.7-.4-.6-.1-1.4.5-1.8l7.6-4.4c.6-.4 1.4-.1 1.8.5.4.6.1 1.4-.5 1.8l-7.6 4.4c-.2.1-.5.2-.7.2zm-128.5-.8c-.2 0-.5-.1-.7-.2l-7.6-4.4c-.6-.4-.8-1.2-.5-1.8.4-.6 1.2-.8 1.8-.5l7.6 4.4c.6.4.8 1.2.5 1.8-.2.4-.6.7-1.1.7zm140.7-6.2c-.5 0-.9-.2-1.1-.7-.4-.6-.1-1.4.5-1.8l7.6-4.4c.6-.4 1.4-.1 1.8.5.4.6.1 1.4-.5 1.8l-7.6 4.4c-.3.1-.5.2-.7.2zm-152.8-.9c-.2 0-.5-.1-.7-.2l-7.6-4.4c-.6-.4-.8-1.2-.5-1.8.4-.6 1.2-.8 1.8-.5L27 113c.6.4.8 1.2.5 1.8-.2.5-.7.7-1.1.7zm165-6.2c-.5 0-.9-.2-1.1-.7-.4-.6-.1-1.4.5-1.8l7.3-4.2c.6-.4 1.4-.1 1.8.5.4.6.1 1.4-.5 1.8l-7.3 4.2c-.3.2-.5.2-.7.2zm-177.2-.8c-.2 0-.5-.1-.7-.2l-7.6-4.4c-.6-.4-.8-1.2-.5-1.8.4-.6 1.2-.8 1.8-.5l7.6 4.4c.6.4.8 1.2.5 1.8-.2.5-.6.7-1.1.7zm91 64.2c-.7 0-1.2-.5-1.3-1.2-.1-.7.5-1.4 1.2-1.4 2.9-.3 5.7-1 8-2.1.7-.3 1.4 0 1.7.6.3.7 0 1.4-.6 1.7-2.6 1.2-5.7 2-8.9 2.3 0 .1 0 .1-.1.1zm-5.2 0h-.1c-2.8-.3-5.4-1.1-7.4-2.2l-1.3-.8c-.6-.4-.8-1.2-.5-1.8.4-.6 1.2-.8 1.8-.5l1.3.8c1.7 1 3.9 1.6 6.4 1.9.7.1 1.2.7 1.2 1.5-.2.6-.7 1.1-1.4 1.1zm18.3-4.7c-.5 0-.9-.2-1.1-.7-.4-.6-.1-1.4.5-1.8l7.6-4.4c.6-.4 1.4-.1 1.8.5.4.6.1 1.4-.5 1.8l-7.6 4.4c-.2.1-.5.2-.7.2zm-31.1-.8c-.2 0-.5-.1-.7-.2l-7.6-4.4c-.6-.4-.8-1.2-.5-1.8.4-.6 1.2-.8 1.8-.5l7.6 4.4c.6.4.8 1.2.5 1.8-.2.5-.6.7-1.1.7zm43.3-6.3c-.5 0-.9-.2-1.1-.7-.4-.6-.1-1.4.5-1.8l7.6-4.4c.6-.4 1.4-.1 1.8.5.4.6.1 1.4-.5 1.8l-7.6 4.4c-.3.2-.5.2-.7.2zm-55.5-.7c-.2 0-.5-.1-.7-.2l-7.6-4.4c-.6-.4-.8-1.2-.5-1.8.4-.6 1.2-.8 1.8-.5l7.6 4.4c.6.4.8 1.2.5 1.8-.2.4-.6.7-1.1.7zm67.7-6.3c-.5 0-.9-.2-1.1-.7-.4-.6-.1-1.4.5-1.8l7.6-4.4c.6-.4 1.4-.1 1.8.5.4.6.1 1.4-.5 1.8l-7.6 4.4c-.3.2-.5.2-.7.2zm-79.8-.8c-.2 0-.5-.1-.7-.2l-7.6-4.4c-.6-.4-.8-1.2-.5-1.8.4-.6 1.2-.8 1.8-.5l7.6 4.4c.6.4.8 1.2.5 1.8-.2.5-.7.7-1.1.7zm91.9-6.2c-.5 0-.9-.2-1.1-.7-.4-.6-.1-1.4.5-1.8l7.6-4.4c.6-.4 1.4-.1 1.8.5.4.6.1 1.4-.5 1.8l-7.6 4.4c-.2.1-.4.2-.7.2zm-104.1-.8c-.2 0-.5-.1-.7-.2l-7.6-4.4c-.6-.4-.8-1.2-.5-1.8.4-.6 1.2-.8 1.8-.5l7.6 4.4c.6.4.8 1.2.5 1.8-.2.5-.6.7-1.1.7zm116.3-6.2c-.5 0-.9-.2-1.1-.7-.4-.6-.1-1.4.5-1.8l7.6-4.4c.6-.4 1.4-.1 1.8.5.4.6.1 1.4-.5 1.8l-7.6 4.4c-.2.1-.5.2-.7.2zm-128.5-.8c-.2 0-.5-.1-.7-.2l-7.6-4.4c-.6-.4-.8-1.2-.5-1.8.4-.6 1.2-.8 1.8-.5l7.6 4.4c.6.4.8 1.2.5 1.8-.2.4-.6.7-1.1.7zm140.7-6.2c-.5 0-.9-.2-1.1-.7-.4-.6-.1-1.4.5-1.8l7.6-4.4c.6-.4 1.4-.1 1.8.5.4.6.1 1.4-.5 1.8l-7.6 4.4c-.3.1-.5.2-.7.2zM26.4 132c-.2 0-.5-.1-.7-.2l-7.6-4.4c-.6-.4-.8-1.2-.5-1.8.4-.6 1.2-.8 1.8-.5l7.6 4.4c.6.4.8 1.2.5 1.8-.2.5-.7.7-1.1.7zm165-6.2c-.5 0-.9-.2-1.1-.7-.4-.6-.1-1.4.5-1.8l7.3-4.2c.6-.4 1.4-.1 1.8.5.4.6.1 1.4-.5 1.8l-7.3 4.2c-.3.2-.5.2-.7.2zM14.2 125c-.2 0-.5-.1-.7-.2l-7.6-4.4c-.6-.4-.8-1.2-.5-1.8.4-.6 1.2-.8 1.8-.5l7.6 4.4c.6.4.8 1.2.5 1.8-.2.5-.6.7-1.1.7zm91 64.2c-.7 0-1.2-.5-1.3-1.2-.1-.7.5-1.4 1.2-1.4 2.9-.3 5.7-1 8-2.1.7-.3 1.4 0 1.7.6.3.7 0 1.4-.6 1.7-2.7 1.2-5.7 2-8.9 2.3 0 .1 0 .1-.1.1zm-5.2 0h-.1c-2.8-.3-5.4-1.1-7.4-2.2l-1.3-.8c-.6-.4-.8-1.2-.5-1.8.4-.6 1.2-.8 1.8-.5l1.3.8c1.7 1 3.9 1.6 6.4 1.9.7.1 1.2.7 1.2 1.5-.2.6-.7 1.1-1.4 1.1zm18.3-4.7c-.5 0-.9-.2-1.1-.7-.4-.6-.1-1.4.5-1.8l7.6-4.4c.6-.4 1.4-.1 1.8.5.4.6.1 1.4-.5 1.8l-7.6 4.4c-.2.1-.5.2-.7.2zm-31.1-.8c-.2 0-.5-.1-.7-.2l-7.6-4.4c-.6-.4-.8-1.2-.5-1.8.4-.6 1.2-.8 1.8-.5l7.6 4.4c.6.4.8 1.2.5 1.8-.2.5-.6.7-1.1.7zm43.3-6.3c-.5 0-.9-.2-1.1-.7-.4-.6-.1-1.4.5-1.8l7.6-4.4c.6-.4 1.4-.1 1.8.5.4.6.1 1.4-.5 1.8l-7.6 4.4c-.3.2-.5.2-.7.2zm-55.5-.7c-.2 0-.5-.1-.7-.2l-7.6-4.4c-.6-.4-.8-1.2-.5-1.8.4-.6 1.2-.8 1.8-.5l7.6 4.4c.6.4.8 1.2.5 1.8-.2.4-.6.7-1.1.7zm67.7-6.3c-.5 0-.9-.2-1.1-.7-.4-.6-.1-1.4.5-1.8l7.6-4.4c.6-.4 1.4-.1 1.8.5.4.6.1 1.4-.5 1.8l-7.6 4.4c-.3.2-.5.2-.7.2zm-79.8-.8c-.2 0-.5-.1-.7-.2l-7.6-4.4c-.6-.4-.8-1.2-.5-1.8.4-.6 1.2-.8 1.8-.5l7.6 4.4c.6.4.8 1.2.5 1.8-.2.5-.7.7-1.1.7zm91.9-6.2c-.5 0-.9-.2-1.1-.7-.4-.6-.1-1.4.5-1.8l7.6-4.4c.6-.4 1.4-.1 1.8.5.4.6.1 1.4-.5 1.8l-7.6 4.4c-.2.2-.4.2-.7.2zm-104.1-.8c-.2 0-.5-.1-.7-.2l-7.6-4.4c-.6-.4-.8-1.2-.5-1.8.4-.6 1.2-.8 1.8-.5l7.6 4.4c.6.4.8 1.2.5 1.8-.2.5-.6.7-1.1.7zm116.3-6.2c-.5 0-.9-.2-1.1-.7-.4-.6-.1-1.4.5-1.8l7.6-4.4c.6-.4 1.4-.1 1.8.5.4.6.1 1.4-.5 1.8l-7.6 4.4c-.2.1-.5.2-.7.2zm-128.5-.8c-.2 0-.5-.1-.7-.2l-7.6-4.4c-.6-.4-.8-1.2-.5-1.8.4-.6 1.2-.8 1.8-.5l7.6 4.4c.6.4.8 1.2.5 1.8-.2.4-.6.7-1.1.7zm140.7-6.2c-.5 0-.9-.2-1.1-.7-.4-.6-.1-1.4.5-1.8l7.6-4.4c.6-.4 1.4-.1 1.8.5.4.6.1 1.4-.5 1.8l-7.6 4.4c-.3.1-.5.2-.7.2zm-152.8-.9c-.2 0-.5-.1-.7-.2l-7.6-4.4c-.6-.4-.8-1.2-.5-1.8.4-.6 1.2-.8 1.8-.5L27 146c.6.4.8 1.2.5 1.8-.2.5-.7.7-1.1.7zm165-6.2c-.5 0-.9-.2-1.1-.7-.4-.6-.1-1.4.5-1.8l7.3-4.2c.6-.4 1.4-.1 1.8.5.4.6.1 1.4-.5 1.8l-7.3 4.2c-.3.2-.5.2-.7.2zm-177.2-.8c-.2 0-.5-.1-.7-.2l-7.6-4.4c-.6-.4-.8-1.2-.5-1.8.4-.6 1.2-.8 1.8-.5l7.6 4.4c.6.4.8 1.2.5 1.8-.2.5-.6.7-1.1.7zm91 64.2c-.7 0-1.2-.5-1.3-1.2-.1-.7.5-1.4 1.2-1.4 2.9-.3 5.7-1 8-2.1.7-.3 1.4 0 1.7.6.3.7 0 1.4-.6 1.7-2.6 1.2-5.7 2-8.9 2.3 0 .1 0 .1-.1.1zm-5.2 0h-.1c-2.8-.3-5.4-1.1-7.4-2.2l-1.3-.8c-.6-.4-.8-1.2-.5-1.8.4-.6 1.2-.8 1.8-.5l1.3.8c1.7 1 3.9 1.6 6.4 1.9.7.1 1.2.7 1.2 1.5-.2.6-.7 1.1-1.4 1.1zm18.3-4.7c-.5 0-.9-.2-1.1-.7-.4-.6-.1-1.4.5-1.8l7.6-4.4c.6-.4 1.4-.1 1.8.5.4.6.1 1.4-.5 1.8l-7.6 4.4c-.2.1-.5.2-.7.2zm-31.1-.8c-.2 0-.5-.1-.7-.2l-7.6-4.4c-.6-.4-.8-1.2-.5-1.8.4-.6 1.2-.8 1.8-.5l7.6 4.4c.6.4.8 1.2.5 1.8-.2.5-.6.7-1.1.7zm43.3-6.2c-.5 0-.9-.2-1.1-.7-.4-.6-.1-1.4.5-1.8l7.6-4.4c.6-.4 1.4-.1 1.8.5.4.6.1 1.4-.5 1.8l-7.6 4.4c-.3.1-.5.2-.7.2zm-55.5-.8c-.2 0-.5-.1-.7-.2l-7.6-4.4c-.6-.4-.8-1.2-.5-1.8.4-.6 1.2-.8 1.8-.5l7.6 4.4c.6.4.8 1.2.5 1.8-.2.4-.6.7-1.1.7zm67.7-6.3c-.5 0-.9-.2-1.1-.7-.4-.6-.1-1.4.5-1.8l7.6-4.4c.6-.4 1.4-.1 1.8.5.4.6.1 1.4-.5 1.8l-7.6 4.4c-.3.2-.5.2-.7.2zm-79.8-.8c-.2 0-.5-.1-.7-.2l-7.6-4.4c-.6-.4-.8-1.2-.5-1.8.4-.6 1.2-.8 1.8-.5l7.6 4.4c.6.4.8 1.2.5 1.8-.2.5-.7.7-1.1.7zm91.9-6.2c-.5 0-.9-.2-1.1-.7-.4-.6-.1-1.4.5-1.8l7.6-4.4c.6-.4 1.4-.1 1.8.5.4.6.1 1.4-.5 1.8l-7.6 4.4c-.2.2-.4.2-.7.2zm-104.1-.8c-.2 0-.5-.1-.7-.2l-7.6-4.4c-.6-.4-.8-1.2-.5-1.8.4-.6 1.2-.8 1.8-.5l7.6 4.4c.6.4.8 1.2.5 1.8-.2.5-.6.7-1.1.7zm116.3-6.2c-.5 0-.9-.2-1.1-.7-.4-.6-.1-1.4.5-1.8l7.6-4.4c.6-.4 1.4-.1 1.8.5s.1 1.4-.5 1.8l-7.6 4.4c-.2.1-.5.2-.7.2zm-128.5-.8c-.2 0-.5-.1-.7-.2l-7.6-4.4c-.6-.4-.8-1.2-.5-1.8.4-.6 1.2-.8 1.8-.5l7.6 4.4c.6.4.8 1.2.5 1.8-.2.4-.6.7-1.1.7zm140.7-6.2c-.5 0-.9-.2-1.1-.7-.4-.6-.1-1.4.5-1.8l7.6-4.4c.6-.4 1.4-.1 1.8.5.4.6.1 1.4-.5 1.8l-7.6 4.4c-.3.1-.5.2-.7.2zM26.4 165c-.2 0-.5-.1-.7-.2l-7.6-4.4c-.6-.4-.8-1.2-.5-1.8.4-.6 1.2-.8 1.8-.5l7.6 4.4c.6.4.8 1.2.5 1.8-.2.5-.7.7-1.1.7zm165-6.2c-.5 0-.9-.2-1.1-.7-.4-.6-.1-1.4.5-1.8l7.3-4.2c.6-.4 1.4-.1 1.8.5.4.6.1 1.4-.5 1.8l-7.3 4.2c-.3.2-.5.2-.7.2zM14.2 158c-.2 0-.5-.1-.7-.2l-7.6-4.4c-.6-.4-.8-1.2-.5-1.8.4-.6 1.2-.8 1.8-.5l7.6 4.4c.6.4.8 1.2.5 1.8-.2.5-.6.7-1.1.7zm91 64.2c-.7 0-1.2-.5-1.3-1.2-.1-.7.5-1.4 1.2-1.4 2.9-.3 5.7-1 8-2.1.7-.3 1.4 0 1.7.6.3.7 0 1.4-.6 1.7-2.7 1.2-5.7 2-8.9 2.3 0 .1 0 .1-.1.1zm-5.2 0h-.1c-2.8-.3-5.4-1.1-7.4-2.2l-1.3-.8c-.6-.4-.8-1.2-.5-1.8.4-.6 1.2-.8 1.8-.5l1.3.8c1.7 1 3.9 1.6 6.4 1.9.7.1 1.2.7 1.2 1.5-.2.6-.7 1.1-1.4 1.1zm18.3-4.7c-.5 0-.9-.2-1.1-.7-.4-.6-.1-1.4.5-1.8l7.6-4.4c.6-.4 1.4-.1 1.8.5.4.6.1 1.4-.5 1.8l-7.6 4.4c-.2.1-.5.2-.7.2zm-31.1-.8c-.2 0-.5-.1-.7-.2l-7.6-4.4c-.6-.4-.8-1.2-.5-1.8.4-.6 1.2-.8 1.8-.5l7.6 4.4c.6.4.8 1.2.5 1.8-.2.5-.6.7-1.1.7zm43.3-6.2c-.5 0-.9-.2-1.1-.7-.4-.6-.1-1.4.5-1.8l7.6-4.4c.6-.4 1.4-.1 1.8.5.4.6.1 1.4-.5 1.8l-7.6 4.4c-.3.1-.5.2-.7.2zm-55.5-.8c-.2 0-.5-.1-.7-.2l-7.6-4.4c-.6-.4-.8-1.2-.5-1.8.4-.6 1.2-.8 1.8-.5l7.6 4.4c.6.4.8 1.2.5 1.8-.2.4-.6.7-1.1.7zm67.7-6.3c-.5 0-.9-.2-1.1-.7-.4-.6-.1-1.4.5-1.8l7.6-4.4c.6-.4 1.4-.1 1.8.5.4.6.1 1.4-.5 1.8l-7.6 4.4c-.3.2-.5.2-.7.2zm-79.8-.8c-.2 0-.5-.1-.7-.2l-7.6-4.4c-.6-.4-.8-1.2-.5-1.8.4-.6 1.2-.8 1.8-.5l7.6 4.4c.6.4.8 1.2.5 1.8-.2.5-.7.7-1.1.7zm91.9-6.2c-.5 0-.9-.2-1.1-.7-.4-.6-.1-1.4.5-1.8l7.6-4.4c.6-.4 1.4-.1 1.8.5.4.6.1 1.4-.5 1.8l-7.6 4.4c-.2.2-.4.2-.7.2zm-104.1-.8c-.2 0-.5-.1-.7-.2l-7.6-4.4c-.6-.4-.8-1.2-.5-1.8.4-.6 1.2-.8 1.8-.5l7.6 4.4c.6.4.8 1.2.5 1.8-.2.5-.6.7-1.1.7zm116.3-6.2c-.5 0-.9-.2-1.1-.7-.4-.6-.1-1.4.5-1.8l7.6-4.4c.6-.4 1.4-.1 1.8.5s.1 1.4-.5 1.8l-7.6 4.4c-.2.1-.5.2-.7.2zm-128.5-.8c-.2 0-.5-.1-.7-.2l-7.6-4.4c-.6-.4-.8-1.2-.5-1.8.4-.6 1.2-.8 1.8-.5l7.6 4.4c.6.4.8 1.2.5 1.8-.2.4-.6.7-1.1.7zm140.7-6.2c-.5 0-.9-.2-1.1-.7-.4-.6-.1-1.4.5-1.8l7.6-4.4c.6-.4 1.4-.1 1.8.5.4.6.1 1.4-.5 1.8l-7.6 4.4c-.3.1-.5.2-.7.2zm-152.8-.9c-.2 0-.5-.1-.7-.2l-7.6-4.4c-.6-.4-.8-1.2-.5-1.8.4-.6 1.2-.8 1.8-.5L27 179c.6.4.8 1.2.5 1.8-.2.5-.7.7-1.1.7zm165-6.1c-.5 0-.9-.2-1.1-.7-.4-.6-.1-1.4.5-1.8l7.3-4.2c.6-.4 1.4-.1 1.8.5.4.6.1 1.4-.5 1.8l-7.3 4.2c-.3.1-.5.2-.7.2zm-177.2-.9c-.2 0-.5-.1-.7-.2l-7.6-4.4c-.6-.4-.8-1.2-.5-1.8.4-.6 1.2-.8 1.8-.5l7.6 4.4c.6.4.8 1.2.5 1.8-.2.5-.6.7-1.1.7z"/><ellipse class="st5" cx="102.6" cy="61.5" rx="54.9" ry="37.6"/></svg>