<svg xmlns="http://www.w3.org/2000/svg" xmlns:xlink="http://www.w3.org/1999/xlink" viewBox="0 0 283.62 287.13"><defs><linearGradient id="d" x1="-404.59" y1="-1999.16" x2="-321.08" y2="-1999.16" gradientTransform="matrix(1 0 0 -1 604.71 -1725.26)" gradientUnits="userSpaceOnUse"><stop offset="0" stop-color="#fff"/><stop offset="1"/></linearGradient><linearGradient id="a" x1="136.78" y1="176.09" x2="99.67" y2="176.09" gradientUnits="userSpaceOnUse"><stop offset="0" stop-color="#dcdffb"/><stop offset="1" stop-color="#f3f3fa"/></linearGradient><linearGradient id="e" x1="12.74" y1="209.04" x2="84.82" y2="209.04" xlink:href="#a"/><linearGradient id="b" x1="27.54" y1="171.74" x2="13.72" y2="171.74" gradientUnits="userSpaceOnUse"><stop offset="0" stop-color="#f2f2fa"/><stop offset="1" stop-color="#f4f5fd" stop-opacity=".3"/></linearGradient><linearGradient id="f" x1="43.08" y1="196.07" x2="14.42" y2="196.07" xlink:href="#b"/><linearGradient id="c" y1="88.26" x2="230.86" y2="88.26" gradientUnits="userSpaceOnUse"><stop offset="0" stop-color="#f7f8ff"/><stop offset="1" stop-color="#f3f3fa"/></linearGradient><linearGradient id="g" x1="14.5" y1="60.33" x2="216.36" y2="60.33" xlink:href="#a"/><mask id="h" x="200.12" y="266.75" width="83.51" height="14.3" maskUnits="userSpaceOnUse"><g style="mask:url(#c);filter:url(#k)"><path d="M213.84 281.05c-7.58 0-13.72-3.2-13.72-7.15s6.14-7.15 13.72-7.15h69.78v14.3z" style="mix-blend-mode:multiply;fill:url(#d)"/></g></mask><linearGradient id="i" x1="221.31" y1="254.52" x2="199.8" y2="254.52" gradientUnits="userSpaceOnUse"><stop offset=".23" stop-color="#dcdffb"/><stop offset=".62" stop-color="#f3f3fa"/></linearGradient><linearGradient id="j" x1="207.39" y1="164.17" x2="213.73" y2="164.17" gradientUnits="userSpaceOnUse"><stop offset="0" stop-color="#dcdffb"/><stop offset="1" stop-color="#eff0fc"/></linearGradient><linearGradient id="k" x1="210.56" y1="92.68" x2="210.56" y2="108.53" gradientUnits="userSpaceOnUse"><stop offset="0" stop-color="#bcc1e8"/><stop offset="1" stop-color="#bcc1e8" stop-opacity="0"/></linearGradient><linearGradient id="l" x1="168.95" y1="26.26" x2="259.53" y2="26.26" xlink:href="#c"/></defs><g style="isolation:isolate"><path d="M112.46 286l39.42.81a14.79 14.79 0 0 0 7.91-2.16l105.5-62.26a6.88 6.88 0 0 0-.34-12l-109.43-56.51-4.65 20.35L203.68 215z" style="fill:#3f33f0"/><path d="M230.84 220.49c-.18-2.78-2.29-5.67-6.24-8l-95.51-55.09c-7.56-4.36-19-4.83-25.54-1L4.41 213.69C1.29 215.5-.15 218 0 220.49c.18 2.78 2.29 5.67 6.24 7.95l95.52 55.09c7.56 4.36 19 4.83 25.54 1.05l99.13-57.3c3.14-1.8 4.57-4.28 4.41-6.79z" style="fill:#bcc1e8;mix-blend-mode:multiply"/><path d="M230.84 218.75V87.92l-38.77 18.83-63-36.34c-7.56-4.36-19-4.83-25.54-1l-64.71 37.36L0 87.92V218.7c.18 2.78 2.29 5.67 6.24 7.95l95.52 55.09a29.48 29.48 0 0 0 13.66 3.59 23.15 23.15 0 0 0 11.88-2.54l99.13-57.29c3.14-1.77 4.57-4.22 4.41-6.75z" style="fill:url(#a)"/><path d="M15.74 149.4l68.1 40a2 2 0 0 1 1 1.71V267a2 2 0 0 1-3 1.72l-68.1-39.51a2 2 0 0 1-1-1.72v-76.38a2 2 0 0 1 3-1.71z" style="fill:url(#e)"/><path d="M17.42 151.91l68.1 40a2 2 0 0 1 1 1.72v75.88a2 2 0 0 1-3 1.73l-68.1-39.48a2 2 0 0 1-1-1.72v-76.41a2 2 0 0 1 3-1.72z" style="fill:#fff"/><path style="fill:url(#b)" d="M13.72 178.97v8.96l13.82-30.5-3.2-1.89-10.62 23.43z"/><path style="fill:url(#f)" d="M35.1 162.13l-20.68 45.64v22.24l28.67-63.27-7.99-4.61z"/><path style="fill:none;stroke:#bcc1e8;stroke-miterlimit:10;opacity:.4;mix-blend-mode:multiply" d="M48.12 170.11v80.92"/><path d="M230.84 90.5c-.18-2.78-2.29-5.67-6.24-8l-95.51-55.04c-7.56-4.36-19-4.83-25.54-1.05L4.41 83.7C1.29 85.51-.15 88 0 90.5c.18 2.78 2.29 5.67 6.24 8l95.52 55.09c7.56 4.36 19 4.83 25.54 1.05l99.14-57.34c3.13-1.81 4.56-4.3 4.4-6.8z" style="fill:#fff"/><path d="M230.84 88.26c-.18-2.78-2.29-5.67-6.24-8l-95.51-55.04c-7.56-4.36-19-4.83-25.54-1L4.41 81.47C1.29 83.27-.15 85.72 0 88.26c.19 2.74 2.3 5.67 6.25 7.95l95.52 55.09c7.56 4.36 19 4.83 25.54 1l99.13-57.29c3.13-1.76 4.56-4.21 4.4-6.75z" style="fill:url(#c)"/><path d="M18.36 85.68L105 35.58c5.73-3.31 15.72-2.9 22.33.92l83.52 48.17A12.08 12.08 0 0 1 215.5 89a5.29 5.29 0 0 0 .85-3.21c-.16-2.44-2-5-5.46-7l-83.52-48.17c-6.61-3.81-16.6-4.22-22.33-.91L18.36 79.8c-2.74 1.58-4 3.72-3.85 6a6.27 6.27 0 0 0 .85 2.66 8.38 8.38 0 0 1 3-2.78z" style="fill:#fff"/><path d="M18.36 86.51L105 36.42c5.73-3.31 15.72-2.9 22.33.91l83.52 48.18a11.13 11.13 0 0 1 5 5.16 5.3 5.3 0 0 0 .42-2.41c-.16-2.43-2-5-5.46-7l-83.44-48.12c-6.61-3.81-16.6-4.22-22.33-.92l-86.68 50.1c-2.74 1.58-4 3.72-3.85 5.94a5.78 5.78 0 0 0 .43 1.74 7.82 7.82 0 0 1 3.42-3.49z" style="fill:url(#g)"/><path style="fill:none;stroke:#bcc1e8;stroke-linecap:round;stroke-miterlimit:10;stroke-width:2px" d="M52.73 208.26v16.78m-9.65-21.39v16.78"/><g style="mask:url(#h)"><path d="M213.84 281.05c-7.58 0-13.72-3.2-13.72-7.15s6.14-7.15 13.72-7.15h69.78v14.3z" style="fill:#3f33f0"/></g><path d="M221.31 235.17c-.69-3.1-5.21-5.5-10.7-5.5-6 0-10.81 2.83-10.81 6.33v39.54c.69 3.11 5.22 5.51 10.7 5.51 6 0 10.81-2.84 10.81-6.33z" style="fill:#bcc1e8;mix-blend-mode:multiply"/><path d="M221.31 234.34c-.69-3.1-5.21-5.5-10.7-5.5-6 0-10.81 2.83-10.81 6.32v39.55c.69 3.1 5.22 5.5 10.7 5.5 6 0 10.81-2.83 10.81-6.32z" style="fill:url(#i)"/><path d="M199.82 235c.71 3.08 5.22 5.46 10.68 5.46 5.9 0 10.68-2.76 10.8-6.2-.72-3.08-5.23-5.46-10.69-5.46-5.9.04-10.68 2.8-10.79 6.2z" style="fill:#fff"/><path d="M213.73 94.31c-.21-.92-1.54-1.63-3.16-1.63s-3.18.84-3.18 1.87V234c.2.91 1.53 1.62 3.15 1.62s3.19-.83 3.19-1.86z" style="fill:url(#j)"/><path style="opacity:.5;mix-blend-mode:multiply;fill:url(#k)" d="M213.73 92.68l-6.34.09v12.55l6.34 3.21V92.68z"/><path d="M259.53 65.86V2.69l-1.53.73L255.56 2a1.11 1.11 0 0 0-1 0l-84.09 48.73L169 50v63.17a.43.43 0 0 0 .24.31l3.73 2.15a1.11 1.11 0 0 0 .54.14.85.85 0 0 0 .46-.1l85.44-49.55a.28.28 0 0 0 .12-.26z" style="fill:#ebecfb"/><path d="M173.46 115.77a1.11 1.11 0 0 1-.54-.14l-3.73-2.15a.43.43 0 0 1-.24-.31V50l4.39 2.62z" style="fill:#fff"/><path d="M259.53 2.69a.42.42 0 0 0-.24-.32L255.56.22a1.11 1.11 0 0 0-1 0l-85.44 49.51a.29.29 0 0 0-.12.27.43.43 0 0 0 .24.31l3.73 2.15a1.11 1.11 0 0 0 1 0L259.36 3a.29.29 0 0 0 .17-.31z" style="fill:#fff"/><path d="M259.53 2.6c0-.11-.09-.22-.24-.31L255.56.14a1.11 1.11 0 0 0-1 0l-85.44 49.51a.29.29 0 0 0-.17.26.45.45 0 0 0 .24.32l3.73 2.15a1.11 1.11 0 0 0 1 0l85.44-49.51a.29.29 0 0 0 .17-.27z" style="fill:url(#l)"/><g style="mix-blend-mode:multiply"><path d="M230.84 220.49c-.18-2.78-2.29-5.67-6.24-8l-95.51-55.09c-7.56-4.36-19-4.83-25.54-1L4.41 213.69C1.29 215.5-.15 218 0 220.49c.18 2.78 2.29 5.67 6.24 7.95l95.52 55.09c7.56 4.36 19 4.83 25.54 1.05l99.13-57.3c3.14-1.8 4.57-4.28 4.41-6.79z" style="fill:#bcc1e8;mix-blend-mode:multiply"/><path d="M230.84 218.75V87.92l-38.77 18.83-63-36.34c-7.56-4.36-19-4.83-25.54-1l-64.71 37.36L0 87.92V218.7c.18 2.78 2.29 5.67 6.24 7.95l95.52 55.09a29.48 29.48 0 0 0 13.66 3.59 23.15 23.15 0 0 0 11.88-2.54l99.13-57.29c3.14-1.77 4.57-4.22 4.41-6.75z" style="fill:url(#a)"/><path d="M15.74 149.4l68.1 40a2 2 0 0 1 1 1.71V267a2 2 0 0 1-3 1.72l-68.1-39.51a2 2 0 0 1-1-1.72v-76.38a2 2 0 0 1 3-1.71z" style="fill:url(#e)"/><path d="M17.42 151.91l68.1 40a2 2 0 0 1 1 1.72v75.88a2 2 0 0 1-3 1.73l-68.1-39.48a2 2 0 0 1-1-1.72v-76.41a2 2 0 0 1 3-1.72z" style="fill:#fff"/><path style="fill:url(#b)" d="M13.72 178.97v8.96l13.82-30.5-3.2-1.89-10.62 23.43z"/><path style="fill:url(#f)" d="M35.1 162.13l-20.68 45.64v22.24l28.67-63.27-7.99-4.61z"/><path style="fill:none;stroke:#bcc1e8;stroke-miterlimit:10;opacity:.4;mix-blend-mode:multiply" d="M48.12 170.11v80.92"/><path d="M230.84 90.5c-.18-2.78-2.29-5.67-6.24-8l-95.51-55.04c-7.56-4.36-19-4.83-25.54-1.05L4.41 83.7C1.29 85.51-.15 88 0 90.5c.18 2.78 2.29 5.67 6.24 8l95.52 55.09c7.56 4.36 19 4.83 25.54 1.05l99.14-57.34c3.13-1.81 4.56-4.3 4.4-6.8z" style="fill:#fff"/><path d="M18.36 85.68L105 35.58c5.73-3.31 15.72-2.9 22.33.92l83.52 48.17A12.08 12.08 0 0 1 215.5 89a5.29 5.29 0 0 0 .85-3.21c-.16-2.44-2-5-5.46-7l-83.52-48.17c-6.61-3.81-16.6-4.22-22.33-.91L18.36 79.8c-2.74 1.58-4 3.72-3.85 6a6.27 6.27 0 0 0 .85 2.66 8.38 8.38 0 0 1 3-2.78z" style="fill:#fff"/><path d="M18.36 86.51L105 36.42c5.73-3.31 15.72-2.9 22.33.91l83.52 48.18a11.13 11.13 0 0 1 5 5.16 5.3 5.3 0 0 0 .42-2.41c-.16-2.43-2-5-5.46-7l-83.44-48.12c-6.61-3.81-16.6-4.22-22.33-.92l-86.68 50.1c-2.74 1.58-4 3.72-3.85 5.94a5.78 5.78 0 0 0 .43 1.74 7.82 7.82 0 0 1 3.42-3.49z" style="fill:url(#g)"/><path style="fill:none;stroke:#bcc1e8;stroke-linecap:round;stroke-miterlimit:10;stroke-width:2px" d="M52.73 208.26v16.78m-9.65-21.39v16.78"/><path d="M221.31 235.17c-.69-3.1-5.21-5.5-10.7-5.5-6 0-10.81 2.83-10.81 6.33v39.54c.69 3.11 5.22 5.51 10.7 5.51 6 0 10.81-2.84 10.81-6.33z" style="fill:#bcc1e8;mix-blend-mode:multiply"/><path d="M221.31 234.34c-.69-3.1-5.21-5.5-10.7-5.5-6 0-10.81 2.83-10.81 6.32v39.55c.69 3.1 5.22 5.5 10.7 5.5 6 0 10.81-2.83 10.81-6.32z" style="fill:url(#i)"/><path d="M199.82 235c.71 3.08 5.22 5.46 10.68 5.46 5.9 0 10.68-2.76 10.8-6.2-.72-3.08-5.23-5.46-10.69-5.46-5.9.04-10.68 2.8-10.79 6.2z" style="fill:#fff"/><path d="M213.73 94.31c-.21-.92-1.54-1.63-3.16-1.63s-3.18.84-3.18 1.87V234c.2.91 1.53 1.62 3.15 1.62s3.19-.83 3.19-1.86z" style="fill:#fff"/><path style="opacity:.5;mix-blend-mode:multiply;fill:url(#k)" d="M213.73 92.68l-6.34.09v12.55l6.34 3.21V92.68z"/><path d="M259.53 65.86V2.69l-1.53.73L255.56 2a1.11 1.11 0 0 0-1 0l-84.09 48.73L169 50v63.17a.43.43 0 0 0 .24.31l3.73 2.15a1.11 1.11 0 0 0 .54.14.85.85 0 0 0 .46-.1l85.44-49.55a.28.28 0 0 0 .12-.26z" style="fill:#ebecfb"/><path d="M173.46 115.77a1.11 1.11 0 0 1-.54-.14l-3.73-2.15a.43.43 0 0 1-.24-.31V50l4.39 2.62z" style="fill:#fff"/><path d="M259.53 2.69a.42.42 0 0 0-.24-.32L255.56.22a1.11 1.11 0 0 0-1 0l-85.44 49.51a.29.29 0 0 0-.12.27.43.43 0 0 0 .24.31l3.73 2.15a1.11 1.11 0 0 0 1 0L259.36 3a.29.29 0 0 0 .17-.31z" style="fill:#fff"/><path d="M259.53 2.6c0-.11-.09-.22-.24-.31L255.56.14a1.11 1.11 0 0 0-1 0l-85.44 49.51a.29.29 0 0 0-.17.26.45.45 0 0 0 .24.32l3.73 2.15a1.11 1.11 0 0 0 1 0l85.44-49.51a.29.29 0 0 0 .17-.27z" style="fill:#fff"/></g></g></svg>