<svg xmlns="http://www.w3.org/2000/svg" viewBox="0 0 296.24 74.23"><title>logo-white</title><rect x="35.8" y="9.11" width="8" height="8" style="fill:#fff"/><rect x="44.72" y="17.94" width="8" height="8" style="fill:#fff"/><rect x="44.72" y="13.02" width="8" height="4.09" style="fill:#fff"/><path d="M43.93,18.53v8h0a8,8,0,0,1-8-8h8Z" transform="translate(-0.14 -0.59)" style="fill:#fff"/><path d="M44,8.58H36a8,8,0,0,1,8-8h0Z" transform="translate(-0.14 -0.59)" style="fill:#fff"/><path d="M45,.59h8a8,8,0,0,1-8,8h0Z" transform="translate(-0.14 -0.59)" style="fill:#fff"/><path d="M26.08,8.58h-8a8,8,0,0,1,8-8h0Z" transform="translate(-0.14 -0.59)" style="fill:#fff"/><path d="M26.08,9.61v8h0a8,8,0,0,1-8-8h8Z" transform="translate(-0.14 -0.59)" style="fill:#fff"/><path d="M27,17.6v-8h0a8,8,0,0,1,8,8H27Z" transform="translate(-0.14 -0.59)" style="fill:#fff"/><path d="M27,.59h8a8,8,0,0,1-8,8h0Z" transform="translate(-0.14 -0.59)" style="fill:#fff"/><path d="M26.08,26.53h-8a8,8,0,0,1,8-8h0Z" transform="translate(-0.14 -0.59)" style="fill:#fff"/><path d="M27,18.53h8a8,8,0,0,1-8,8h0Z" transform="translate(-0.14 -0.59)" style="fill:#fff"/><rect y="18.04" width="8" height="8" style="fill:#fff"/><rect y="9.11" width="8" height="8" style="fill:#fff"/><path d="M8.14,8.58h-8a8,8,0,0,1,8-8h0Z" transform="translate(-0.14 -0.59)" style="fill:#fff"/><path d="M9.07.59h8a8,8,0,0,1-8,8h0Z" transform="translate(-0.14 -0.59)" style="fill:#fff"/><path d="M9.07,9.61h8a8,8,0,0,1-8,8h0Z" transform="translate(-0.14 -0.59)" style="fill:#fff"/><path d="M72.79,20.33a6,6,0,0,1-2.21-.43,5.89,5.89,0,0,1-1.88-1.23l1.18-1.37a5.28,5.28,0,0,0,1.39.93,3.79,3.79,0,0,0,1.55.35,2.33,2.33,0,0,0,1.48-.4,1.27,1.27,0,0,0,.5-1.05,1.32,1.32,0,0,0-.13-.59,1.49,1.49,0,0,0-.37-.43,2.86,2.86,0,0,0-.55-.33c-.21-.11-.45-.21-.7-.32l-1.56-.67a5.85,5.85,0,0,1-.82-.43,3.69,3.69,0,0,1-.74-.63,2.71,2.71,0,0,1-.72-2,2.83,2.83,0,0,1,.28-1.26,3.19,3.19,0,0,1,.79-1,3.68,3.68,0,0,1,1.2-.68A4.72,4.72,0,0,1,73,8.59,5,5,0,0,1,76.49,10l-1,1.28a5,5,0,0,0-1.14-.71A3.27,3.27,0,0,0,73,10.34a2.17,2.17,0,0,0-1.29.35,1.15,1.15,0,0,0-.49,1,1.05,1.05,0,0,0,.15.57,1.55,1.55,0,0,0,.4.41,3.16,3.16,0,0,0,.58.33l.67.29,1.54.64a5.69,5.69,0,0,1,.92.48,3.43,3.43,0,0,1,.72.64,2.65,2.65,0,0,1,.47.84,3.13,3.13,0,0,1,.18,1.1,3.08,3.08,0,0,1-1.08,2.36,4,4,0,0,1-1.29.73A5,5,0,0,1,72.79,20.33Z" transform="translate(-0.14 -0.59)" style="fill:#fff"/><path d="M79.61,20.12v-8.5h1.65l.13,1.16h.07a6.28,6.28,0,0,1,1.17-1,2.68,2.68,0,0,1,1.43-.4,2.61,2.61,0,0,1,1.5.4,2.46,2.46,0,0,1,.85,1.13,6.64,6.64,0,0,1,1.27-1.09,2.62,2.62,0,0,1,1.47-.44,2.29,2.29,0,0,1,2,.88,4.14,4.14,0,0,1,.64,2.5v5.33h-2V15.05a2.55,2.55,0,0,0-.32-1.49,1.13,1.13,0,0,0-1-.43,2.68,2.68,0,0,0-1.78,1v5.94h-2V15.05a2.63,2.63,0,0,0-.32-1.49,1.14,1.14,0,0,0-1-.43,2.68,2.68,0,0,0-1.79,1v5.94Z" transform="translate(-0.14 -0.59)" style="fill:#fff"/><path d="M97.13,20.33a2.52,2.52,0,0,1-1.82-.68,2.44,2.44,0,0,1-.69-1.81,2.55,2.55,0,0,1,.29-1.21,2.52,2.52,0,0,1,.9-.91,6.38,6.38,0,0,1,1.56-.64,14.24,14.24,0,0,1,2.25-.39,3.4,3.4,0,0,0-.09-.64,1.38,1.38,0,0,0-.26-.53,1.19,1.19,0,0,0-.48-.37,1.89,1.89,0,0,0-.72-.13,3,3,0,0,0-1.22.25,8,8,0,0,0-1.17.58L95,12.52a8.4,8.4,0,0,1,1.59-.78,5.44,5.44,0,0,1,1.91-.33,2.93,2.93,0,0,1,2.38.95,4.16,4.16,0,0,1,.79,2.72v5H100l-.14-.93h-.07a6.16,6.16,0,0,1-1.22.81A3.05,3.05,0,0,1,97.13,20.33Zm.64-1.56a1.92,1.92,0,0,0,1-.24,4.93,4.93,0,0,0,.9-.69V15.93a8.69,8.69,0,0,0-1.45.28,3.73,3.73,0,0,0-1,.39,1.38,1.38,0,0,0-.52.49,1.14,1.14,0,0,0-.16.59,1,1,0,0,0,.35.83A1.44,1.44,0,0,0,97.77,18.77Z" transform="translate(-0.14 -0.59)" style="fill:#fff"/><path d="M104.87,20.12v-8.5h1.64l.14,1.51h.07a3.66,3.66,0,0,1,1.09-1.28,2.34,2.34,0,0,1,1.32-.44,2.21,2.21,0,0,1,1,.18l-.35,1.73-.41-.11a3.18,3.18,0,0,0-.47,0,1.85,1.85,0,0,0-1.06.39,3,3,0,0,0-1,1.36v5.19Z" transform="translate(-0.14 -0.59)" style="fill:#fff"/><path d="M115.19,20.33a3.12,3.12,0,0,1-1.26-.23,2.11,2.11,0,0,1-.83-.63,2.66,2.66,0,0,1-.47-1,5.31,5.31,0,0,1-.14-1.25V13.2h-1.21V11.71l1.31-.09.24-2.32h1.67v2.32h2.16V13.2H114.5v4.05c0,1,.39,1.49,1.19,1.49a1.88,1.88,0,0,0,.46-.06,2.3,2.3,0,0,0,.42-.13l.35,1.47a6,6,0,0,1-.79.21A4,4,0,0,1,115.19,20.33Z" transform="translate(-0.14 -0.59)" style="fill:#fff"/><path d="M123.81,20.12V8.8h3.62a8.12,8.12,0,0,1,1.62.15,4,4,0,0,1,1.28.46,2.41,2.41,0,0,1,.85.86,2.68,2.68,0,0,1,.3,1.32,2.83,2.83,0,0,1-.42,1.5,2.15,2.15,0,0,1-1.16,1v.06a2.87,2.87,0,0,1,1.55.88,2.56,2.56,0,0,1,.62,1.81,3.12,3.12,0,0,1-.33,1.47,3,3,0,0,1-.91,1,4.14,4.14,0,0,1-1.38.61,6.73,6.73,0,0,1-1.73.2Zm2-6.65h1.43A2.73,2.73,0,0,0,129,13a1.43,1.43,0,0,0,.53-1.16A1.29,1.29,0,0,0,129,10.7a3.19,3.19,0,0,0-1.66-.34h-1.47Zm0,5.09h1.69a3.38,3.38,0,0,0,1.93-.46,1.57,1.57,0,0,0,.67-1.41,1.41,1.41,0,0,0-.66-1.3,3.73,3.73,0,0,0-1.94-.41h-1.69Z" transform="translate(-0.14 -0.59)" style="fill:#fff"/><path d="M137.36,20.33a2.27,2.27,0,0,1-2-.88,4.29,4.29,0,0,1-.62-2.5V11.62h2v5.07a2.62,2.62,0,0,0,.31,1.49,1.16,1.16,0,0,0,1,.43,1.75,1.75,0,0,0,1-.27,4,4,0,0,0,.91-.9V11.62h2v8.5h-1.62l-.16-1.25h-.05a4.92,4.92,0,0,1-1.2,1.06A2.87,2.87,0,0,1,137.36,20.33Z" transform="translate(-0.14 -0.59)" style="fill:#fff"/><path d="M146.33,10.13a1.25,1.25,0,0,1-.88-.31A1.05,1.05,0,0,1,145.1,9a1.09,1.09,0,0,1,.35-.83,1.25,1.25,0,0,1,.88-.32,1.3,1.3,0,0,1,.89.32,1.09,1.09,0,0,1,.34.83,1,1,0,0,1-.34.81A1.29,1.29,0,0,1,146.33,10.13Zm-1,10v-8.5h2v8.5Z" transform="translate(-0.14 -0.59)" style="fill:#fff"/><path d="M152.67,20.33a1.68,1.68,0,0,1-1.51-.64,3.08,3.08,0,0,1-.43-1.75V7.9h2V18a.72.72,0,0,0,.14.51.4.4,0,0,0,.29.15h.13l.18,0,.26,1.49A2.74,2.74,0,0,1,152.67,20.33Z" transform="translate(-0.14 -0.59)" style="fill:#fff"/><path d="M159.26,20.33a3.11,3.11,0,0,1-2.55-1.17,5.08,5.08,0,0,1-.94-3.28,5.47,5.47,0,0,1,.3-1.87,4.26,4.26,0,0,1,.81-1.4,3.37,3.37,0,0,1,1.15-.88,3,3,0,0,1,1.34-.32,2.87,2.87,0,0,1,1.23.25,5,5,0,0,1,1,.69L161.53,11V7.9h2V20.12h-1.64l-.14-.92h-.07a4.21,4.21,0,0,1-1.09.8A2.75,2.75,0,0,1,159.26,20.33Zm.49-1.65a2.35,2.35,0,0,0,1.78-.95v-4a2.89,2.89,0,0,0-.87-.56,2.55,2.55,0,0,0-.86-.15,1.71,1.71,0,0,0-1.4.73,3.27,3.27,0,0,0-.57,2.07,3.72,3.72,0,0,0,.49,2.11A1.62,1.62,0,0,0,159.75,18.68Z" transform="translate(-0.14 -0.59)" style="fill:#fff"/><path d="M167.92,10.13a1.25,1.25,0,0,1-.88-.31,1.05,1.05,0,0,1-.35-.81,1.09,1.09,0,0,1,.35-.83,1.37,1.37,0,0,1,1.76,0,1.09,1.09,0,0,1,.35.83,1.05,1.05,0,0,1-.35.81A1.25,1.25,0,0,1,167.92,10.13Zm-1,10v-8.5h2v8.5Z" transform="translate(-0.14 -0.59)" style="fill:#fff"/><path d="M172.32,20.12v-8.5H174l.14,1.14h.07a6.69,6.69,0,0,1,1.24-.95,3,3,0,0,1,1.55-.4,2.27,2.27,0,0,1,2,.88,4.29,4.29,0,0,1,.62,2.5v5.33h-2V15.05a2.64,2.64,0,0,0-.31-1.49,1.17,1.17,0,0,0-1-.43,1.78,1.78,0,0,0-1,.27,6.21,6.21,0,0,0-1,.78v5.94Z" transform="translate(-0.14 -0.59)" style="fill:#fff"/><path d="M185.84,23.88a6.88,6.88,0,0,1-1.41-.14,3.53,3.53,0,0,1-1.12-.42,2,2,0,0,1-.73-.69,1.75,1.75,0,0,1-.27-1,1.68,1.68,0,0,1,.31-1,3,3,0,0,1,.9-.83v-.07a1.7,1.7,0,0,1-.55-.55,1.64,1.64,0,0,1-.21-.86,1.53,1.53,0,0,1,.28-.91,2.77,2.77,0,0,1,.65-.67v-.07a3.06,3.06,0,0,1-.77-.91,2.64,2.64,0,0,1-.34-1.34,3,3,0,0,1,.28-1.3,2.94,2.94,0,0,1,.74-1,3.05,3.05,0,0,1,1.06-.59,4.18,4.18,0,0,1,1.28-.2,3.63,3.63,0,0,1,.67.06,4.07,4.07,0,0,1,.58.15h3.05v1.47h-1.56a1.92,1.92,0,0,1,.34.62,2.17,2.17,0,0,1,.14.82,2.91,2.91,0,0,1-.25,1.25,2.62,2.62,0,0,1-.68.9,3.13,3.13,0,0,1-1,.55,4.07,4.07,0,0,1-1.27.19,3.88,3.88,0,0,1-.57-.05,3.53,3.53,0,0,1-.59-.17,2.29,2.29,0,0,0-.3.34.91.91,0,0,0-.11.47.66.66,0,0,0,.3.57,2,2,0,0,0,1.08.21h1.51a4.44,4.44,0,0,1,2.33.49,1.76,1.76,0,0,1,.79,1.6,2.26,2.26,0,0,1-.33,1.18,2.8,2.8,0,0,1-.9,1,4.69,4.69,0,0,1-1.43.63A6.86,6.86,0,0,1,185.84,23.88Zm.31-1.3a3.06,3.06,0,0,0,1.67-.41,1.15,1.15,0,0,0,.63-1,.66.66,0,0,0-.39-.67,2.72,2.72,0,0,0-1.11-.18h-1.16a4.75,4.75,0,0,1-1.16-.12,1.43,1.43,0,0,0-.66,1.13,1,1,0,0,0,.58.89A3.39,3.39,0,0,0,186.15,22.58Zm-.21-6.41a1.38,1.38,0,0,0,1-.44,1.73,1.73,0,0,0,.43-1.27,1.74,1.74,0,0,0-.42-1.24,1.4,1.4,0,0,0-1.05-.44,1.47,1.47,0,0,0-1.05.43,1.7,1.7,0,0,0-.44,1.25,1.73,1.73,0,0,0,.44,1.27A1.4,1.4,0,0,0,185.94,16.17Z" transform="translate(-0.14 -0.59)" style="fill:#fff"/><path d="M195.12,20.33a4.61,4.61,0,0,1-1.74-.34,5.29,5.29,0,0,1-1.48-.84l.93-1.28a5,5,0,0,0,1.14.7,2.9,2.9,0,0,0,1.22.25,1.53,1.53,0,0,0,1-.28.94.94,0,0,0,.33-.74.72.72,0,0,0-.16-.46A1.43,1.43,0,0,0,196,17a4.05,4.05,0,0,0-.59-.29q-.33-.12-.66-.27a8.63,8.63,0,0,1-.85-.36,3.78,3.78,0,0,1-.77-.5,2.62,2.62,0,0,1-.55-.69,1.77,1.77,0,0,1-.22-.92,2.33,2.33,0,0,1,.83-1.84,3.41,3.41,0,0,1,2.27-.71,3.86,3.86,0,0,1,1.59.32,5.51,5.51,0,0,1,1.23.7l-.92,1.22a4.7,4.7,0,0,0-.9-.53,2.46,2.46,0,0,0-1-.2,1.4,1.4,0,0,0-.95.27.85.85,0,0,0-.3.66.7.7,0,0,0,.15.45,1.29,1.29,0,0,0,.39.32,3.69,3.69,0,0,0,.56.26l.66.24c.29.1.58.22.87.35a3.78,3.78,0,0,1,.79.5,2.35,2.35,0,0,1,.57.71,2.32,2.32,0,0,1,.22,1,2.41,2.41,0,0,1-.85,1.86,3.13,3.13,0,0,1-1,.56A4.46,4.46,0,0,1,195.12,20.33Z" transform="translate(-0.14 -0.59)" style="fill:#fff"/><path d="M.14,74.25V43.52H9.82a22.05,22.05,0,0,1,4.73.47,10.23,10.23,0,0,1,3.78,1.59,7.73,7.73,0,0,1,2.49,2.94A10,10,0,0,1,21.71,53a10.17,10.17,0,0,1-.89,4.42,8.61,8.61,0,0,1-2.47,3.12,10.25,10.25,0,0,1-3.71,1.84A17.53,17.53,0,0,1,10,63H5.59V74.25ZM5.59,58.6h4q6.77,0,6.77-5.59,0-2.91-1.77-4a9.92,9.92,0,0,0-5.19-1.1H5.59Z" transform="translate(-0.14 -0.59)" style="fill:#fff"/><path d="M36,74.82A12.16,12.16,0,0,1,31.49,74a10.6,10.6,0,0,1-3.62-2.38,10.82,10.82,0,0,1-2.42-3.78,15.16,15.16,0,0,1,0-10.18,11.65,11.65,0,0,1,2.38-3.8,10.36,10.36,0,0,1,3.41-2.4,9.61,9.61,0,0,1,3.94-.85,10.09,10.09,0,0,1,4.14.8,8.09,8.09,0,0,1,3,2.26,9.76,9.76,0,0,1,1.81,3.48,15.07,15.07,0,0,1,.61,4.41,14.31,14.31,0,0,1-.07,1.51,9.52,9.52,0,0,1-.16,1.13H29.85A7.46,7.46,0,0,0,32,69a6.57,6.57,0,0,0,4.63,1.66,8.52,8.52,0,0,0,2.8-.44A12.33,12.33,0,0,0,42,68.94l1.83,3.39a16.8,16.8,0,0,1-3.66,1.78A12.78,12.78,0,0,1,36,74.82ZM29.8,60.53H40a6.84,6.84,0,0,0-1.15-4.21,4.18,4.18,0,0,0-3.55-1.52,5.11,5.11,0,0,0-3.61,1.45A6.88,6.88,0,0,0,29.8,60.53Z" transform="translate(-0.14 -0.59)" style="fill:#fff"/><path d="M50,74.25V51.18h4.46l.38,4.09H55a9.61,9.61,0,0,1,3-3.46,6.5,6.5,0,0,1,6.2-.73l-.94,4.7a10.3,10.3,0,0,0-1.13-.28,7.46,7.46,0,0,0-1.27-.09A5.05,5.05,0,0,0,58,56.46a8.17,8.17,0,0,0-2.59,3.69v14.1Z" transform="translate(-0.14 -0.59)" style="fill:#fff"/><path d="M68.57,74.25V55.45h-3.1v-4l3.1-.23v-2.4A12.45,12.45,0,0,1,69,45.47a6.92,6.92,0,0,1,1.37-2.64,6.37,6.37,0,0,1,2.37-1.71,8.88,8.88,0,0,1,3.5-.61,11.65,11.65,0,0,1,2.33.23,11.1,11.1,0,0,1,1.9.57l-1,4a6.14,6.14,0,0,0-2.54-.56q-2.91,0-2.91,3.9v2.49h4.51v4.27H74v18.8Z" transform="translate(-0.14 -0.59)" style="fill:#fff"/><path d="M92,74.82A12.15,12.15,0,0,1,87.56,74a10.51,10.51,0,0,1-3.62-2.38,10.82,10.82,0,0,1-2.42-3.78,15.16,15.16,0,0,1,0-10.18,11.65,11.65,0,0,1,2.38-3.8,10.32,10.32,0,0,1,3.4-2.4,9.69,9.69,0,0,1,4-.85,10.09,10.09,0,0,1,4.14.8,8.17,8.17,0,0,1,3,2.26,9.76,9.76,0,0,1,1.81,3.48,15.07,15.07,0,0,1,.61,4.41,14.31,14.31,0,0,1-.07,1.51,9.52,9.52,0,0,1-.16,1.13H85.91A7.52,7.52,0,0,0,88.1,69a6.57,6.57,0,0,0,4.63,1.66,8.52,8.52,0,0,0,2.8-.44,12.33,12.33,0,0,0,2.56-1.25l1.83,3.39a16.66,16.66,0,0,1-3.67,1.78A12.69,12.69,0,0,1,92,74.82ZM85.87,60.53H96.11A6.84,6.84,0,0,0,95,56.32a4.18,4.18,0,0,0-3.55-1.52,5.13,5.13,0,0,0-3.62,1.45A6.93,6.93,0,0,0,85.87,60.53Z" transform="translate(-0.14 -0.59)" style="fill:#fff"/><path d="M115.71,74.82a12,12,0,0,1-4.39-.8,9.84,9.84,0,0,1-3.55-2.35,10.86,10.86,0,0,1-2.35-3.81,14.58,14.58,0,0,1-.85-5.12,13.31,13.31,0,0,1,.94-5.12,11.31,11.31,0,0,1,2.54-3.81,11.06,11.06,0,0,1,3.69-2.37,11.85,11.85,0,0,1,4.39-.83,9,9,0,0,1,3.88.76,12.47,12.47,0,0,1,2.89,1.83l-2.63,3.52a9,9,0,0,0-1.86-1.24,4.44,4.44,0,0,0-2-.45,5.66,5.66,0,0,0-4.56,2.09,8.53,8.53,0,0,0-1.74,5.62,8.52,8.52,0,0,0,1.71,5.57,5.51,5.51,0,0,0,4.45,2.09,5.79,5.79,0,0,0,2.56-.59A11.21,11.21,0,0,0,121,68.43L123.23,72a11.63,11.63,0,0,1-7.52,2.82Z" transform="translate(-0.14 -0.59)" style="fill:#fff"/><path d="M135.55,74.82a8.56,8.56,0,0,1-3.41-.61,5.75,5.75,0,0,1-2.26-1.72,7.08,7.08,0,0,1-1.27-2.63,13.76,13.76,0,0,1-.4-3.41v-11h-3.29v-4l3.58-.23.65-6.3h4.52v6.3h5.87v4.27h-5.87v11c0,2.7,1.08,4,3.24,4a5.3,5.3,0,0,0,1.24-.14,6.07,6.07,0,0,0,1.16-.37l.94,4a17.56,17.56,0,0,1-2.14.59A12.34,12.34,0,0,1,135.55,74.82Z" transform="translate(-0.14 -0.59)" style="fill:#fff"/><path d="M166.71,74.82a14.34,14.34,0,0,1-5.46-1,12.07,12.07,0,0,1-4.39-3,14.74,14.74,0,0,1-2.94-5A19.71,19.71,0,0,1,152.84,59a19.5,19.5,0,0,1,1.1-6.75,15.24,15.24,0,0,1,3-5A12.72,12.72,0,0,1,161.42,44,13.94,13.94,0,0,1,166.89,43a10.92,10.92,0,0,1,5.17,1.18,13.67,13.67,0,0,1,3.72,2.72l-2.92,3.53a10.25,10.25,0,0,0-2.63-2,6.8,6.8,0,0,0-3.2-.73,7.79,7.79,0,0,0-3.45.77,8.15,8.15,0,0,0-2.73,2.21,10.59,10.59,0,0,0-1.78,3.5,16,16,0,0,0-.64,4.66q0,5.27,2.28,8.25a7.36,7.36,0,0,0,6.18,3,7.57,7.57,0,0,0,3.67-.87,11.45,11.45,0,0,0,2.91-2.28l2.92,3.43a13.35,13.35,0,0,1-4.3,3.32A12.5,12.5,0,0,1,166.71,74.82Z" transform="translate(-0.14 -0.59)" style="fill:#fff"/><path d="M178.22,64.38V60.44h11.19v3.94Z" transform="translate(-0.14 -0.59)" style="fill:#fff"/><path d="M203.32,74.82a16,16,0,0,1-11.09-4.51l3.19-3.72a13.62,13.62,0,0,0,3.76,2.52,10.16,10.16,0,0,0,4.23,1,6.34,6.34,0,0,0,4-1.08,3.48,3.48,0,0,0,1.36-2.87,3.37,3.37,0,0,0-.35-1.59,3.76,3.76,0,0,0-1-1.16,8.17,8.17,0,0,0-1.5-.91c-.58-.29-1.22-.57-1.91-.85l-4.23-1.83a15.48,15.48,0,0,1-2.23-1.18,9.75,9.75,0,0,1-2-1.69,7.66,7.66,0,0,1-2-5.31,7.59,7.59,0,0,1,.78-3.41,8.71,8.71,0,0,1,2.13-2.75,10,10,0,0,1,3.27-1.83,12.64,12.64,0,0,1,4.16-.66A13,13,0,0,1,209.1,44a13.28,13.28,0,0,1,4.28,2.84l-2.78,3.48a13.7,13.7,0,0,0-3.1-1.93,8.72,8.72,0,0,0-3.57-.7,5.88,5.88,0,0,0-3.53,1,3.13,3.13,0,0,0-1.31,2.66,2.82,2.82,0,0,0,.4,1.53A3.94,3.94,0,0,0,200.57,54a9,9,0,0,0,1.57.9c.6.26,1.21.52,1.84.77l4.18,1.74a14.66,14.66,0,0,1,2.49,1.32,9.06,9.06,0,0,1,1.95,1.74,7.27,7.27,0,0,1,1.29,2.28,8.51,8.51,0,0,1,.47,3,8.36,8.36,0,0,1-.75,3.52,8.5,8.5,0,0,1-2.18,2.9,10.89,10.89,0,0,1-3.48,2A13.63,13.63,0,0,1,203.32,74.82Z" transform="translate(-0.14 -0.59)" style="fill:#fff"/><path d="M226.49,74.82a8.59,8.59,0,0,1-3.41-.61,5.79,5.79,0,0,1-2.25-1.72,6.93,6.93,0,0,1-1.27-2.63,13.3,13.3,0,0,1-.4-3.41v-11h-3.29v-4l3.57-.23.66-6.3h4.51v6.3h5.88v4.27h-5.88v11c0,2.7,1.08,4,3.24,4a5.38,5.38,0,0,0,1.25-.14,6.2,6.2,0,0,0,1.15-.37l.94,4a17.56,17.56,0,0,1-2.14.59A12.27,12.27,0,0,1,226.49,74.82Z" transform="translate(-0.14 -0.59)" style="fill:#fff"/><path d="M244.12,74.82A11,11,0,0,1,240,74a10.28,10.28,0,0,1-3.5-2.35,11.15,11.15,0,0,1-2.42-3.81,15,15,0,0,1,0-10.24,11.05,11.05,0,0,1,2.42-3.81,10.48,10.48,0,0,1,3.5-2.37,10.63,10.63,0,0,1,4.14-.83,10.84,10.84,0,0,1,4.16.83,10.29,10.29,0,0,1,3.5,2.37,11.68,11.68,0,0,1,2.42,3.81,14.86,14.86,0,0,1,0,10.24,11.78,11.78,0,0,1-2.42,3.81,10.09,10.09,0,0,1-3.5,2.35A11.19,11.19,0,0,1,244.12,74.82Zm0-4.42a4.61,4.61,0,0,0,4-2.09,9.57,9.57,0,0,0,1.46-5.57,9.69,9.69,0,0,0-1.46-5.62,4.84,4.84,0,0,0-8,0,9.85,9.85,0,0,0-1.43,5.62,9.72,9.72,0,0,0,1.43,5.57A4.57,4.57,0,0,0,244.12,70.4Z" transform="translate(-0.14 -0.59)" style="fill:#fff"/><path d="M260.57,74.25V51.18H265l.38,4.09h.18a9.73,9.73,0,0,1,3-3.46,6.5,6.5,0,0,1,6.2-.73l-.94,4.7a10.3,10.3,0,0,0-1.13-.28,7.54,7.54,0,0,0-1.27-.09,5,5,0,0,0-2.86,1.05A8.17,8.17,0,0,0,266,60.15v14.1Z" transform="translate(-0.14 -0.59)" style="fill:#fff"/><path d="M287.59,74.82a12.16,12.16,0,0,1-4.47-.82,10.61,10.61,0,0,1-6-6.16,14,14,0,0,1-.87-5.1,13.64,13.64,0,0,1,.89-5.08,11.47,11.47,0,0,1,2.37-3.8,10.36,10.36,0,0,1,3.41-2.4,9.62,9.62,0,0,1,3.95-.85,10.08,10.08,0,0,1,4.13.8,8.21,8.21,0,0,1,3,2.26,9.93,9.93,0,0,1,1.81,3.48,15.41,15.41,0,0,1,.61,4.41,14.31,14.31,0,0,1-.07,1.51,9.23,9.23,0,0,1-.17,1.13H281.48A7.47,7.47,0,0,0,283.67,69a6.53,6.53,0,0,0,4.62,1.66,8.43,8.43,0,0,0,2.8-.44,12.09,12.09,0,0,0,2.56-1.25l1.84,3.39a16.66,16.66,0,0,1-3.67,1.78A12.78,12.78,0,0,1,287.59,74.82Zm-6.16-14.29h10.25a6.9,6.9,0,0,0-1.15-4.21A4.18,4.18,0,0,0,287,54.8a5.11,5.11,0,0,0-3.62,1.45A6.93,6.93,0,0,0,281.43,60.53Z" transform="translate(-0.14 -0.59)" style="fill:#fff"/></svg>
