<svg xmlns="http://www.w3.org/2000/svg" viewBox="0 0 300 75"><title>logo-color</title><path d="M22.71,55.35c0,4.74-2.89,9.36-9.44,9.36H7.32v10.1H1.49V45.91H13.27C19.82,45.91,22.71,50.61,22.71,55.35Zm-5.87,0c0-2.1-1.05-4.28-3.78-4.28H7.32v8.52H13C15.79,59.59,16.84,57.41,16.84,55.35Z" style="fill:#0e1934"/><path d="M45.07,66.8H30.3c.59,2.27,2.44,3.53,5.08,3.53a6.76,6.76,0,0,0,5.11-2.19l3.23,3.24c-1.84,2.47-5.28,3.81-8.72,3.81-6,0-10.4-4.11-10.4-10.15,0-6.33,4.78-10.28,10.4-10.28s10.15,4,10.15,9.95C45.15,65.25,45.11,65.92,45.07,66.8Zm-5.41-3.56c-.17-2.31-2.1-3.69-4.58-3.69a4.5,4.5,0,0,0-4.78,3.69Z" style="fill:#0e1934"/><path d="M63.69,55.39l-1.26,5.25a5.71,5.71,0,0,0-2.81-.72c-2.81,0-4.74,2.6-4.74,8.18v6.71H49.39V55.27h5.45v4.15c1.09-3.27,3.31-4.66,5.75-4.66A7,7,0,0,1,63.69,55.39Z" style="fill:#0e1934"/><path d="M74.09,54v1.26h4.28V59.5H74.09V74.81H68.6V59.5H64.9V55.27h3.7V54.05c0-5.87,3-9.23,8.6-9.23h2.34v5.12H78.29C75.14,49.94,74.13,51.66,74.09,54Z" style="fill:#0e1934"/><path d="M100.85,66.8H86.09c.58,2.27,2.43,3.53,5.07,3.53a6.79,6.79,0,0,0,5.12-2.19l3.23,3.24c-1.85,2.47-5.29,3.81-8.73,3.81-6,0-10.4-4.11-10.4-10.15,0-6.33,4.78-10.28,10.4-10.28s10.16,4,10.16,9.95C100.94,65.25,100.89,65.92,100.85,66.8Zm-5.41-3.56c-.17-2.31-2.1-3.69-4.57-3.69a4.5,4.5,0,0,0-4.78,3.69Z" style="fill:#0e1934"/><path d="M104,65c0-6.21,5-10.2,10.74-10.2A10,10,0,0,1,123,59l-4.11,2.89a5.22,5.22,0,0,0-4.12-2,5.1,5.1,0,1,0,0,10.2,5.2,5.2,0,0,0,4.12-2L123,71a9.93,9.93,0,0,1-8.27,4.19C109,75.19,104,71.17,104,65Z" style="fill:#0e1934"/><path d="M138.43,59.5h-4.15V74.81h-5.49V59.5h-3.57V55.27h3.57V48.09h5.49v7.18h4.15Z" style="fill:#0e1934"/><path d="M151,60.34a14.69,14.69,0,0,1,14.68-14.76,14.36,14.36,0,0,1,11.79,6L173,54.81a8.48,8.48,0,0,0-7.13-3.74,9.32,9.32,0,0,0,0,18.63A8.44,8.44,0,0,0,173,65.92l4.45,3.27a14.47,14.47,0,0,1-11.79,6A14.71,14.71,0,0,1,151,60.34Z" style="fill:#0e1934"/><path d="M180.92,62.36h14.77v4.86H180.92Z" style="fill:#0e1934"/><path d="M200.13,66.3H206c0,2.1,2.06,3.82,4.74,3.82s4.32-1.35,4.32-3.4c0-1.59-1.17-2.73-3.65-3.48l-3.52-1c-6.33-1.68-7.47-5.49-7.47-8.1,0-5.15,4.45-8.59,10-8.59s9.64,3.31,9.64,8.8h-5.83c0-2.05-1.42-3.64-3.94-3.64-2.27,0-4,1.38-4,3.31,0,.71.21,2.22,3.23,3.06l3.23.92c4.36,1.22,8.17,3.53,8.17,8.44,0,5.74-4.9,8.76-10.36,8.76C204.37,75.19,200.13,71.42,200.13,66.3Z" style="fill:#0e1934"/><path d="M236.5,59.5h-4.15V74.81h-5.5V59.5h-3.57V55.27h3.57V48.09h5.5v7.18h4.15Z" style="fill:#0e1934"/><path d="M238.47,65c0-6.21,4.95-10.24,10.53-10.24s10.53,4,10.53,10.24S254.58,75.19,249,75.19,238.47,71.17,238.47,65ZM254,65A5,5,0,1,0,249,70.08,4.9,4.9,0,0,0,254,65Z" style="fill:#0e1934"/><path d="M278.15,55.39l-1.26,5.25a5.71,5.71,0,0,0-2.81-.72c-2.81,0-4.74,2.6-4.74,8.18v6.71h-5.5V55.27h5.46v4.15c1.09-3.27,3.31-4.66,5.74-4.66A7,7,0,0,1,278.15,55.39Z" style="fill:#0e1934"/><path d="M299.92,66.8H285.15c.59,2.27,2.44,3.53,5.08,3.53a6.76,6.76,0,0,0,5.11-2.19l3.23,3.24c-1.84,2.47-5.28,3.81-8.72,3.81-6,0-10.4-4.11-10.4-10.15,0-6.33,4.78-10.28,10.4-10.28s10.15,4,10.15,9.95C300,65.25,300,65.92,299.92,66.8Zm-5.41-3.56c-.17-2.31-2.1-3.69-4.58-3.69a4.5,4.5,0,0,0-4.78,3.69Z" style="fill:#0e1934"/><rect x="29.59" y="8.04" width="6.59" height="6.59" style="fill:#5e67ff"/><rect x="36.94" y="15.32" width="6.59" height="6.59" style="fill:#5e67ff"/><rect x="36.94" y="11.26" width="6.59" height="3.37" style="fill:#4b3efb"/><path d="M36.17,15.32V21.9h0a6.59,6.59,0,0,1-6.58-6.58h6.58Z" style="fill:#4b3efb"/><path d="M36.25,7.12H29.66A6.59,6.59,0,0,1,36.25.54h0Z" style="fill:#4b3efb"/><path d="M37,.54H43.6A6.59,6.59,0,0,1,37,7.12h0Z" style="fill:#5e67ff"/><path d="M21.47,7.12H14.88A6.59,6.59,0,0,1,21.47.54h0Z" style="fill:#4b3efb"/><path d="M21.47,8v6.59h0A6.59,6.59,0,0,1,14.88,8h6.59Z" style="fill:#5e67ff"/><path d="M22.24,14.55V8h0a6.59,6.59,0,0,1,6.58,6.59H22.24Z" style="fill:#4b3efb"/><path d="M22.24.54h6.58a6.59,6.59,0,0,1-6.58,6.58h0Z" style="fill:#5e67ff"/><path d="M21.47,21.9H14.88a6.59,6.59,0,0,1,6.59-6.58h0Z" style="fill:#4b3efb"/><path d="M22.24,15.32h6.58a6.59,6.59,0,0,1-6.58,6.58h0Z" style="fill:#5e67ff"/><rect x="0.1" y="15.39" width="6.59" height="6.59" style="fill:#4b3efb"/><rect x="0.1" y="8.04" width="6.59" height="6.59" style="fill:#5e67ff"/><path d="M6.69,7.12H.1A6.59,6.59,0,0,1,6.69.54h0Z" style="fill:#4b3efb"/><path d="M7.46.54H14A6.59,6.59,0,0,1,7.46,7.12h0Z" style="fill:#5e67ff"/><path d="M7.46,8H14a6.59,6.59,0,0,1-6.58,6.59h0Z" style="fill:#4b3efb"/><path d="M57.74,15.41H59.9a2.79,2.79,0,0,0,3,2.46c1.74,0,2.76-1.06,2.76-2.26s-1.17-1.91-2.35-2.23l-1.87-.46c-3.11-.79-3.62-2.63-3.62-3.84,0-2.56,2.27-4.19,4.85-4.19s4.68,1.65,4.68,4.3H65.21A2.63,2.63,0,0,0,60,9c0,.47.15,1.44,2,1.91l1.85.46c2.45.62,4,1.95,4,4.09,0,2.44-2,4.36-4.94,4.36C59.81,19.86,57.74,17.76,57.74,15.41Z" style="fill:#4b3efb"/><path d="M85.94,14v5.65h-2.1V14.14c0-1.63-.85-2.58-2.18-2.58A2.44,2.44,0,0,0,79.18,14v5.63h-2.1V14.12c0-1.63-.84-2.56-2.07-2.56a2.52,2.52,0,0,0-2.61,2.8v5.29H70.33V9.76H72.4v1.57a3.28,3.28,0,0,1,3.1-1.78,3.4,3.4,0,0,1,3.21,2,3.72,3.72,0,0,1,3.41-2C84.6,9.55,85.94,11.18,85.94,14Z" style="fill:#4b3efb"/><path d="M98.67,9.76v9.89H96.6V18.17a3.94,3.94,0,0,1-3.41,1.69,4.88,4.88,0,0,1-4.91-5.16,4.85,4.85,0,0,1,4.89-5.15,3.89,3.89,0,0,1,3.43,1.67V9.76Zm-2.09,4.91a3.13,3.13,0,0,0-3.16-3.15,3,3,0,0,0-3.07,3.15,3.12,3.12,0,1,0,6.23,0Z" style="fill:#4b3efb"/><path d="M108.33,9.91l-.36,2a3.46,3.46,0,0,0-1.47-.34c-1.8,0-2.64,1.88-2.64,4.55v3.56h-2.1V9.76h2.1V12c.51-1.74,1.5-2.44,2.77-2.44A3.84,3.84,0,0,1,108.33,9.91Z" style="fill:#4b3efb"/><path d="M115.1,11.5H113v8.15h-2.07V11.5h-1.78V9.76h1.78V6.06H113v3.7h2.12Z" style="fill:#4b3efb"/><path d="M133.11,15.52a4.1,4.1,0,0,1-4.34,4.13h-6V5.06h5.54c2.48,0,4,1.48,4,3.75a3.06,3.06,0,0,1-1.86,3.07A3.57,3.57,0,0,1,133.11,15.52Zm-8.17-8.47v4h3.36a1.8,1.8,0,0,0,1.85-2,1.8,1.8,0,0,0-1.89-2Zm6,8.26a2.3,2.3,0,0,0-2.48-2.37h-3.51v4.72h3.41A2.33,2.33,0,0,0,130.93,15.31Z" style="fill:#4b3efb"/><path d="M144.84,9.76v9.89h-2.08v-1.5a3.66,3.66,0,0,1-3.19,1.71c-2.5,0-4-1.63-4-4.45V9.76h2.08v5.51a2.26,2.26,0,0,0,2.24,2.54,2.65,2.65,0,0,0,2.86-2.76V9.76Z" style="fill:#4b3efb"/><path d="M147.54,6.16a1.42,1.42,0,0,1,2.84,0,1.42,1.42,0,0,1-2.84,0Zm.38,3.6H150v9.89h-2.08Z" style="fill:#4b3efb"/><path d="M153.11,4.4h2.08V19.65h-2.08Z" style="fill:#4b3efb"/><path d="M168.08,4.4V19.65H166V18.17a3.93,3.93,0,0,1-3.41,1.69,4.88,4.88,0,0,1-4.91-5.16,4.85,4.85,0,0,1,4.89-5.15A3.88,3.88,0,0,1,166,11.22V4.4ZM166,14.67a3.12,3.12,0,0,0-3.15-3.15,3,3,0,0,0-3.07,3.15,3.11,3.11,0,1,0,6.22,0Z" style="fill:#4b3efb"/><path d="M170.78,6.16a1.42,1.42,0,0,1,2.84,0,1.42,1.42,0,0,1-2.84,0Zm.38,3.6h2.08v9.89h-2.08Z" style="fill:#4b3efb"/><path d="M185.6,14v5.65h-2.07V14.14a2.27,2.27,0,0,0-2.25-2.54,2.66,2.66,0,0,0-2.86,2.78v5.27h-2.07V9.76h2.07v1.53a3.69,3.69,0,0,1,3.22-1.74C184.14,9.55,185.62,11.18,185.6,14Z" style="fill:#4b3efb"/><path d="M198.34,9.76v8.41c0,4.59-2.11,6.41-5.44,6.41a5.06,5.06,0,0,1-4.53-2.73l1.76-.87a3.18,3.18,0,0,0,2.77,1.68c2.08,0,3.37-1.19,3.37-4.32v-.13a4.07,4.07,0,0,1-3.41,1.65A4.88,4.88,0,0,1,188,14.7a4.85,4.85,0,0,1,4.89-5.15,4,4,0,0,1,3.43,1.65V9.76Zm-2.09,4.91a3.13,3.13,0,0,0-3.16-3.15A3,3,0,0,0,190,14.67a3.12,3.12,0,1,0,6.23,0Z" style="fill:#4b3efb"/><path d="M200.71,16.64h1.93c0,.79.7,1.46,1.82,1.46s1.84-.53,1.84-1.27-.53-1-1.27-1.16l-1.33-.32c-1.85-.49-2.69-1.44-2.69-2.9s1.46-2.9,3.51-2.9c1.7,0,3.52.89,3.52,3h-2a1.38,1.38,0,0,0-1.49-1.2,1.31,1.31,0,0,0-1.46,1.2c0,.62.57,1,1.19,1.1l1.5.37c2.12.52,2.59,1.84,2.59,2.9,0,1.88-1.87,3-3.9,3A3.51,3.51,0,0,1,200.71,16.64Z" style="fill:#4b3efb"/></svg>