<?xml version="1.0" encoding="utf-8"?>
<!-- Generator: Adobe Illustrator 23.0.1, SVG Export Plug-In . SVG Version: 6.00 Build 0)  -->
<svg version="1.1" id="Layer_1" xmlns="http://www.w3.org/2000/svg" xmlns:xlink="http://www.w3.org/1999/xlink" x="0px" y="0px"
	 viewBox="0 0 171.6 42.7" style="enable-background:new 0 0 171.6 42.7;" xml:space="preserve">
<style type="text/css">
	.st0{fill:#FFFFFF;}
	.st1{opacity:0.3;}
</style>
<title>logo</title>
<g>
	<path class="st0" d="M12.9,31.4c0.2,2.8-2,5.2-4.8,5.4c-0.2,0-0.4,0-0.7,0H4.1v5.8H0.8V26h6.7c2.8-0.2,5.2,2,5.4,4.8
		C12.9,31,12.9,31.2,12.9,31.4z M9.6,31.4c0.1-1.2-0.7-2.3-1.9-2.4c-0.1,0-0.2,0-0.3,0H4.1v4.9h3.2c1.2,0,2.2-0.9,2.2-2.1
		C9.6,31.5,9.6,31.5,9.6,31.4z"/>
	<path class="st0" d="M25.7,37.9h-8.4c0.3,1.3,1.6,2.1,2.9,2c1.1,0,2.2-0.4,2.9-1.2l1.9,1.9c-1.2,1.5-3.1,2.3-5,2.2
		c-3.1,0.2-5.8-2.2-6-5.3c0-0.2,0-0.3,0-0.5c-0.1-3.2,2.4-5.8,5.5-5.9c0.2,0,0.3,0,0.5,0c3.1-0.1,5.7,2.3,5.8,5.3c0,0.1,0,0.2,0,0.4
		C25.8,37,25.8,37.4,25.7,37.9z M22.6,35.9c-0.1-1.3-1.3-2.3-2.6-2.2c0,0,0,0-0.1,0c-1.3-0.1-2.5,0.8-2.7,2.1L22.6,35.9z"/>
	<path class="st0" d="M36.4,31.4l-0.7,3c-0.5-0.3-1-0.4-1.6-0.4c-1.6,0-2.7,1.5-2.7,4.7v3.8h-3.1V31.3h3.1v2.4
		c0.3-1.6,1.7-2.7,3.3-2.7C35.2,31,35.8,31.1,36.4,31.4z"/>
	<path class="st0" d="M42.3,30.6v0.7h2.5v2.4h-2.5v8.8h-3.1v-8.8h-2.1v-2.4h2.1v-0.7c0-3.4,1.7-5.3,4.9-5.3h1.3v2.9h-0.7
		c-1.1-0.2-2.2,0.6-2.4,1.8C42.3,30.2,42.3,30.4,42.3,30.6z"/>
	<path class="st0" d="M57.7,37.9h-8.5c0.3,1.3,1.6,2.1,2.9,2c1.1,0,2.2-0.4,2.9-1.2l1.8,1.8c-1.2,1.5-3.1,2.3-5,2.2
		c-3.1,0.2-5.8-2.2-6-5.3c0-0.2,0-0.3,0-0.5c-0.1-3.2,2.4-5.8,5.6-5.9c0.1,0,0.3,0,0.4,0c3.1-0.1,5.7,2.3,5.8,5.3c0,0.1,0,0.2,0,0.4
		C57.7,37,57.7,37.4,57.7,37.9z M54.6,35.9c-0.1-1.3-1.3-2.3-2.6-2.1c0,0,0,0,0,0c-1.3-0.1-2.5,0.8-2.7,2.1H54.6z"/>
	<path class="st0" d="M59.4,36.9c0-3.2,2.6-5.9,5.9-5.9c0.1,0,0.2,0,0.3,0c1.9,0,3.6,0.9,4.7,2.4l-2.3,1.7c-0.6-0.7-1.4-1.1-2.4-1.1
		c-1.6-0.1-3,1.1-3.1,2.7c-0.1,1.6,1.1,3,2.7,3.1c0.1,0,0.2,0,0.3,0c0.9,0,1.8-0.4,2.3-1.1l2.3,1.7c-1.1,1.5-2.8,2.4-4.7,2.4
		c-3.2,0.1-6-2.4-6.1-5.6C59.4,37,59.4,37,59.4,36.9z"/>
	<path class="st0" d="M79.2,33.7h-2.4v8.8h-3.1v-8.8h-2v-2.4h2v-4.1h3.1v4.1h2.4L79.2,33.7z"/>
	<path class="st0" d="M86.3,34.2c0-4.6,3.7-8.4,8.4-8.4c0,0,0,0,0,0c2.7,0,5.2,1.3,6.7,3.4l-2.5,1.9c-0.9-1.3-2.4-2.1-4.1-2.1
		c-2.9,0.1-5.2,2.6-5.1,5.6c0.1,2.8,2.3,5,5.1,5.1c1.6,0,3.2-0.8,4.1-2.2l2.5,1.9c-1.6,2.2-4.1,3.4-6.7,3.4c-4.7,0-8.4-3.7-8.4-8.4
		C86.3,34.3,86.3,34.3,86.3,34.2z"/>
	<path class="st0" d="M103.5,35.4h8.4v2.8h-8.4V35.4z"/>
	<path class="st0" d="M114.4,37.6h3.3c0.2,1.3,1.4,2.3,2.7,2.2c1.5,0,2.5-0.8,2.5-1.9c0-0.9-0.7-1.6-2.1-2l-2-0.6
		c-3.6-1-4.3-3.1-4.3-4.6c0-3,2.5-4.9,5.7-4.9s5.5,1.9,5.5,5h-3.3c-0.2-1.3-1.3-2.1-2.6-1.9c-1,0.1-1.7,0.9-1.9,1.8
		c0,0.4,0.1,1.3,1.8,1.7l1.8,0.5c2.5,0.7,4.7,2,4.7,4.8c0,3.3-2.8,5-5.9,5C116.9,42.7,114.4,40.6,114.4,37.6z"/>
	<path class="st0" d="M135.3,33.7h-2.4v8.8h-3.1v-8.8h-2v-2.4h2v-4.1h3.1v4.1h2.4V33.7z"/>
	<path class="st0" d="M136.4,36.9c-0.1-3.3,2.5-6.1,5.8-6.2s6.1,2.5,6.2,5.8s-2.5,6.1-5.8,6.2c-0.1,0-0.1,0-0.2,0
		c-3.2,0.1-5.9-2.4-6-5.6C136.4,37,136.4,36.9,136.4,36.9z M145.2,36.9c0-1.6-1.3-2.8-2.9-2.8c-1.6,0-2.8,1.3-2.8,2.9
		c0,1.5,1.3,2.8,2.8,2.8c1.5,0,2.8-1.2,2.8-2.8C145.3,37,145.3,36.9,145.2,36.9z"/>
	<path class="st0" d="M159.1,31.4l-0.7,3c-0.5-0.3-1-0.4-1.6-0.4c-1.6,0-2.7,1.5-2.7,4.7v3.8h-3.1V31.3h3.1v2.4
		c0.3-1.6,1.7-2.7,3.3-2.7C157.9,31,158.5,31.1,159.1,31.4z"/>
	<path class="st0" d="M171.6,37.9h-8.4c0.4,1.3,1.6,2.1,2.9,2c1.1,0,2.2-0.4,2.9-1.2l1.9,1.8c-1.2,1.5-3.1,2.3-5,2.2
		c-3.1,0.2-5.8-2.2-5.9-5.3c0-0.2,0-0.3,0-0.5c-0.1-3.2,2.4-5.8,5.5-5.9c0.1,0,0.3,0,0.4,0c3.1-0.1,5.7,2.3,5.8,5.3
		c0,0.1,0,0.2,0,0.3C171.6,37,171.6,37.4,171.6,37.9z M168.4,35.9c-0.1-1.3-1.3-2.3-2.6-2.1c-1.3-0.1-2.5,0.8-2.7,2.1H168.4z"/>
	<g class="st1">
		<rect x="16.9" y="4.3" class="st0" width="3.8" height="3.8"/>
		<rect x="21.1" y="8.5" class="st0" width="3.8" height="3.8"/>
		<rect x="21.1" y="6.1" class="st0" width="3.8" height="1.9"/>
		<path class="st0" d="M20.6,8.5v3.8l0,0c-2.1,0-3.8-1.7-3.8-3.8v0C16.9,8.5,20.6,8.5,20.6,8.5z"/>
		<path class="st0" d="M20.7,3.8h-3.8c0-2.1,1.7-3.8,3.8-3.8c0,0,0,0,0,0l0,0V3.8z"/>
		<path class="st0" d="M21.1,0h3.8c0,2.1-1.7,3.8-3.8,3.8l0,0l0,0V0z"/>
		<path class="st0" d="M12.2,3.8H8.5c0-2.1,1.7-3.8,3.8-3.8l0,0V3.8z"/>
		<path class="st0" d="M12.2,4.2V8l0,0c-2.1,0-3.8-1.7-3.8-3.8H12.2z"/>
		<path class="st0" d="M12.7,8V4.2l0,0c2.1,0,3.8,1.7,3.8,3.8H12.7z"/>
		<path class="st0" d="M12.7,0h3.8c0,2.1-1.7,3.8-3.8,3.8l0,0l0,0V0z"/>
		<path class="st0" d="M12.2,12.2H8.5c0-2.1,1.7-3.8,3.7-3.8c0,0,0,0,0,0l0,0V12.2z"/>
		<path class="st0" d="M12.7,8.5h3.8c0,2.1-1.7,3.8-3.8,3.8l0,0V8.5z"/>
		<rect y="8.5" class="st0" width="3.8" height="3.8"/>
		<rect y="4.3" class="st0" width="3.8" height="3.8"/>
		<path class="st0" d="M3.8,3.8H0C0,1.7,1.7,0,3.8,0l0,0V3.8z"/>
		<path class="st0" d="M4.2,0H8c0,2.1-1.7,3.8-3.8,3.8c0,0,0,0,0,0l0,0V0z"/>
		<path class="st0" d="M4.2,4.2H8C8,6.3,6.3,8,4.2,8c0,0,0,0,0,0l0,0V4.2z"/>
		<path class="st0" d="M33,8.5h1.2c0.1,0.9,0.9,1.5,1.7,1.4c0.8,0.1,1.5-0.4,1.6-1.2c0,0,0-0.1,0-0.1c0-0.7-0.7-1.1-1.3-1.3
			l-1.1-0.3C33.3,6.6,33,5.6,33,4.9c0.1-1.4,1.3-2.5,2.7-2.4c0,0,0.1,0,0.1,0c1.4-0.1,2.6,0.8,2.7,2.2c0,0.1,0,0.2,0,0.3h-1.2
			c0-0.8-0.6-1.5-1.5-1.5s-1.5,0.6-1.5,1.5c0,0.3,0.1,0.8,1.1,1.1l1.1,0.3c1.4,0.3,2.3,1.1,2.3,2.3c0,1.4-1.2,2.6-2.7,2.5
			c-0.1,0-0.1,0-0.2,0C34.4,11.2,33.1,10.1,33,8.5C33,8.5,33,8.5,33,8.5z"/>
		<path class="st0" d="M49.1,7.7v3.2h-1.2V7.8c0-0.9-0.5-1.5-1.2-1.5c-0.8,0-1.4,0.6-1.4,1.4c0,0,0,0,0,0v3.2H44V7.8
			c0-0.9-0.5-1.5-1.2-1.5c-0.8,0-1.5,0.6-1.5,1.4c0,0.1,0,0.1,0,0.2v3h-1.2V5.3h1.2v0.9c0.3-0.7,1-1,1.8-1c0.8,0,1.5,0.4,1.9,1.1
			c0.4-0.7,1.2-1.2,2-1.1C48.3,5.2,49.1,6.1,49.1,7.7z"/>
		<path class="st0" d="M56.4,5.3v5.7h-1.2v-0.9c-0.4,0.7-1.2,1-2,1c-1.5,0-2.8-1.2-2.8-2.8c0-0.1,0-0.1,0-0.2
			c-0.1-1.5,1.1-2.8,2.6-2.9c0.1,0,0.1,0,0.2,0c0.8-0.1,1.6,0.3,2,1V5.3H56.4z M55.2,8.1c0-1-0.8-1.8-1.8-1.8c0,0,0,0,0,0
			c-1,0-1.7,0.8-1.8,1.7c0,0,0,0.1,0,0.1c0,1,0.8,1.8,1.8,1.8C54.4,9.9,55.2,9.1,55.2,8.1z"/>
		<path class="st0" d="M61.9,5.4l-0.2,1.1c-0.3-0.1-0.5-0.2-0.8-0.2c-1,0-1.5,1.1-1.5,2.6v2h-1.2V5.3h1.2v1.3c0.3-1,0.9-1.4,1.6-1.4
			C61.3,5.2,61.6,5.2,61.9,5.4z"/>
		<path class="st0" d="M65.8,6.3h-1.2v4.7h-1.2V6.3h-1v-1h1V3.2h1.2v2.1h1.2V6.3z"/>
		<path class="st0" d="M76.1,8.6c0,1.3-1,2.4-2.3,2.4c0,0-0.1,0-0.1,0h-3.4V2.6h3.2c1.1-0.1,2.2,0.7,2.3,1.8c0,0.1,0,0.2,0,0.3
			c0.1,0.8-0.4,1.5-1.1,1.8C75.5,6.7,76.2,7.6,76.1,8.6z M71.4,3.7V6h1.9c0.6,0,1-0.4,1-1c0-0.1,0-0.1,0-0.2
			c0.1-0.5-0.3-1.1-0.8-1.1c-0.1,0-0.2,0-0.2,0L71.4,3.7z M74.9,8.4c0-0.7-0.5-1.3-1.3-1.4c-0.1,0-0.1,0-0.2,0h-2v2.7h1.9
			c0.7,0.1,1.4-0.5,1.5-1.2C74.9,8.5,74.9,8.5,74.9,8.4z"/>
		<path class="st0" d="M82.8,5.3v5.7h-1.2v-0.9c-0.4,0.6-1.1,1-1.8,1c-1.4,0-2.3-0.9-2.3-2.6V5.3h1.2v3.2c-0.1,0.7,0.4,1.4,1.1,1.4
			c0.1,0,0.1,0,0.2,0c0.8,0.1,1.6-0.6,1.6-1.4c0-0.1,0-0.1,0-0.2v-3L82.8,5.3z"/>
		<path class="st0" d="M84.4,3.2c0-0.5,0.5-0.8,0.9-0.7c0.4,0,0.7,0.3,0.7,0.7c0,0.5-0.5,0.8-0.9,0.7C84.7,3.9,84.4,3.6,84.4,3.2z
			 M84.6,5.3h1.2v5.7h-1.2V5.3z"/>
		<path class="st0" d="M87.6,2.2h1.2v8.7h-1.2V2.2z"/>
		<path class="st0" d="M96.1,2.2v8.7h-1.2v-0.9c-0.4,0.7-1.2,1-2,1c-1.6,0-2.8-1.3-2.8-2.8c0-0.1,0-0.1,0-0.2
			c-0.1-1.5,1.1-2.8,2.6-2.9c0.1,0,0.2,0,0.3,0c0.8-0.1,1.6,0.3,2,1V2.2H96.1z M94.9,8.1c0-1-0.8-1.8-1.8-1.8c0,0,0,0,0,0
			c-1,0-1.7,0.8-1.8,1.7c0,0,0,0.1,0,0.1c0,1,0.8,1.8,1.8,1.8C94.1,9.9,94.9,9.1,94.9,8.1C94.9,8.1,94.9,8.1,94.9,8.1z"/>
		<path class="st0" d="M97.7,3.2c0-0.4,0.4-0.8,0.8-0.8c0,0,0,0,0,0c0.4,0,0.8,0.3,0.8,0.8c0,0.4-0.3,0.8-0.8,0.8c0,0,0,0,0,0
			C98,4,97.7,3.7,97.7,3.2z M97.9,5.3h1.2v5.7h-1.2L97.9,5.3z"/>
		<path class="st0" d="M106.1,7.7v3.2H105V7.8c0.1-0.7-0.4-1.4-1.1-1.5c0,0-0.1,0-0.1,0c-0.8-0.1-1.6,0.5-1.7,1.3c0,0.1,0,0.2,0,0.3
			v3h-1.2V5.3h1.2v0.9c0.4-0.6,1.1-1,1.8-1C105.3,5.2,106.2,6.1,106.1,7.7z"/>
		<path class="st0" d="M113.4,5.3v4.8c0,2.6-1.2,3.7-3.1,3.7c-1.1,0-2.1-0.6-2.6-1.6l1-0.5c0.3,0.6,0.9,1,1.6,1
			c1.2,0,1.9-0.7,1.9-2.5v-0.1c-0.4,0.6-1.2,1-1.9,1c-1.5,0-2.8-1.2-2.8-2.8c0-0.1,0-0.1,0-0.2c-0.1-1.5,1.1-2.8,2.6-2.9
			c0.1,0,0.1,0,0.2,0c0.8-0.1,1.5,0.3,2,0.9V5.3H113.4z M112.2,8.1c0-1-0.8-1.8-1.8-1.8c0,0,0,0,0,0c-1,0-1.7,0.8-1.8,1.7
			c0,0,0,0.1,0,0.1c0,1,0.8,1.8,1.8,1.8C111.4,9.9,112.2,9.1,112.2,8.1C112.2,8.1,112.2,8.1,112.2,8.1z"/>
		<path class="st0" d="M114.8,9.2h1.1c0,0.4,0.4,0.8,1,0.8s1-0.3,1-0.7s-0.3-0.6-0.7-0.7l-0.8-0.2c-1-0.3-1.5-0.8-1.5-1.7
			c0.1-1,1-1.7,2-1.7c0,0,0,0,0,0c1-0.1,1.9,0.6,2,1.6c0,0,0,0.1,0,0.1h-1.1c-0.1-0.4-0.4-0.7-0.8-0.7c-0.4-0.1-0.8,0.2-0.8,0.7
			c0,0,0,0,0,0c0,0.4,0.3,0.6,0.7,0.6l0.9,0.2c0.8,0.1,1.5,0.8,1.5,1.7c0,1.1-1.1,1.7-2.2,1.7C115.8,11.1,114.9,10.3,114.8,9.2z"/>
	</g>
</g>
</svg>
